<?xml version="1.0" encoding="UTF-8" standalone="no"?>
<!-- Created with Inkscape (http://www.inkscape.org/) -->

<svg
   xmlns:dc="http://purl.org/dc/elements/1.1/"
   xmlns:cc="http://creativecommons.org/ns#"
   xmlns:rdf="http://www.w3.org/1999/02/22-rdf-syntax-ns#"
   xmlns:svg="http://www.w3.org/2000/svg"
   xmlns="http://www.w3.org/2000/svg"
   xmlns:xlink="http://www.w3.org/1999/xlink"
   version="1.0"
   width="800"
   height="482"
   id="svg2211">
  <metadata
     id="metadata2216">
    <rdf:RDF>
      <cc:Work
         rdf:about="">
        <dc:format>image/svg+xml</dc:format>
        <dc:type
           rdf:resource="http://purl.org/dc/dcmitype/StillImage" />
        <dc:title></dc:title>
      </cc:Work>
    </rdf:RDF>
  </metadata>
  <defs
     id="defs2214">
    <linearGradient
       id="linearGradient4222">
      <stop
         id="stop4224"
         style="stop-color:#000000;stop-opacity:1"
         offset="0" />
      <stop
         id="stop4226"
         style="stop-color:#1a1a1a;stop-opacity:0"
         offset="1" />
    </linearGradient>
    <linearGradient
       id="linearGradient4214">
      <stop
         id="stop4216"
         style="stop-color:#000000;stop-opacity:1"
         offset="0" />
      <stop
         id="stop4254"
         style="stop-color:#000000;stop-opacity:0.7525773"
         offset="0.44642857" />
      <stop
         id="stop4218"
         style="stop-color:#000000;stop-opacity:0"
         offset="1" />
    </linearGradient>
    <radialGradient
       cx="256.04724"
       cy="133.49272"
       r="46.433445"
       fx="252.78427"
       fy="134.66743"
       id="radialGradient4220"
       xlink:href="#linearGradient4214"
       gradientUnits="userSpaceOnUse"
       gradientTransform="matrix(0.5040187,3.1718559,-1.0299177,1.469588,261.68324,-899.28781)"
       spreadMethod="pad" />
    <radialGradient
       cx="212.66667"
       cy="133.95238"
       r="212.5"
       fx="212.66667"
       fy="133.95238"
       id="radialGradient4228"
       xlink:href="#linearGradient4222"
       gradientUnits="userSpaceOnUse"
       gradientTransform="matrix(1,0,0,0.6141176,0,51.68986)" />
    <filter
       color-interpolation-filters="sRGB"
       id="filter3269">
      <feGaussianBlur
         stdDeviation="6.3963274"
         id="feGaussianBlur3271" />
    </filter>
  </defs>
  <path
     d="m 496.62933,187.13757 a 224.66658,106.73113 52.535617 1 1 -4.47474,-4.75814"
     id="path2220"
     style="fill:none;stroke:#666666;stroke-width:11.55035782;stroke-opacity:1" />
  <rect
     width="802.86243"
     height="483.81253"
     x="-0.6329599"
     y="-1.4643021"
     id="rect1946"
     style="color:#000000;fill:#9ec7f3;fill-opacity:1;fill-rule:evenodd;stroke:none;stroke-width:0.50407046;marker:none;visibility:visible;display:inline;overflow:visible" />
  <path
     d="m 571.84422,294.26926 c 2.13447,-2.6681 -0.83247,-8.47839 2.22364,-10.00644 2.21127,-1.10563 6.12124,0.54353 7.22687,-1.66773 0.97385,-1.94769 4.23662,-8.14705 7.22688,-8.89462 2.64311,-0.66077 4.79164,-0.19188 7.78281,0.55592 2.09088,0.52271 6.12144,1.24918 8.89461,0.55591 3.63949,-0.90989 3.94509,-2.22366 8.33869,-2.22366 3.44713,0 2.22189,2.77602 3.33549,5.00322 1.12802,2.25602 4.20655,3.40987 5.00324,5.00323 1.10881,2.21763 1.81441,3.02855 4.4473,5.00321 3.68999,2.7675 5.0579,4.11008 6.11504,8.3387 1.00155,2.00308 2.90267,3.27196 3.33549,5.00324 0.37018,1.48066 1.5606,4.55948 3.33547,5.00322 1.52323,0.38079 5.26822,1.3768 6.67096,2.77956 0.61059,0.61058 5.30464,3.42929 5.55915,4.44731 0.54911,2.19648 1.38005,6.93917 2.77958,8.3387 2.41938,2.41938 3.97781,3.97783 6.11504,6.11507 2.69513,2.69511 4.30931,5.03869 7.22687,7.22686 3.81984,2.86489 7.40325,4.38979 10.56237,8.3387 3.77626,4.72035 2.166,13.03516 7.22687,15.5656 2.48272,1.24135 3.79491,2.29716 4.44732,5.55913 0.82052,4.1026 1.47007,5.22969 3.33547,8.3387 2.85606,4.76008 8.53278,9.28279 11.11829,14.45376 1.48629,2.97259 3.36219,4.50074 5.00321,7.78279 1.29383,2.58766 2.80756,5.61511 3.8914,7.78279 1.58243,3.16487 4.78552,4.56782 6.67096,8.3387 1.1842,2.36839 3.24111,8.24435 5.00322,10.00645 2.24722,2.24723 2.48706,4.94495 3.33548,8.3387 1.1361,4.54438 1.28756,5.73486 5.00324,9.45053 2.53821,2.53822 2.42032,3.20695 3.33547,7.7828 0.71237,3.56178 1.05128,5.99396 2.77958,9.45053 1.79731,3.59466 2.94912,5.68146 3.89138,9.45053 0.5591,2.23638 3.35008,4.50569 3.8914,6.67097 0.10464,0.41878 0.8653,6.06912 1.66773,6.67096 2.49978,1.87481 5.14663,3.62228 6.67097,6.67096 l 48.1981,-0.0492 -1.66223,-489.051101 -802.9298737,-0.07636 0,14.819483 c 0,2.812676 2.01915018,3.557935 2.01915018,7.3897 0,3.661237 1.36146582,6.001783 2.22365282,9.450532 0.9555003,3.822001 11.6047927,9.850119 7.7827907,8.894618 0.37061,0 0.849769,-0.262059 1.11183,0 1.746446,1.746448 2.779567,8.246294 2.779567,12.230102 0,2.518212 -0.05832,12.727698 1.667741,14.453755 2.62887,2.62887 2.779568,2.850941 2.779568,8.338705 0,2.804167 -2.794327,6.095371 -1.111827,8.338706 1.877957,2.50394 2.780899,5.56445 3.335483,7.78279 0.622105,2.48842 1.111826,4.5156 1.111826,7.78279 0,2.82933 0.465359,10.93716 1.667741,13.34193 1.631599,3.26319 2.148299,4.92787 4.447311,7.22688 0.847613,0.84762 6.885556,5.17388 2.779568,7.22688 -1.206617,0.60331 -2.937483,-2.06575 -3.891397,-1.11183 -1.868942,1.86894 -1.535344,5.75322 -3.891395,8.89462 -0.982702,1.31027 -3.335481,8.21392 -3.335481,9.45054 0,2.98311 -4.546154,10.16698 -4.44731,10.56236 0.837239,3.34896 2.281038,6.12938 6.670963,7.22687 2.152585,0.53815 15.214783,1.93228 15.565584,3.3355 0.883738,3.53494 3.186998,1.11182 7.226878,1.11182 3.22041,0 6.24234,-0.21431 8.894621,1.11183 1.854516,0.92724 8.255602,2.14053 10.006461,3.89139 3.363625,3.36363 0.936639,-1.25666 0,-5.00322 -0.953743,-3.81499 -2.201952,-1.8013 -6.115046,-2.77957 -2.991506,-0.74788 -3.335502,-4.70366 -3.335502,-8.33871 0,-3.073 -1.667752,-3.60725 -1.667752,-7.78279 0,-3.31151 1.93644,-4.88743 0.555926,-8.33872 -1.286956,-3.2174 -3.32299,-5.83396 -6.670969,-6.67096 -2.306806,-0.5767 -0.989539,-4.47788 1.111825,-5.00322 3.293237,-0.82332 6.650589,-0.67959 9.450536,-2.77957 3.362647,-2.52197 7.259163,-1.67581 11.6742,-2.77956 1.927434,-0.48186 7.581821,-5.47041 9.450525,-5.00323 3.272059,0.81801 3.085008,3.64093 5.559132,6.11505 4.954646,4.95463 3.541954,0.55591 9.450547,0.55591 2.494755,0 8.549456,0.95377 10.562356,-0.55591 0.74298,-0.55723 6.80315,-4.73888 8.33869,-1.66773 0.83925,1.67846 0.89215,5.33943 2.77959,7.22687 2.65189,2.6519 7.18772,-0.36682 7.18772,4.23068 0,0.96086 -0.93393,9.8571 -0.31951,14.08591 0.19488,1.34132 -3.30669,5.20925 -2.72104,5.20925 3.1596,0 6.94256,-6.51586 7.52702,-5.7366 0.88451,1.17938 5.55913,3.51555 5.55913,5.00322 0,2.57432 8.49129,2.07106 6.67096,3.8914 3.18668,0.27779 4.47187,0.89378 7.22689,-2.77957 1.28419,-1.71227 5.94284,-1.66774 8.33869,-1.66774 3.29709,0 1.0168,-6.30644 1.57902,-8.55532 0.60603,-2.42416 0,-5.82518 0,-8.33872 0,-3.41353 1.20333,-5.18622 2.22365,-7.22687 1.58996,-3.17989 3.75859,-5.18663 6.62661,-5.90363 5.31245,-1.32812 4.84777,-3.05949 7.91067,-7.14337 1.81623,-2.42167 12.01084,2.75737 14.45895,2.14534 1.51219,-0.37805 2.96505,-4.21572 6.11506,-5.00322 2.55186,-0.63797 3.42768,-2.9416 7.22689,-3.8914 3.52365,-0.88091 7.23721,-1.11182 11.11827,-1.11182 2.55846,0 5.57284,-1.11183 8.8946,-1.11183 5.51369,0 3.70607,3.70606 7.78281,7.78279 3.58832,3.58832 7.85273,5.28301 8.89462,9.45054 0.66813,2.67249 5.31885,1.5476 7.78278,2.77956 4.85696,2.42847 6.3059,3.52633 10.00646,7.22687 0.96171,0.96172 1.19461,6.05582 1.66774,8.89462 0.60118,3.60713 3.26427,3.2643 6.11505,6.11507 1.71453,1.71453 3.18374,4.29557 5.00321,6.11504 2.77386,2.77386 6.06493,1.56749 7.78279,5.00322 1.57067,3.14131 7.1277,6.40895 10.56237,7.78281 3.79917,1.51965 4.59073,3.06642 6.11504,6.11504 1.89358,3.78715 -0.33966,6.13826 3.33549,8.89462 2.75481,2.06611 5.49022,2.1823 8.3387,3.89139 2.16123,1.29675 2.22365,4.70648 2.22365,7.22689 0,1.73347 5.9804,1.28446 6.67098,1.11183 2.3904,-0.59761 7.12353,0.66905 8.89461,1.11183 2.17332,0.54332 5.79207,-0.55591 8.3387,-0.55591 1.49075,0 7.67712,2.22364 11.11829,2.22364 6.29041,0 5.17421,0.72691 8.3387,3.89141 1.37024,1.37024 3.91808,2.23699 6.11504,3.33547 5.57566,2.78784 2.35814,0.26896 5.55913,6.67096 1.72552,3.45101 2.2825,6.78865 3.89139,10.00647 1.19062,2.38118 1.0603,5.90889 1.66777,8.33868 0.61332,2.45338 3.89139,0.52454 3.89139,5.55915 0,4.39255 -0.10514,5.06331 2.77957,7.22686 0.59647,0.44737 3.37498,7.25473 3.37498,8.73181 0,3.23497 0.55592,4.73803 0.55592,7.78279 0,3.01164 -3.42338,5.91551 -3.9309,7.94561 -0.82627,3.30507 -6.04375,-3.8914 -9.45054,-3.8914 -2.51758,0 -5.99315,0.55592 -8.89462,0.55592 -3.07994,0 3.22203,6.92056 0,6.11504 -3.41806,-0.8545 -5.53406,1.09302 -7.78279,2.77957 -2.0195,1.51462 -1.33251,3.89139 -3.89141,3.89139 -4.55557,0 -6.11504,-2.20254 -6.11504,3.33548 0,2.1592 -5.00323,-0.97129 -5.00323,-0.55591 1.21654,2.10452 1.57688,4.46303 1.99127,6.82189 2.44374,12.79705 -8.35967,0.38114 -8.40615,7.41286 0.67148,2.6859 1.65041,3.0336 1.41166,5.77815 -4.18209,-3.29825 -2.38592,-1.53651 -6.0871,0.31409 -2.79291,1.39646 -4.97908,-0.14501 -7.78278,0.55591 -4.14916,1.03727 -0.3388,15.54599 -2.90291,18.11008 -1.56847,1.56851 -2.22364,3.59657 -2.22364,6.11505 0,4.14357 -3.57302,0.55591 -5.55913,0.55591 -4.30716,0 -6.14552,0.061 -7.78279,3.33549 -1.15425,2.30849 -4.91838,1.62531 -7.22687,2.77956 -2.9365,1.46825 -2.64713,2.22365 -7.78281,2.22365 -5.72084,0 -5.73303,-7.27107 -7.1315,-12.86502 -0.2963,-1.18513 -4.26543,9.1528 -5.34045,9.1528 -1.49017,0 3.98503,6.41277 0.33722,6.41277 -3.12592,0 -4.0717,-1.86304 -6.11507,2.22366 -1.13243,2.26491 0.94658,7.05095 -0.31406,8.73181 -0.25091,0.33454 -5.2298,7.32864 -5.80098,9.61334 -0.32434,1.29741 -5.48061,2.70105 -6.11504,3.33549 -1.04951,1.04949 -3.02155,8.19477 -3.33548,9.45052 -0.1853,0.74124 -0.37062,1.48244 -0.55591,2.22365 -4.68238,4.34474 6.2236,10.21908 -1.11183,11.11829 2.97918,2.97919 -1.15455,8.75973 2.1562,12.69063 5.09681,-3.53783 12.33175,-6.33967 12.98203,-0.97829 3.69987,-1.70192 6.55769,-8.18071 7.04246,-8.98864 1.71638,-2.86063 4.38226,-10.33729 7.28273,-11.0624 2.96403,-0.74101 4.43259,-3.47079 8.33872,-4.44731 3.93043,-0.98261 8.1199,-2.22365 12.23009,-2.22365 5.99709,0 14.2038,-4.7346 20.0129,-6.67096 4.51653,-1.50553 8.49753,-4.24877 12.23009,-6.11507 2.296,-1.14798 0.20634,-3.94296 4.44731,-5.00322 4.09846,-1.0246 6.77518,-0.33005 10.56237,-2.22365 3.15662,-1.57831 -4.56556,1.11183 5.55913,1.11183 6.51818,0 13.19376,-3.75057 19.45699,-5.00322 4.19028,-0.83805 4.62529,0.19992 6.67096,-3.8914 1.7274,-3.4548 5.36593,-4.26594 7.22687,-3.33547 1.79278,0.89637 6.6841,0.56247 8.89462,1.66774 3.18587,1.59293 5.26889,8.3141 6.11506,10.00643 0.52216,1.04439 10.51835,-2.22364 11.67418,-2.22364 2.88933,0 -1.18582,6.11504 4.4473,6.11504 2.52495,0 5.8046,4.0141 7.78279,5.00322 1.69618,0.8481 8.03295,-2.34872 10.00645,-3.33549 3.51805,-1.759 7.73979,-2.34343 11.11828,-1.66773 4.86965,0.97394 9.83004,-1.486 14.45375,-3.33548 2.4116,-0.96466 5.17554,-4.61962 7.22688,-6.67096 2.74334,-2.74333 6.70894,-2.81755 8.89461,-5.00322 2.7626,-2.7626 -0.58793,-3.88499 5.00322,-5.00324 3.63177,-0.72634 7.44257,-1.41255 10.00647,-3.33548 1.7981,-1.34856 3.45439,-5.59778 3.89138,-7.78279 0.65408,-3.27043 5.95225,-6.31159 7.78279,-7.22687 2.46392,-1.23197 5.02804,2.77957 7.78281,2.77957 4.0261,0 8.31394,-0.67205 11.67417,0 2.24599,0.4492 5.40131,6.11504 10.56235,6.11504 3.64231,0 10.31895,0.31251 12.23011,2.22366 2.10468,2.10468 6.70916,2.52071 9.45053,3.89139 0.0682,0.0341 7.13617,-4.60237 10.00643,-5.55913 5.09293,-1.69764 5.35632,-7.83161 6.67099,-11.11826 1.10434,-2.76088 1.96563,-4.74522 3.8914,-6.67096 0.34821,-0.34824 0.9754,-5.56934 1.11183,-6.11507 M 171.58638,414.34662 c 0.0924,-0.0924 8.08735,-2.2343 9.45052,-2.77955 2.9333,-1.17334 7.46575,-2.2834 9.45052,-2.7796 0.65947,-0.16484 1.87704,-6.88025 2.77958,-7.78279 2.96676,-2.96677 3.33547,-1.64355 3.33547,-6.67096 0,-4.17572 -2.19901,-3.89138 -6.11505,-3.89138 -3.11627,0 -6.47307,1.66774 -10.00643,1.66774 -3.24148,0 -6.42224,-0.71685 -10.00644,0 -3.8622,0.77242 -7.39014,2.12648 -8.33873,-1.66774 -0.79342,-3.17376 -6.07295,0.21394 -7.78277,0.55591 -3.84114,0.76822 -4.86199,-2.60529 -7.78279,-3.33548 -2.74751,-0.68688 -5.63089,-0.67697 -8.33872,0 -3.53713,0.88426 -2.76287,5.56747 -0.55592,6.67095 3.19416,1.59709 2.22366,3.989 2.22366,7.78279 0,2.69165 3.12115,4.74875 2.22367,8.3387 -0.87185,3.48739 -3.3355,5.70704 -3.3355,9.45054 0,3.26678 -1.11183,6.86374 -1.11183,10.56236 0,5.0831 2.69709,2.70246 5.55916,0.55592 2.93612,-2.20211 7.15386,-4.72061 9.45053,-7.78279 1.02442,-1.36591 5.81285,-0.6574 8.3387,-1.66774 2.26971,-0.90788 5.93129,-5.9313 6.67096,-6.67096 1.55328,-1.55329 0.82246,-1.16972 3.89141,-0.55592 z M 10.371387,177.52739 c -0.6618002,-0.6618 -4.0944962,-5.27402 -5.5591358,-7.22687 -2.5127427,-3.35033 -4.96198307,3.06357 -5.46375558,5.07066 l -0.65129432,26.38615 c 2.18062269,-2.18062 1.12965245,-2.5582 4.447308,-4.21703 2.4334183,-1.21672 2.9345304,-3.82748 2.2236551,-6.67096 -0.892483,-3.56995 3.2991464,-3.5953 6.1150506,-5.00326 3.231867,-1.61593 1.628457,-3.41404 0.555915,-5.55913 -0.483216,-0.96642 -1.11183,-1.85303 -1.667743,-2.77956 z"
     id="path2310"
     style="fill:#f7dca2;fill-opacity:1;fill-rule:evenodd;stroke:#000000;stroke-width:1.70790958;stroke-linecap:butt;stroke-linejoin:miter;stroke-opacity:1" />
  <path
     d="m 802.72467,-1.139291 c 0.39309,0 0.69169,329.469871 -0.72747,329.186041 -1.41915,-0.28384 -76.00622,-8.93667 -77.41028,-9.28771 -2.33368,-0.58342 -4.54136,0 -6.68253,0 -2.84587,0 -5.53257,-1.57235 -8.25489,-1.57235 -3.59623,0 -2.24007,-2.13238 -3.14472,-2.35854 -2.13673,-0.53417 -4.5853,-1.17927 -7.07564,-1.17927 -1.70165,0 -3.03621,1.96545 -4.71709,1.96545 -1.68621,0 -5.27692,0.27991 -7.07562,1.17927 -2.55876,1.27939 -2.02974,2.61572 -2.75163,5.50325 -0.39834,1.5934 -0.24752,8.44898 0.7862,9.82727 -7.95488,-2.00877 -5.53994,8.00119 -10.22036,1.57237 -0.59262,-2.37049 -2.50086,-1.53509 -3.14472,-3.14473 -0.26207,-0.65514 -0.52412,-1.3103 -0.78619,-1.96545 1.55527,1.55527 0.55186,1.97313 0.39309,1.17928 -0.31901,-1.59506 -0.37321,-4.22077 -2.35852,-4.71709 -1.70425,-0.42607 -2.47368,-2.47365 -3.93093,-3.9309 -1.17581,-1.17583 -5.11016,-2.52143 -5.11016,-4.71709 0,-2.18202 -0.26302,-3.01744 -0.78618,-5.11017 -0.58026,-2.32101 -1.77024,-2.26094 -3.53781,-3.14472 -2.07152,-1.03577 -3.49502,-1.85648 -5.50328,-2.35856 -3.12786,-0.78195 -4.11902,-0.97429 -6.28943,-3.14472 -1.70378,-1.70376 -2.75165,-3.12023 -2.75165,-5.89634 0,-0.25477 -1.37283,-5.30377 -1.96543,-5.89637 -0.43812,-0.43808 -2.97936,-3.45511 -3.14472,-3.53781 -1.57415,-0.78706 -1.73333,-1.84938 -3.53783,-2.75162 -1.73834,-0.86919 -3.34735,-2.16809 -4.71707,-3.53782 -0.74142,-0.74141 -2.2214,-3.77538 -2.35855,-4.32398 -0.38674,-1.54703 -2.03374,-2.6317 -2.35854,-3.93093 -0.41801,-1.67196 0.88579,-4.69217 -0.78618,-5.11016 -1.5391,-0.38477 -3.36999,-0.30917 -5.11018,-1.17927 -1.19563,-0.59781 -2.51548,-0.78618 -4.32399,-0.78618 -2.98124,0 -3.59825,-2.13178 -7.86182,0 -1.82015,0.91008 -6.67098,1.96545 -7.07561,1.96545 -2.0913,0 -5.03672,-0.42981 -6.68255,0.39309 -1.49492,0.74745 -2.79355,2.35854 -5.11015,2.35854 -2.98099,0 -4.66065,0.36486 -7.07564,1.57238 -1.11632,0.55814 -5.97123,2.50825 -6.68254,3.93089 -0.91127,1.82252 -0.50367,0.96554 -3.53781,1.57234 -4.22444,0.8449 -2.71127,2.27784 -4.32399,5.50328 -0.47644,0.95288 -0.20427,4.13517 -1.17927,5.11019 -1.20425,1.20423 -2.9805,2.81627 -3.9309,4.71708 -0.83859,1.67716 -1.57236,2.91323 -1.57236,5.11016 0,2.30005 0.35202,4.75817 -0.78618,5.89636 -1.13098,1.13095 -2.36373,2.37924 -2.75165,3.93091 -0.68223,2.72891 -2.04175,2.04174 -3.9309,3.9309 -1.49552,1.49551 -1.55657,1.49059 -3.9309,1.96545 -1.90214,0.38044 -5.3241,0.87575 -7.07563,0 -1.56785,-0.78395 -1.75347,-2.25257 -2.75161,-2.75163 -0.37455,-0.18726 -5.82311,-0.31985 -6.28946,-0.7862 -1.11569,-1.11567 -1.67977,-2.9518 -3.14472,-3.53781 -2.13594,-0.85436 -5.26305,-1.31575 -7.86181,-1.96543 -0.52644,-0.13163 -2.88732,0 -5.11017,0 -2.49303,0 -8.07336,2.81167 -7.46871,0.39309 0.70536,-2.82147 0.72538,-2.93298 -3.14472,-1.96547 -1.82273,0.4557 -5.01885,-0.0456 -6.68255,0.78619 -1.69768,0.84885 -2.89254,2.78686 -4.324,3.14471 -0.63158,0.1579 -5.27379,1.83378 -5.50324,2.75165 -0.40911,1.63637 -0.30368,3.75205 -1.17929,5.50326 -0.88902,1.77807 -0.78359,2.16071 -2.75163,3.14471 -2.20948,1.10474 -3.32215,2.10811 -5.89635,2.75165 -1.42397,0.56958 -2.83612,1.20039 -4.324,1.57234 -1.09366,0.27343 -4.18636,0.87951 -5.11018,1.57238 -0.93145,0.69858 -3.77965,2.66104 -2.75162,4.71708 1.14087,2.2818 -0.15538,1.70949 -2.75163,2.35854 -3.04217,0.76054 -1.34335,2.63712 -3.14472,3.53781 -1.7404,0.87021 -4.11886,2.15342 -5.11017,3.14474 -2.0181,2.01808 -3.99367,1.19494 -7.07564,1.96543 -2.45209,0.61303 -4.39703,0.7862 -7.07563,0.7862 -0.55619,0 -4.69349,-0.20835 -5.89634,0.39309 -2.03219,1.01609 -4.71105,1.57234 -7.07565,1.57234 -2.72208,0 -4.62003,0 -7.4687,0 -2.46484,0 -3.82602,-0.9695 -4.71709,-2.75163 -1.28289,-2.5658 -1.81783,-2.35852 -4.324,-2.35852 -3.59567,0 -6.20107,-0.37101 -9.43415,-1.17929 -3.24501,-0.81125 -0.64135,-3.26884 -2.75164,-4.32399 -1.57673,-0.78838 -2.22069,-3.11026 -3.9309,-3.53781 -1.7904,-0.4476 -2.56101,-1.17927 -5.11016,-1.17927 -2.22753,0 -4.45503,0 -6.68255,0 -3.38407,0 -5.1785,-0.39308 -7.66525,-0.39308 -2.93184,0 -4.55599,3.46626 -6.87909,3.93089 -2.45303,0.49062 -4.72508,1.77092 -7.07564,2.35854 -2.56442,0.64112 -3.11304,2.35854 -5.89633,2.35854 -4.97128,0 -1.91254,1.17927 -4.7171,1.17927 -3.1114,0 -5.65729,1.17929 -8.64798,1.17929 -1.86088,0 -5.43915,-1.0148 -5.89634,-0.7862 -2.51022,1.25509 -5.2411,1.24474 -7.46875,2.35854 -1.70239,0.85122 -4.631,4.20421 -6.68252,4.71709 -3.27939,0.81985 -4.01274,1.59281 -7.07562,2.35855 -1.82006,0.45502 -4.1767,-0.14731 -5.50326,1.17926 -0.5825,0.58249 -1.8832,4.47941 -2.35854,4.71708 -1.16873,0.58436 -4.01308,1.02382 -5.89637,1.96547 -1.75459,0.87727 -3.62408,2.67492 -5.50327,3.14472 -1.68166,0.42042 -4.26975,0.78618 -6.28942,0.78618 -2.33641,0 -3.49369,1.28856 -5.50328,0.78616 -3.20238,-0.80058 -3.01439,0.32794 -6.28944,1.96547 -1.78381,0.89189 -2.33869,2.74665 -3.9309,3.14472 -1.29471,0.32367 -4.464,0.53309 -5.50327,1.57236 -0.13104,0.13104 -0.22105,0.32428 -0.39309,0.39309 -0.15143,0.0606 -5.81068,3.23039 -5.11019,3.9309 0.3931,0.3931 1.67651,0.93066 1.17929,1.17929 -0.99445,0.49721 -2.62821,1.27991 -2.35854,2.35853 0.29718,1.18872 1.05991,4.56272 0.39309,5.89636 -0.18976,0.3795 -3.18285,5.07203 -4.71708,3.53781 -0.91283,-0.91282 -1.62129,-2.80056 -1.96547,-3.14473 -0.83057,-0.83057 -3.59959,-2.8976 -3.14472,-4.71707 0.192,-0.768 0.68866,-1.37435 -0.39309,-3.53784 -0.55807,-1.11615 -2.35853,-2.24173 -2.35853,-3.9309 0,-2.92719 1.43571,-0.90597 2.75162,-3.5378 0.51377,-1.02753 1.01272,-4.43728 2.35854,-5.11019 0.89797,-0.44897 3.45012,-2.04179 4.71708,-2.35853 1.45808,-0.36452 2.89535,-2.15707 3.93091,-3.53781 0.92346,-1.23129 1.04724,-3.27377 1.96546,-5.11018 1.05064,-2.1013 2.75163,-1.78593 2.75163,-4.32399 0,-2.76206 -1.57236,-2.83489 -1.57236,-4.71709 0,-3.4538 0.80539,-1.98466 2.35854,-3.53781 1.36098,-1.36098 3.30433,-0.55268 4.71709,-1.96544 1.20954,-1.20957 0.96624,-2.35855 3.53781,-2.35855 2.11685,0 7.78971,3.30523 5.89634,2.35855 1.33729,-0.23915 3.56411,-0.78619 5.89636,-0.78619 1.09022,0 3.8398,-1.33025 5.11019,-1.96545 1.81705,-0.90853 3.26226,-2.02423 4.71708,-2.75163 1.55341,-0.7767 2.81169,-0.84626 3.9309,-1.96544 1.15824,-1.15824 2.44131,-0.78618 5.50325,-0.78618 2.5802,0 3.07743,-0.25847 3.9309,-1.96547 1.00204,-2.00404 2.9489,-0.78899 3.53783,-3.14472 0.56122,-2.24494 0.72992,-2.86346 1.17926,-5.11017 0.44126,-2.20628 0.99171,-3.9668 1.57237,-6.28944 0.35588,-1.42357 -0.99383,-3.56001 -1.96546,-5.50328 -0.95763,-1.91529 -0.76416,-3.58179 0,-5.11017 0.32158,-0.64313 5.15171,0.30522 5.50327,0.39309 1.72228,0.43057 2.89485,-0.55384 5.11018,0 2.70088,0.67524 3.32959,-1.75723 4.71708,-3.14471 1.35611,-1.35611 -1.97557,-3.04394 1.57236,-3.9309 0.7538,-0.18844 3.27062,-2.61805 3.53781,-2.75163 0.49732,-0.24868 1.96545,-3.0926 1.96545,-4.71709 0,-1.40183 1.57238,-2.76827 1.57238,-5.11018 0,-1.78219 3.5161,-0.77534 5.11016,-1.57238 1.0859,-3.68766 3.85461,-5.5911 4.12747,-6.68252 0.48675,-1.94703 3.71664,-1.46522 5.50324,-2.35852 1.3912,-0.73812 3.46332,-1.78837 6.09289,-3.14475 0.78214,0 1.62165,-3.14471 3.93092,-3.14471 2.23207,0 1.54514,1.27074 3.5378,1.76891 1.55852,0.38963 2.65504,1.31651 5.30672,2.35853 2.59563,-1.88608 4.40363,-3.90166 6.87909,-4.52053 1.98143,-0.49537 3.60435,-2.88473 3.9309,-3.53781 0.63114,-1.26227 1.23008,-2.5618 1.57236,-3.93091 0.60933,-2.4373 3.38412,1.02557 3.53783,1.17928 0.11691,0.11691 3.83867,0.95966 4.71706,1.17925 2.7074,0.67686 5.20761,-1.21822 7.07564,-1.96544 1.96663,-0.78666 -0.18204,-0.69034 5.11016,-1.57237 3.20352,-0.53392 3.35739,1.35973 4.71709,0 2.43998,-2.43999 3.88258,-1.24369 1.57237,-4.32399 -0.9179,-1.22384 0.13902,-6.19837 0.39309,-7.46872 0.54769,-2.73843 3.21928,-3.77162 4.32399,-4.32399 1.3103,-0.65515 0.13104,-3.01368 0.7862,-4.32399 1.13541,-2.27086 3.99229,-2.89595 5.89633,-4.32399 2.03291,-1.52467 3.25697,-0.22446 4.324,-2.35854 0.51031,-1.02065 5.15843,-1.20342 5.89636,-1.57237 2.75317,-1.37658 -7.62707,0.62922 -0.3931,-1.17925 1.89283,-0.47323 4.39817,-0.77137 6.28944,-0.39309 1.65979,0.33194 3.4419,0.78615 5.50328,0.78615 2.65944,0 4.31905,-0.19777 6.68252,0.39309 2.45722,0.61431 3.55327,1.57238 5.89637,1.57238 2.35919,0 4.78945,-0.35691 6.28943,0.39309 0.71288,0.35643 1.58532,0.5864 2.35855,0.39309 0.39309,-0.52412 0.7862,-1.04825 1.17926,-1.57237 1.32011,-1.76012 3.31116,-2.97352 4.32399,-4.32399 1.20923,-1.61229 2.44215,-2.91882 3.14475,-4.32399 0.88674,-1.77353 3.9727,0.30527 5.89634,0.78618 2.60369,0.65092 8.54763,-1.76472 9.43418,-3.53781 1.2712,-2.54242 -2.35763,-5.11019 2.35852,-5.11019 2.212,0 4.65371,-0.39309 7.07564,-0.39309 2.38937,0 3.68163,-3.86379 3.93091,-5.11017 0.41188,-2.05942 28.6466,5.82336 29.68508,4.78487 1.20743,-1.20741 0.15586,-4.87988 -0.39309,-7.07564 -0.56229,-2.2492 -1.49547,-3.23025 -1.96544,-5.11015 -0.47095,-1.88383 -0.78618,-3.91546 -0.78618,-5.50328 0,-1.76283 2.74944,-2.35418 3.5378,-3.9309 0.10886,-0.21779 4.12142,-2.61258 5.11019,-3.9309 1.18711,-1.58283 2.25526,-1.55235 2.75163,-3.53782 1.07918,-4.31677 -0.3931,0.0352 -0.3931,-3.9309 0,-3.14965 -27.80586,-14.43968 -26.93346,-16.18449 0.53033,-1.06068 4.57858,-2.87892 5.11017,-3.14472 l -3.53781,0.92173 c -5.50848,-4.84996 -10.54982,-4.32399 -18.08216,-4.32399 -1.70288,0 -2.88318,1.04804 -5.50327,0 -1.84418,-0.73766 -3.18043,-3.28756 -3.53781,-4.71707 -0.46927,-1.87713 -2.94489,-3.28969 -4.32399,-4.32399 -2.02611,-1.51961 -1.70509,-3.14474 1.57236,-3.14474 3.15656,0 3.21684,1.21532 5.50328,2.35853 3.39591,1.69798 0.59998,-2.33782 0,-3.53781 -1.03112,-2.06219 -3.8201,-3.39005 -5.11019,-5.11016 -1.26625,-1.68835 -1.57236,-3.36745 -1.57236,-5.89637 0,-1.61439 -2.08144,-3.16792 -3.9309,-3.5378 -2.26321,-0.45264 -5.13635,0 -7.46871,0 -3.56001,0 -4.0406,0.17917 -7.07563,0.78618 -1.84729,0.36945 -4.47474,-2.11621 -5.50326,-3.14474 -1.82282,-1.82283 -3.11747,-2.66755 -5.50328,-3.14472 -2.08843,-0.41769 -4.32233,0.0987 -6.28943,-0.39309 -2.34581,-0.58645 -4.37808,-2.85981 -5.11018,-4.32399 -1.19684,-2.39369 -4.15762,-1.90512 -2.75162,-4.71709 0.65968,-1.31938 1.30702,-1.17927 2.75162,-1.17927 0.37062,-0.74122 0.52412,-1.57236 0.78618,-2.35854 0.76942,-2.30825 -2.02406,-1.58701 -3.5378,-1.96545 -2.38186,-0.59547 -2.75165,-6.21647 -2.75165,-8.2549 0,-2.70451 3.51943,-4.29946 4.71708,-5.89635 1.4387,-1.91825 0.74424,-5.06822 3.14474,-7.46872 2.39944,-2.399437 -1.16409,-2.911906 3.9309,-3.930902 3.29422,-0.658848 2.60186,0.542858 4.71707,-1.572363 1.87253,-1.872515 2.35856,-3.272161 2.35856,-5.896353 0,-1.620452 3.56488,-1.572361 5.11017,-1.572361 2.91886,0 2.00769,-1.856621 4.7171,-1.179274 1.53597,0.384 5.33678,0 7.07561,0 2.65309,0 5.36193,0.110429 6.28944,1.965454 0.46807,0.936135 5.69686,0.786181 7.07564,0.786181 3.24455,0 0.52606,-4.058021 0,-5.110176 -0.97758,-1.955126 -5.70625,-4.425473 -7.86182,-5.503263 -2.29011,-1.14506 -3.8465,-1.881037 -5.50326,-3.537813 -1.32652,-1.326518 -2.37693,-2.264868 -4.324,-2.751633 -1.8283,-0.457077 -4.40697,0 -6.28945,0 -2.30138,0 -4.00726,-0.39309 -5.89634,-0.39309 -2.14466,0 -3.15497,0.191431 -5.11019,-0.786179 -1.53062,-0.765317 -5.00446,-2.6107 -6.28943,-4.323995 -1.20278,-1.603696 -1.85983,-2.698812 -3.53783,-3.537812 -1.87233,-0.936169 -2.54045,-1.814393 -4.71706,-2.358541 -2.84154,-0.710379 -4.49315,-1.741506 -6.28946,-3.537815 -0.99423,-0.994226 -1.57237,-5.671917 -1.57237,-7.468716 0,-3.420968 -0.0669,-1.505349 2.75164,-4.323993 0.98572,-0.985716 2.6213,-1.922708 3.53781,-3.144723 1.59546,-2.127284 3.14472,-3.072874 3.14472,-6.289444 0,-2.164595 0.94857,-4.255696 1.57238,-5.503265 1.11123,-2.222464 2.79206,-1.572361 5.89634,-1.572361 0.61451,0 4.31866,-2.355869 5.11017,-2.751631 1.71816,-0.859083 4.33518,-0.29761 6.28946,-0.786182 2.58254,-0.645635 7.42859,-0.992753 9.82725,-0.39309 3.6035,0.900879 3.62584,0.569141 4.32399,1.965452 1.01247,2.024928 1.70287,2.961385 4.71709,2.358542 1.21073,-0.242145 3.56296,2.654153 3.9309,3.144721 0.83207,1.109414 1.7047,3.144724 3.53781,3.144724 1.94552,0 3.67606,0.39309 6.28946,0.39309 2.51671,0 2.83048,1.395534 5.11016,1.965452 1.83675,0.459188 2.07269,-3.180595 2.35855,-4.323995 0.44895,-1.795829 -4.96223,-5.42929 -6.68255,-6.289443 -0.52411,-0.262061 -1.04823,-0.524122 -1.57234,-0.786181 -2.57791,-1.288945 -4.42697,-2.068421 -5.89637,-3.537813 -1.00186,-1.001872 -0.39309,-4.426989 -0.39309,-5.896354 l 317.92284,0.334734 z M 310.66283,79.76012 c -0.2412,-1.205934 5.93989,1.237222 7.33381,0.540251 1.88232,-0.941152 3.9319,-1.022235 6.68255,-1.572361 3.45107,-0.690214 5.25249,-1.17927 8.64799,-1.17927 2.81077,0 5.82456,-0.428984 8.25489,0.78618 2.55304,1.276512 5.83566,-0.150316 5.11016,2.751633 -0.29009,1.160467 6.58761,-1.922724 7.60361,-1.719523 2.76662,0.553319 4.32401,-0.479189 4.32401,2.75163 0,2.32116 1.85294,3.87399 2.35852,5.89636 0.57292,2.29165 3.70313,3.05361 5.89637,3.9309 3.51884,1.40754 4.32399,-0.69548 4.32399,4.32399 0,3.74246 0.51016,6.48172 1.17928,9.82726 0.0957,0.47874 1.17925,2.06597 1.17925,4.71708 0,2.28351 0.78618,4.30454 0.78618,6.68254 0,3.13928 0.62194,6.32452 0,9.43418 -0.8695,4.34759 -0.39309,5.81822 -0.39309,9.04107 0,3.1236 0.24915,6.04029 -1.57234,7.86182 -2.37402,2.374 -3.11527,4.71709 -7.07564,4.71709 -2.64765,0 -1.51926,11.17512 -4.43093,10.44721 -3.12238,-0.7806 -6.43335,4.67718 -8.97363,3.40704 -2.61019,-1.3051 -3.7603,-1.53779 -5.50328,0.78618 -2.07554,2.76741 -6.20442,1.20118 -8.35027,3.34703 -1.49608,1.49608 -7.16955,-2.85468 -9.37082,-2.41443 -2.55794,0.51161 -3.71794,-0.62643 -5.50326,-1.96543 -2.27836,-1.70878 0.93905,-2.02551 -5.11017,-3.53781 -2.26867,-0.56717 -0.9883,-3.3918 -3.14474,-3.93091 -1.39263,-0.34816 -3.29164,-0.93311 -4.32399,-1.96546 -1.7003,-1.7003 -3.4079,1.96121 -3.9309,-0.13078 -0.68488,-2.7395 -3.9629,-2.56434 -3.65703,-4.09373 0.46255,-2.31274 -2.75344,-3.28452 -4.99096,-4.03036 -2.77825,-0.9261 -1.98635,-1.39095 -4.0181,-3.4227 -2.03674,-2.03674 -1.32252,-4.57384 0,-5.89637 1.26481,-1.26478 -1.87825,-2.80813 -1.87825,-4.83221 0,-2.88452 -0.78618,-4.61774 -0.78618,-9.43417 0,-2.6158 3.01205,-12.57383 5.5748,-13.21452 2.48253,-0.62063 1.57237,-5.66145 1.57237,-7.8618 0,-1.37715 3.04794,-2.75762 3.53781,-4.71709 0.58426,-2.33703 3.183,-3.66479 5.11018,-5.11017 1.10686,-0.83016 2.16924,-3.15927 2.75163,-4.32399 0.60974,-1.21949 0.78618,-4.441979 0.78618,-5.89636 z M 81.274294,90.07535 c 0.373691,-1.05768 -0.358933,-6.2211 -1.572369,-8.647984 -1.493192,-2.986396 -0.60567,-5.219812 0.786184,-7.075626 0.64156,-0.855408 5.011736,-1.965451 5.896343,-1.965451 2.784257,0 1.754433,-2.751635 4.717087,-2.751635 2.645552,0 5.621141,0.668315 7.075643,-0.78618 1.948518,-1.94854 5.548698,-13.057935 7.468708,-13.825933 2.56688,-1.026757 6.22552,-1.06955 8.2549,-0.393092 0.42948,0.14316 6.19951,-10.995449 6.68253,-11.23696 3.40468,-1.702345 5.14279,-4.33215 8.25489,-5.110176 3.50534,-0.876331 7.2386,-1.596324 9.82727,-3.537811 0.33168,-0.24877 -3.18192,2.073021 0.39309,1.17927 2.85844,-0.714608 6.32658,-1.272741 9.04106,-2.358541 3.14185,-1.256737 11.42581,7.696806 14.77479,6.357218 2.36689,-0.946757 -0.38554,3.119109 1.735,2.588974 2.65847,-0.664611 3.96149,1.08864 5.89637,1.572361 2.32107,0.580268 3.69462,0.94299 5.11019,2.358544 0.41179,0.411791 0.49597,3.392719 3.14472,4.717082 0.21067,0.105346 0.26575,5.780115 0.39309,6.289445 0.84638,3.385586 -0.67531,5.221055 1.57234,7.468717 2.24213,2.242119 1.57237,2.47674 1.57237,5.110173 0,2.133391 8.65086,1.767473 9.04108,1.572363 1.71904,-0.859523 3.55168,-1.179273 5.89634,-1.179273 2.8715,0 4.22271,1.458988 4.71709,3.930905 0.25826,1.291264 -0.39309,2.614067 -0.39309,3.930902 0,2.34437 -2.88108,3.963268 -4.324,4.323998 -2.06083,0.51521 -1.17925,4.77434 -1.17925,6.68253 0,3.53059 0.41181,4.51117 -2.35856,5.89636 -2.0049,1.00245 -4.30818,0.58174 -6.28943,1.57236 -0.2344,0.1172 -0.52413,0 -0.78619,0 -0.93515,0 -4.92929,4.9293 -5.50327,5.50326 -1.4548,1.4548 -2.52834,2.64 -4.32399,3.53781 -1.05071,5.75748 0.4762,3.39532 -3.9309,1.17928 -1.72506,-1.72506 -2.74708,-3.63268 -4.71707,-5.11018 -1.84876,-1.38655 -3.77953,-3.06903 -5.50327,-3.9309 -2.51708,-1.25854 -2.11006,-2.48278 -4.71709,-1.17927 -1.6717,0.83585 -4.42563,0.4185 -5.89636,0.78618 -2.76903,0.69226 -4.37421,1.17927 -7.07563,1.17927 -1.76384,0 -3.90006,-0.39309 -5.89634,-0.39309 -2.10997,0 -2.79825,-2.01207 -3.9309,-3.14472 -1.75821,-1.75821 -4.71371,-1.17927 -7.07564,-1.17927 -3.0118,0 -6.28283,0.39309 -9.43415,0.39309 -3.05753,0 -4.33379,0.80573 -5.50328,3.14472 -0.76375,1.52752 -3.86304,2.70073 -5.50327,3.9309 -2.26687,1.70017 -4.77174,2.02011 -6.68252,3.9309 -0.43256,0.43257 -5.886417,0.98025 -6.682531,1.17928 -1.32306,0.33076 -2.837977,2.92428 -3.14474,3.53781 l -2.751625,-1.57236 c 0.698262,-2.79307 0.720852,-2.88229 -0.393093,-5.11018 -0.911204,-1.82241 -1.648315,-2.82759 -3.144717,-4.32399 -1.531858,-1.53184 -1.179277,-3.37483 -1.179277,-5.50326 0,-2.4556 0.173615,-2.52496 -2.358533,-3.53782 z M 149.4958,418.60399 c 0.5521,-1.10422 5.38585,-2.62402 7.4687,-3.14472 1.12721,-0.28181 2.23662,-3.02279 3.14472,-3.9309 1.62004,-1.62003 2.33519,-2.35856 5.11019,-2.35856 2.99881,0 5.88197,-0.48775 8.64798,-1.17925 2.71765,-0.67943 5.47083,-2.34232 7.86181,-3.53781 2.14888,-1.07446 4.35999,-2.39456 5.50326,-3.53783 1.35336,-1.35335 0.98449,-3.13769 0.7862,-3.9309 -0.55717,-2.22861 -3.2149,-1.57235 -6.68255,-1.57235 -2.40324,0 -5.17795,0 -7.86181,0 -3.97923,0 -5.70255,10e-4 -8.64798,1.96544 -2.13405,1.42271 -3.97003,-0.6977 -5.89635,-1.17926 -2.14713,-0.53678 -4.40554,-0.39309 -6.68255,-0.39309 -2.36434,0 -5.49259,-0.93916 -7.07562,-1.57236 -3.61312,-1.44527 -0.77683,-0.68089 1.17928,0.78618 0.89189,0.66893 0.39309,5.06422 0.39309,6.28943 0,1.96546 0,3.9309 0,5.89637 0,2.2275 0,4.45503 0,6.68253 0,2.73538 0.0977,3.83325 -1.17927,5.11017 -1.87461,1.8746 3.17354,-0.39309 3.9309,-0.39309 z"
     id="path2246"
     style="fill:#f9e6b2;fill-opacity:1;fill-rule:evenodd;stroke:#000000;stroke-width:0.56930321;stroke-linecap:butt;stroke-linejoin:miter;stroke-opacity:1" />
  <path
     d="m 326.68628,135.83387 c 4.74738,0.95072 12.39121,-5.72024 16.26046,-9.58952 1.26084,-1.26085 -0.0262,-9.78087 -1.11182,-11.95214 -0.5517,-1.10339 -6.15856,-5.01917 -8.29682,-5.68888 -2.8739,-0.90011 -6.26043,-1.45964 -7.68571,-1.81596 -5.72466,-1.43117 -6.59711,10.74186 -8.75564,13.61988 -3.40892,4.54525 0.93714,9.24013 2.08468,11.53523 0.42871,0.85738 6.71529,3.57557 7.50485,3.89139 z m 166.76353,-21.0887 c -0.46927,5.21548 9.86757,6.20125 16.50979,7.8618 5.64795,1.41199 9.85581,4.35254 12.5789,7.07563 3.47079,3.47078 -2.0975,9.90649 7.86181,3.9309 0.50364,-0.30219 5.23135,-12.2774 5.50326,-13.36508 1.11001,-4.44002 9.79129,0.2857 13.36508,3.14473 2.35006,1.88005 9.47717,0.78619 12.57889,0.78619 3.81145,0 6.82488,3.2701 11.79271,0.78617 3.20781,-1.60391 4.13947,-5.13421 5.50324,-7.86181 1.38926,-2.77851 -3.39509,-6.07412 -2.35852,-10.22035 1.0942,-4.37678 3.9309,-7.50679 3.9309,-11.00653 0,-6.82612 0.14707,-10.96976 -6.28943,-12.57889 -4.38321,-1.0958 -7.79748,-2.310283 -11.00655,-4.71708 -0.0466,-0.03495 12.63277,-8.071819 14.93745,-8.647988 1.54645,-0.386613 3.14471,-0.524121 4.71708,-0.78618 6.51661,-1.086102 10.48441,-3.23476 13.36506,-7.075627 1.56387,-2.085166 0.34021,-11.218027 0,-12.578888 -0.91665,-3.66664 8.51751,-2.622805 9.43417,-6.289446 0.13165,-0.526614 -10.32955,1.572361 -18.08216,1.572361 -6.38535,0 -14.0007,2.681936 -17.29595,7.075626 -3.02351,4.031316 -6.88377,3.930902 -11.79274,3.930902 -4.01363,0 -8.43914,-2.005373 -11.00652,-3.930902 -2.68157,-2.011181 -3.14471,-6.780262 -3.14471,-11.006528 0,-2.912446 11.11054,-8.306902 13.36507,-9.434168 7.68719,-3.843603 9.31186,-0.361063 14.93742,-7.861806 4.43512,-5.913494 13.20559,-6.916127 17.29599,-11.006531 0.55341,-5.333395 2.39644,-6.879889 1.25487,-13.959088 l -83.89924,-0.382921 c 1.80474,3.60946 6.34151,8.00925 8.74338,10.411107 1.59091,1.590905 -0.33194,11.548097 -0.78618,13.36507 -1.75391,7.015669 1.65367,3.890245 -3.14472,6.289446 -5.10159,2.550796 -5.26352,3.411244 -11.79271,4.717084 -5.26712,1.053423 -3.25445,3.144722 -10.22036,3.144722 -5.46111,0 -5.6869,-2.914031 -11.00652,-0.786181 -5.35359,2.141437 5.3873,9.434168 7.8618,9.434168 8.92042,0 9.88175,2.975425 14.93743,5.503266 3.90815,1.954071 6.30187,6.292549 9.43418,7.075623 2.09646,0.524121 4.19295,1.048243 6.28943,1.572364 6.28245,1.570605 8.56756,5.367046 3.14475,9.434167 -4.58247,3.436838 5.49106,11.792708 -4.7171,11.792708 -6.12713,0 -6.73253,2.01543 -9.43418,4.71709 -1.51889,1.5189 -13.01431,4.17522 -15.72359,4.71708 -4.969,0.9938 -9.03908,1.96345 -11.79272,4.71708 -1.78749,1.78749 -0.35313,11.95259 0,13.36507 0.81716,3.26867 6.25624,4.30739 7.07562,4.71709 3.25034,1.62517 1.74979,2.35855 7.07562,2.35855 z m 307.79824,122.29877 -0.1429,-239.392004 -125.21374,0.833871 c 4.66635,3.499758 3.6284,2.507105 1.52469,7.766427 -0.47558,1.188918 -5.09468,4.686052 -6.28946,7.075622 -1.33483,2.669657 -11.02212,3.545607 -13.36508,4.717085 -2.27086,1.135436 -2.35853,9.46995 -2.35853,12.578889 0,5.377 4.71709,7.668826 4.71709,13.365072 0,4.431542 7.07284,3.929512 10.22033,5.503265 6.04072,3.020354 6.28946,2.78367 6.28946,11.792709 0,5.227376 1.37386,7.174871 -3.14471,9.434167 -2.04669,1.023341 0,10.294226 0,12.578887 0,2.76958 -10.21742,0.62954 -13.36508,0 -5.45391,-1.09078 -10.87356,-7.795311 -15.72361,-10.220346 -4.72625,-2.363118 -6.74101,0.451551 -8.648,2.358544 -2.69807,2.698074 -7.19088,-3.144723 -11.00654,-3.144723 -6.29603,0 -9.2565,-0.481916 -13.36505,1.572359 -3.52243,1.761213 -8.47973,2.119931 -12.57889,3.144725 -5.49377,1.373444 -0.12125,7.740631 1.57235,9.434171 5.18378,5.18377 21.44445,3.14472 27.51634,3.14472 7.23893,0 7.5572,0.1204 13.36505,1.57236 6.12076,1.53019 3.92098,6.2795 7.07564,9.43417 2.78902,2.78903 -2.71446,12.07425 -3.9309,15.72361 -3.16902,9.50705 -7.62261,4.99057 -14.93744,8.64799 -7.59043,3.79522 -14.18113,5.57794 -17.29599,13.36508 -3.58454,8.96137 6.34696,11.79271 12.57889,11.79271 6.95693,0 12.51812,1.51159 16.5098,5.50326 2.24761,2.24761 1.3125,12.83226 0.78618,14.93743 -0.0217,0.0868 -6.80581,1.27931 -7.8618,5.50328 -0.42637,1.70547 1.1155,3.47402 2.35856,4.71708 -1.50982,6.03924 -6.36884,8.64799 -12.57889,8.64799 -11.17644,0 -6.19901,5.05104 -7.86183,13.36508 -0.44705,2.23524 7.86183,7.77796 7.86183,12.57887 0,10.88742 15.76101,1.94674 22.79922,-1.57235 7.50474,-3.75237 11.10267,-3.14472 18.86833,-3.14472 11.78451,0 4.98928,-2.11676 8.64798,-9.43417 3.98296,-7.9659 4.37419,-20.39333 6.28946,-23.58542 2.46716,-4.11193 11.00652,7.98927 11.00652,11.00652 0,8.62661 13.87954,5.77497 9.43418,10.22035 -2.73163,2.73163 15.89084,3.93092 17.29597,3.93092 12.46695,0 10.39788,-18.0568 15.72361,-25.15779 5.52448,-7.36599 6.28944,-0.69127 6.28944,5.50325 0,8.58571 -3.9309,15.96575 -3.9309,25.15778 0,2.63368 -0.52413,5.24122 -0.78618,7.86182 -1.32213,13.22129 3.01182,11.00654 18.08215,11.00654 7.00489,0 15.60106,-3.68576 11.79272,3.9309 -0.77769,1.55538 6.61495,4.25641 7.07561,4.71707 0.84045,0.84044 7.64203,1.03767 8.648,0.78618 0.35954,-0.0899 19.79405,0.17872 20.05612,0.44077 z m -312.51532,36.50972 c 4.20835,-1.05207 1.78357,-9.56088 5.50327,-11.7927 5.82377,-3.49428 -4.62495,-8.50918 7.8618,-11.00653 5.83176,-1.16635 6.28946,-4.87273 6.28946,3.9309 0,5.07719 1.74822,9.78589 3.9309,14.15124 2.10609,4.21219 0.37469,10.93297 1.57235,15.72363 1.37479,5.49913 4.90147,6.47383 7.8618,9.43415 3.47394,3.47393 5.00363,2.48347 8.648,1.57238 3.84017,-0.96006 6.59405,-4.54013 7.8618,-7.07562 2.79917,-5.59835 -0.19532,-9.09114 5.50327,-13.36508 3.44507,-2.58382 0.59738,-11.76171 0,-14.15127 -0.96445,-3.8578 -4.71709,-3.66656 -4.71709,-9.43415 0,-0.18039 -4.97173,-4.94952 -5.50325,-7.07564 -0.9698,-3.87918 -3.31379,-5.44413 -2.35855,-10.22034 0.83691,-4.18457 -3.88313,-7.62943 -6.28944,-9.43417 -3.79517,-2.84637 -8.30349,-4.71708 -13.36507,-4.71708 -4.34358,0 -9.43521,-0.78619 -12.5789,-0.78619 -5.15586,0 -9.83801,2.7624 -13.36507,6.28946 -2.22634,2.22634 -5.44752,5.50327 -10.22034,5.50327 -6.92887,0 -3.48152,4.49249 -10.22035,3.14471 -4.36795,-0.87357 -8.49331,1.21795 -13.36508,0 -5.76388,-1.44097 -9.10869,0.46074 -11.79271,3.14472 -2.53991,2.53992 -0.71725,7.7929 -3.14472,10.22036 -2.96436,2.96434 -5.50326,6.02665 -5.50326,11.79271 0,5.47512 -0.98936,9.09187 -5.50326,10.22034 -0.87655,0.21913 -6.17124,3.81271 -7.07564,4.71708 -2.11099,2.11101 -2.98763,6.91857 -5.50325,9.43417 -3.25371,3.25371 -7.66737,-2.36134 -9.43418,-4.71708 -2.0886,-2.7848 -6.34147,-5.71283 -8.64798,-6.28943 -2.8702,-0.71755 -6.60681,-0.1587 -9.43417,-1.57238 -3.86629,-1.93315 -7.90882,-1.63324 -12.97197,-0.98275 -7.06469,-3.09282 -4.52099,2.55513 -9.82726,2.55513 -4.72702,0 -8.40046,1.57234 -11.00653,1.57234 -4.12079,0 -3.12303,6.9889 -3.9309,10.22036 -0.87975,3.51894 3.95723,5.12332 6.28943,6.28943 1.22121,0.61062 -0.78618,12.80485 -0.78618,14.93743 0,2.62198 -4.73996,7.13282 -6.28943,11.00654 -1.48734,3.71835 7.61991,-1.84451 8.64799,-2.35855 3.79946,-1.89972 7.01185,-3.90539 11.00652,-5.50325 4.05738,-1.62295 7.85914,-2.75296 11.79271,-0.78618 2.81898,1.40948 4.76479,3.14472 9.43416,3.14472 4.36975,0 7.04102,0.40174 11.79271,-0.7862 1.44037,-0.36006 7.72943,2.35856 9.43418,2.35856 2.04676,0 2.67032,3.9309 4.71708,3.9309 4.51112,0 9.4532,0.78618 14.93743,0.78618 4.12469,0 10.76553,-0.66568 14.15126,-2.35854 2.69187,-1.34596 5.25804,-3.8083 8.64797,-5.50326 4.77083,-2.38542 2.6874,-5.66771 7.07564,-7.86182 4.4626,-2.23131 3.82784,-3.82783 7.07562,-7.07562 1.80738,-1.80735 2.69344,-9.20144 3.14472,-11.00653 0.0338,-0.13534 11.70993,-4.63431 12.57889,-5.50326 2.22827,-2.22828 3.72632,-2.2051 7.07562,-4.71709 z"
     id="path2406"
     style="fill:#fbf0c2;fill-opacity:1;fill-rule:evenodd;stroke:#000000;stroke-width:0.56930321;stroke-linecap:butt;stroke-linejoin:miter;stroke-opacity:1" />
  <path
     d="m 400.54784,298.41281 c 2.69194,-0.41083 -0.92981,3.48186 0.82367,3.16987 4.04954,-0.72048 -4.15346,8.90532 -12.56188,2.55406 -0.81074,-1.62144 -5.92278,-4.05198 -6.94894,-5.42018 -0.88586,-1.18117 -1.40063,-1.95653 -2.50161,-3.05752 -0.5282,-0.5282 -0.27796,-1.47665 -0.27796,-2.22366 0,-0.76971 -3.69327,-2.12844 -4.16935,-2.22364 -1.35383,-0.27076 -3.25306,-0.0206 -4.4473,0.27795 -1.56748,0.39186 -2.57136,-1.44209 -3.61344,-2.22364 -1.39511,-1.04635 -0.65925,0.0615 -3.33548,-1.94571 -3.21458,-2.03229 -3.5908,-4.25738 -3.33548,-7.78279 0,-1.64451 4.34272,-2.05852 6.11505,-2.5016 4.56326,-2.55337 1.17034,0.33571 4.30833,1.38979 -4.81758,4.70388 -0.78562,3.1863 3.05752,1.94569 1.14469,-0.57233 3.21271,0.27795 4.4473,0.27795 1.76753,0 2.57022,0.8682 3.61346,1.38979 1.8078,0.90392 3.72037,1.02634 5.55913,1.9457 2.13159,1.0658 3.53884,-0.0205 4.03037,1.94572 0.16622,0.66478 2.91334,13.44723 9.23661,12.48222 z m 27.69758,-3.21664 c 0.93363,-0.14733 1.48064,-2.12591 3.78648,-11.48927 2.12839,1.59628 1.96271,2.29168 2.50164,4.44732 0.0945,0.37776 3.47723,-2.90256 5.41361,-9.18865 0.79832,-2.59163 -4.57251,-6.17644 -3.66354,-9.14365 1.00662,-3.28602 6.25972,-1.89015 7.92268,-4.9907 1.47174,-2.74404 -0.95285,-9.29954 -0.006,-12.1876 1.91801,-5.84922 2.56608,-8.40514 2.84111,-8.26762 1.8724,0.93621 5.28118,-0.03 5.28118,2.22366 0,0.79149 0.16182,2.38547 1.11183,3.33549 1.4849,1.48491 2.1092,1.70862 4.16935,2.22366 0.3852,0.0963 5.20218,3.1442 4.52394,7.85643 -0.68586,4.76523 -1.73276,11.09032 -2.77112,17.35669 -0.8893,5.36664 -1.99848,4.81769 -2.64314,9.08145 -0.79307,5.24551 -11.97849,2.25145 -11.61773,2.39572 0.899,0.35962 -1.13278,3.44668 -0.38102,8.07958 1.72055,5.47858 6.53775,6.46922 -1.00876,9.29273 -21.90389,2.99274 -12.63503,-26.06283 -15.46069,-11.02524 z m 83.14316,-52.90482 c -0.0926,0.0464 -0.1853,0.0926 -0.27796,0.13898 -1.54387,0.77193 -2.81757,-2.29969 -3.19649,-3.05752 -0.50689,-1.01377 -0.82934,-1.986 -1.52876,-2.91857 -0.57362,-0.7648 -1.3026,-1.04096 -1.52878,-1.9457 -0.24222,-0.96888 -1.2771,-1.833 -1.66773,-2.22365 -0.25175,-0.25175 1.1571,-1.12586 1.2508,-1.25081 0.46882,-0.62509 1.71085,-0.18691 2.08468,0 0.66886,0.33444 1.23894,0.0258 1.94569,0.55592 0.78633,0.58973 1.50894,1.38978 2.36264,1.38978 0.78907,0 1.71619,0.55591 2.64059,0.55591 1.02529,0 2.0054,0.27796 3.05752,0.27796 1.08334,0 0.14416,0.66146 1.38978,0.97285 1.06863,0.26717 1.11183,-0.22747 1.11183,1.11183 0,1.11028 -1.23079,2.39239 -2.22366,2.6406 -0.95317,0.23829 -1.49333,0.83388 -2.50161,0.83388 -0.97501,0 -1.37505,1.19192 -1.52876,1.80671 -0.0421,0.16884 -1.16424,0.73596 -1.38978,1.11183 -0.15073,0.25122 0.18532,-0.55591 0.27795,-0.83387 M 531.81842,-2.183238 c 1.41443,2.828872 1.11182,5.345919 1.11182,8.616662 0,4.127878 0.45845,4.199436 5.28117,5.003223 1.39804,0.233004 2.77957,0.555913 4.16935,0.83387 0.55264,0.110528 1.11183,0.185306 1.66774,0.277958 4.26077,0.710122 8.43434,1.945696 12.78603,1.945696 5.08804,0 7.14449,-2.727978 8.3387,-7.504831 0.93799,-3.751948 3.89139,-2.177873 3.89139,-8.616662 l -37.2462,-0.555916 z M 783.6473,174.10512 c 1.56741,0.62697 -3.85386,-0.9916 -6.39299,0.27796 -0.65491,0.32746 -2.41411,-1.20704 -3.33551,-1.66774 -2.85097,-1.42548 -3.32717,-6.07353 -3.89139,-8.89461 -0.0146,-0.0735 -3.65969,-4.26187 -4.44731,-5.83708 -0.72126,-1.44255 -3.56795,-1.93434 -4.72526,-2.22366 -0.37062,-0.0926 -0.74121,-0.18533 -1.11182,-0.27795 -2.53935,-0.63485 -4.00569,-2.2399 -5.8371,-3.61346 -1.74003,-1.30503 -4.03872,-1.92898 -3.05752,-3.8914 0.91114,-1.82227 1.11183,-2.72093 1.11183,-5.00322 0,-2.09795 0.27795,-3.7418 0.27795,-5.83709 0,-1.6111 -0.50838,-4.25714 -0.5559,-4.4473 -0.24161,-0.96639 1.87361,-0.86134 0.5559,-3.05754 -1.12797,-1.87992 -2.38166,-2.38165 -3.89141,-3.89138 -1.05792,-1.05795 -4.2835,-1.38981 -5.83708,-1.38981 -4.1497,0 -6.75821,-1.58961 -10.56236,-2.22366 -3.57989,-0.59663 -9.17257,-4.90168 -9.17257,-8.61665 0,-1.18189 -3.12452,-2.94702 -3.61346,-4.16936 -0.3544,-0.88604 -2.27145,-1.43759 -3.05752,-2.22365 0.63243,0 -2.20873,-3.5538 -3.05752,-6.94892 -0.7354,-2.9416 -4.94699,-9.68632 -7.22688,-11.39623 -1.54378,-1.15785 -1.80981,-4.03346 -2.77955,-5.00322 -1.32592,-1.32591 -2.11504,-3.736763 -3.8914,-4.447313 -2.17228,-0.868909 -4.44731,-3.665735 -4.44731,-6.11505 0,-3.758421 1.97781,-2.877905 5.00322,-1.667742 2.30531,0.922129 4.33846,-0.05443 6.67096,1.111829 2.32144,1.160716 5.87272,-0.990668 7.78279,-1.945699 1.52807,-0.76403 1.87052,-3.012418 3.33547,-3.891395 1.63334,-0.979988 3.26119,-1.408356 4.44734,-1.111828 0.90019,0.225052 0.63667,2.759373 5.00321,1.667741 4.55515,-1.138793 10.36435,-0.615564 15.00966,-1.389785 3.86746,-0.644574 3.47826,1.008543 6.11505,1.667742 0.65438,0.163595 1.29714,0.370609 1.94571,0.555913 1.81194,0.517702 4.25922,-0.03135 6.11505,0.277956 1.98259,0.330433 5.69836,-0.625522 7.22687,-1.389783 1.87128,-0.935638 4.59366,-0.907043 6.67096,-1.945698 1.57579,-0.787895 3.16214,-0.781571 4.16935,-0.277956 0.98706,0.493524 -0.48074,4.532394 -0.83388,5.003223 -1.46465,1.952888 0.15037,3.613439 -3.05752,3.613439 -2.24742,0 -3.99703,0.86028 -6.11504,1.389784 -1.98023,0.495057 -2.13563,2.31862 -3.61344,3.057526 -1.27289,0.636447 -0.54838,2.772026 -2.22364,4.447306 -1.04864,1.04862 -0.99296,1.47895 1.11181,3.05753 1.26301,0.94725 4.72527,3.6257 4.72527,4.72526 0,0.50329 0.3445,2.48977 0.55591,3.33548 0.31216,1.24867 0.4375,1.86346 0,3.61344 -0.82378,3.29513 -3.05752,4.58082 -3.05752,8.33871 0,1.27337 -1.6582,2.74137 -1.94569,3.89139 -0.57873,2.31492 0.10724,3.87872 2.22365,4.72527 1.31336,0.52535 1.95261,2.13332 4.72525,3.05752 3.82933,1.27645 -4.21053,-5.72043 1.3898,3.61344 0.63813,1.0636 2.95247,1.56269 3.89138,2.50161 1.37554,1.37554 3.05753,0.73871 3.05753,3.61346 0,2.22709 1.38784,-0.27601 -1.66775,2.77956 -1.31363,1.31365 -1.94569,2.834 -1.94569,5.00323 0,1.33682 -0.8118,4.08109 -1.11183,5.28118 -0.43305,1.73227 -0.0219,3.19104 1.66774,3.61344 2.20772,0.55192 0.3149,2.5016 4.16935,2.5016 2.31141,0 2.44671,-0.30541 4.72529,0.83387 0.44626,0.22315 0.92651,0.37062 1.38978,0.55591 1.16905,0.46763 0.75861,-0.18964 1.11183,-0.27795 -0.30777,-0.76944 0.31437,1.99825 1.11183,2.22366 7.65279,2.16293 17.54134,1.00625 18.12508,5.79204 l 1.43533,11.76734 c 0.55708,4.56713 -10.27898,1.24199 -16.50289,1.61964 -3.33737,0.20251 1.37438,9.628 0.5559,11.67418 -0.46802,1.17008 -0.22072,-2.72232 -1.11181,-3.61344 -0.8614,-0.86138 -1.98906,-1.96303 -3.33549,-2.50161 z M 746.95699,5.107364 c -0.91016,-0.910163 2.67324,-0.841961 3.3355,-1.945698 0.55343,-0.922416 0.87639,-4.362245 0.55591,-5.003222 l -38.63601,0.83387 c 0,2.177341 2.87562,3.431528 4.16935,4.725267 2.59648,2.596476 1.61283,-0.387798 3.61344,3.613438 1.59922,3.198412 3.66809,2.268318 6.67097,1.66774 5.46014,-1.092029 11.12107,-0.626102 16.39944,-1.945696 0.37062,-0.09265 0.74124,-0.185307 1.11183,-0.277957 2.48638,-0.62159 4.16935,-2.651118 4.16935,-3.61344 M 676.078,146.03148 c 0.24048,-0.0601 3.42364,-5.12076 4.16935,-6.11504 1.15715,-1.54286 4.93823,-2.60809 6.39301,-3.33547 0.37062,-0.1853 0.74123,-0.37063 1.11182,-0.55592 1.56973,-0.78487 3.98185,-0.77697 5.00325,-1.38979 0.95105,-0.57064 -4.08969,-4.73084 -4.72529,-5.00323 -1.77586,-0.76109 -5.06256,0.19364 -6.94892,-0.27795 -0.31507,-0.0787 -1.94569,-5.57875 -1.94569,-6.11507 0,-3.42172 -1.38978,-6.31707 -1.38978,-9.45053 0,-1.87029 -1.21288,-3.53754 -1.9457,-5.00322 -1.12921,-2.25838 0.14631,-5.29586 -2.22365,-0.55591 -1.38708,2.77416 -1.18823,6.26785 -2.50161,8.89461 -1.11507,2.23013 -1.46767,3.89139 -4.4473,3.89139 -3.62609,0 -3.99984,4.33546 -6.67099,5.00326 -2.5437,0.6359 -5.48592,1.21418 -8.06075,2.50161 -3.73842,1.86919 -1.44281,5.73651 -6.11504,6.67095 -2.07377,0.41476 -1.56212,4.06374 -3.05752,5.55913 -2.14855,2.14855 8.20528,-0.48734 8.61666,-0.55591 3.8217,-0.63695 10.69565,-2.29597 14.17581,-0.5559 3.2655,1.63275 0.7317,3.70418 4.4473,4.4473 2.07853,0.41571 0.68173,3.61344 3.61344,3.61344 1.00218,0 1.5711,-1.29553 2.5016,-1.66775 z m 37.24622,-2.22365 c 1.8391,0 2.31301,2.86892 3.61344,4.16935 2.33786,2.33788 1.70424,4.65695 4.72527,6.67098 2.19169,1.46111 -0.80634,5.33126 -1.94571,5.55913 -0.58757,0.11753 3.04276,0.0487 6.67098,-0.55591 1.71371,-0.28563 0.96497,-5.86594 2.77957,-7.22689 2.70284,-2.02714 0.75566,-3.41368 -0.83388,-5.00323 -1.86301,-1.86301 -8.21722,-2.69858 -10.84033,-4.4473 -2.31185,-1.54124 -2.70774,-2.57343 -4.16934,-1.11183 -1.11258,1.11259 0.51772,1.84216 1.38978,1.66775"
     id="path2248"
     style="fill:#fdf9d2;fill-opacity:1;fill-rule:evenodd;stroke:#000000;stroke-width:0.56930321;stroke-linecap:butt;stroke-linejoin:miter;stroke-opacity:1" />
  <g
     transform="matrix(0.2902519,0,0,0.2902519,-99.40251,313.53516)"
     id="g1896">
    <g
       id="g2783" />
    <g
       id="g1902" />
  </g>
  <g
     transform="matrix(2.2811927,0,0,1.7523254,689.10491,-415.06902)"
     id="g2322"
     style="stroke:#aa4400">
    <path
       d="m -46.975173,269.69468 44.2132592,0 0,11.76481 m -44.2132592,-23.43554 0,23.43554 m 69.818377,-23.43554 0,11.67073 c -25.6051178,0.28151 -25.6051178,0 -25.6051178,0"
       id="path2318"
       style="fill:none;stroke:#aa4400;stroke-width:1px;stroke-linecap:butt;stroke-linejoin:miter;stroke-opacity:1" />
  </g>
  <path
     d="m 273.62662,250.66744 c -24.84021,11.25709 -43.57787,-41.91754 -64.05319,-74.41992 -20.80242,-33.02162 10.03722,-91.996808 34.64666,-101.675874 24.60944,-9.679066 56.7341,12.868663 54.97309,57.915184 -1.77127,45.30909 -0.32795,106.74297 -25.56656,118.18061 z"
     transform="matrix(2.4807864,-0.37964309,1.3621488,1.9683008,-419.40837,32.62297)"
     id="path3242"
     style="opacity:0.92222218;fill:url(#radialGradient4220);fill-opacity:1;fill-rule:evenodd;stroke:none;filter:url(#filter3269)" />
  <path
     d="m 404.21571,207.26762 a 7.0756252,6.2894448 0 1 1 0.20017,-0.0542"
     id="path2346"
     style="fill:#d40000;fill-opacity:1;fill-rule:evenodd;stroke:none" />
  <path
     d="m 345.25155,196.26111 a 7.0756252,6.2894448 0 1 1 0.20016,-0.0542"
     id="path2348"
     style="fill:#d40000;fill-opacity:1;fill-rule:evenodd;stroke:none" />
  <path
     d="m 260.34404,141.22845 a 7.0756252,6.2894448 0 1 1 0.20017,-0.0542"
     id="path2350"
     style="fill:#d40000;fill-opacity:1;fill-rule:evenodd;stroke:none" />
  <path
     d="m 195.87724,111.35358 a 7.0756252,6.2894448 0 1 1 0.20016,-0.0542"
     id="path2352"
     style="fill:#d40000;fill-opacity:1;fill-rule:evenodd;stroke:none" />
  <path
     d="m 386.13295,267.01735 a 7.0756252,6.2894448 0 1 1 0.20016,-0.0542"
     id="path2354"
     style="fill:#d40000;fill-opacity:1;fill-rule:evenodd;stroke:none" />
  <path
     d="m 291.79127,339.34597 a 7.0756252,6.2894448 0 1 1 0.20016,-0.0542"
     id="path2356"
     style="fill:#d40000;fill-opacity:1;fill-rule:evenodd;stroke:none" />
  <text
     x="315.53442"
     y="344.52902"
     transform="matrix(0.92049251,-0.3907602,0.3907602,0.92049251,0,0)"
     id="text2362"
     xml:space="preserve"
     style="font-size:27.32655334px;font-style:normal;font-variant:normal;font-weight:normal;font-stretch:normal;text-align:start;line-height:125%;writing-mode:lr-tb;text-anchor:start;fill:#000000;fill-opacity:1;stroke:none;font-family:Arial"><tspan
       x="315.53442"
       y="344.52902"
       id="tspan2364">Pompeii</tspan></text>
  <text
     x="254.57565"
     y="265.6236"
     id="text2366"
     xml:space="preserve"
     style="font-size:27.32655334px;font-style:normal;font-variant:normal;font-weight:normal;font-stretch:normal;text-align:start;line-height:125%;writing-mode:lr-tb;text-anchor:start;fill:#000000;fill-opacity:1;stroke:none;font-family:Arial"><tspan
       x="254.57565"
       y="265.6236"
       id="tspan2368">Stabiae</tspan></text>
  <text
     x="8.3851757"
     y="239.89459"
     transform="matrix(0.92049251,-0.3907602,0.3907602,0.92049251,0,0)"
     id="text2388"
     xml:space="preserve"
     style="font-size:27.32655334px;font-style:normal;font-variant:normal;font-weight:normal;font-stretch:normal;text-align:start;line-height:125%;writing-mode:lr-tb;text-anchor:start;fill:#000000;fill-opacity:1;stroke:none;font-family:Arial"><tspan
       x="8.3851757"
       y="239.89459"
       id="tspan2390">Herculaneum</tspan></text>
  <text
     x="232.01012"
     y="220.65997"
     id="text2392"
     xml:space="preserve"
     style="font-size:27.32655334px;font-style:normal;font-variant:normal;font-weight:normal;font-stretch:normal;text-align:start;line-height:125%;writing-mode:lr-tb;text-anchor:start;fill:#000000;fill-opacity:1;stroke:none;font-family:Arial"><tspan
       x="232.01012"
       y="220.65997"
       id="tspan2394">Oplontis</tspan></text>
  <text
     x="94.692497"
     y="90.007973"
     id="text2396"
     xml:space="preserve"
     style="font-size:27.32655334px;font-style:normal;font-variant:normal;font-weight:normal;font-stretch:normal;text-align:start;line-height:125%;writing-mode:lr-tb;text-anchor:start;fill:#000000;fill-opacity:1;stroke:none;font-family:Arial"><tspan
       x="94.692497"
       y="90.007973"
       id="tspan2398">Neapolis</tspan></text>
  <text
     x="9.5337"
     y="400.74344"
     transform="matrix(0.91339269,-0.40707959,0.40707959,0.91339269,0,0)"
     id="text2400"
     xml:space="preserve"
     style="font-size:27.32655334px;font-style:normal;font-variant:normal;font-weight:normal;font-stretch:normal;text-align:start;line-height:125%;writing-mode:lr-tb;text-anchor:start;fill:#000000;fill-opacity:1;stroke:none;font-family:Arial"><tspan
       x="9.5337"
       y="400.74344"
       dx="0 0 0 1.7121056 1.7121056"
       id="tspan2402">Surrentum</tspan></text>
  <text
     x="252.9541"
     y="64.973122"
     id="text2404"
     xml:space="preserve"
     style="font-size:27.32655334px;font-style:normal;font-variant:normal;font-weight:normal;font-stretch:normal;text-align:start;line-height:125%;writing-mode:lr-tb;text-anchor:start;fill:#000000;fill-opacity:1;stroke:none;font-family:Arial"><tspan
       x="252.9541"
       y="64.973122"
       id="tspan2406">Mt. Vesuvius</tspan></text>
  <text
     x="752.64758"
     y="59.79718"
     id="text9110"
     xml:space="preserve"
     style="font-size:22.77212906px;font-style:normal;font-variant:normal;font-weight:normal;font-stretch:normal;text-align:start;line-height:125%;writing-mode:lr-tb;text-anchor:start;fill:#aa4400;fill-opacity:1;stroke:none;font-family:Arial"><tspan
       x="752.64758"
       y="59.79718"
       id="tspan9112">10</tspan></text>
  <text
     x="638.28546"
     y="47.349213"
     id="text9114"
     xml:space="preserve"
     style="font-size:22.77212906px;font-style:normal;font-variant:normal;font-weight:normal;font-stretch:normal;text-align:start;line-height:125%;writing-mode:lr-tb;text-anchor:start;fill:#aa4400;fill-opacity:1;stroke:none;font-family:Arial"><tspan
       x="638.28546"
       y="47.349213"
       id="tspan9116">Miles</tspan></text>
  <text
     x="618.10333"
     y="77.98085"
     id="text9118"
     xml:space="preserve"
     style="font-size:22.77212906px;font-style:normal;font-variant:normal;font-weight:normal;font-stretch:normal;text-align:start;line-height:125%;writing-mode:lr-tb;text-anchor:start;fill:#aa4400;fill-opacity:1;stroke:none;font-family:Arial"><tspan
       x="618.10333"
       y="77.98085"
       id="tspan9120">Km</tspan></text>
  <g
     transform="matrix(1.2398007,0,0,1.2398007,-3.3350468,-76.43551)"
     id="g2239">
    <rect
       width="124.31815"
       height="175.4735"
       x="510.69473"
       y="262.35172"
       id="rect2377"
       style="color:#000000;fill:#9ec7f3;fill-opacity:1;fill-rule:evenodd;stroke:none;stroke-width:0.50407046;marker:none;visibility:visible;display:inline;overflow:visible" />
    <g
       transform="matrix(1.5865345,0,0,1.5865345,461.11644,-20.523077)"
       id="g2370"
       style="stroke:#aa4400">
      <g
         transform="matrix(0.1563064,0,0,0.1574276,22.536275,162.78068)"
         id="g2782"
         style="fill:#ffffd0;fill-opacity:1;stroke:#aa4400">
        <g
           id="g2775"
           style="fill:#ffffd0;fill-opacity:1;stroke:#aa4400">
          <g
             id="g2788"
             style="fill:#ffffd0;fill-opacity:1;stroke:#aa4400">
            <path
               d="m 496.44526,322.2401 5.20418,7.34126 c 7.17,8.56589 7.28883,10.59719 7.28883,12.93881 0,3.59745 19.33305,14.16101 15.55495,11.36777 -3.7781,-2.79324 9.37813,8.57134 9.37813,8.57134 l 13.00674,11.17462 12.87114,12.30442 -0.14699,-278.62228 -506.482575,1.70592 0,90.31426 c 1.74086,-1.46483 3.854794,0.71552 4.775094,0.71015 4.08877,-0.0239 10.34525,-8.1871 18.10432,-15.58724 8.57927,-8.18239 15.19938,-10.22237 21.78378,-10.22237 4.030721,0 9.057781,6.15921 18.102501,13.96439 2.37453,2.04911 5.52453,3.99187 7,4.31724 1.73027,0.38157 5.42916,3.74793 10.41878,9.48216 5.10029,5.86141 8.67781,9.10123 10.5,9.50884 1.52015,0.34004 4.25181,2.40217 6.07036,4.58251 l 8.41775,3.40036 0.77579,8.49836 0.7917,6.07513 c 0.0207,0.15918 -0.003,3.25289 -0.36267,7.24039 -0.57958,6.42132 -0.35179,7.99295 1.99289,13.75 1.456,3.575 3.34389,9.2 4.19532,12.5 0.85142,3.3 2.23125,7.45011 3.06628,9.22247 1.43728,3.05065 1.37956,3.47061 -1.08264,7.87596 -3.2273,5.77427 -3.25094,7.14826 -0.14727,8.56239 2.34492,1.06841 3.52396,0.58123 6.63661,0.628 l 3.49999,3.52116 c 1.95108,2.26826 2.22757,3.43895 1.75742,7.44089 -0.51428,4.37754 -0.31498,4.96491 2.54722,7.50684 1.70783,1.51675 3.10515,3.32839 3.10515,4.02587 0,0.69748 2.025,4.52211 4.5,8.49918 2.475,3.97706 4.5,7.89938 4.5,8.71626 0,0.81688 2.29822,5.09566 0.24827,6.06249 -4.37688,2.0643 -10.36994,3.38203 -8.24718,5.9398 1.0956,1.32012 2.48995,1.4982 7.51622,0.95993 8.24644,-0.88312 13.71972,1.67541 15.54283,7.26562 2.22716,6.82918 8.3463,16.47533 14.0642,22.17085 6.851,6.82403 10.8757,14.37959 10.8757,20.41683 0,4.04592 0.4532,4.81335 5.9257,10.03324 3.2592,3.10872 6.3818,5.65222 6.9392,5.65222 2.8154,0 23.6766,16.41415 26.0412,21.33599 l 2.5939,8.16401 7,0.0686 c 3.85,0.0377 9.3225,0.43317 12.1612,0.87878 3.2681,0.51302 6.3079,0.41047 8.2874,-0.2796 4.9842,-1.73749 10.5143,0.48889 13.4531,7.12214 1.407,3.17569 0.1862,7.46011 0.7578,10.21011 0.5716,2.75 1.7821,6.125 2.6899,7.5 0.9078,1.375 6.9869,3.013 7.2619,4.32918 0.5574,2.6678 -3.7292,3.79694 3.2377,6.28584 3.599,1.28577 5.236,2.54398 6.3505,4.88115 1.4572,3.05582 5.3854,5.49594 2.3764,8.50491 -3.3528,3.35284 -7.5388,1.71824 -6.0971,3.99892 0.7542,1.19294 3.3611,1.50393 12.7347,1.51919 l 11.7865,0.0192 4.3205,8.67244 c 0.5021,3.83945 2.0156,9.92316 1.975,12.8302 -0.0712,5.09654 -4.4633,3.14494 -0.311,6.2445 2.3923,1.78574 6.621,5.43683 8.0945,8.21448 1.4588,2.75 5.0326,7.5875 7.2474,10.75 3.4772,4.96477 2.7607,5.75 5.5259,5.75 3.8426,0 7.438,-2.31838 8.686,-5.60091 1.3014,-3.42274 4.6374,-3.01427 8.1208,2.24466 3.6375,5.49168 6.3484,12.64583 4.8826,16.50114 -2.7113,7.13134 -1.3615,13.365 4.8059,20.38928 3.0418,3.46443 5.0115,10.69416 3.4975,16.34358 0.85575,3.57005 -6.13435,9.89219 -5.43074,13.84717 0.76127,4.27916 9.15859,6.19546 8.46551,10.10972 -1.24371,7.02389 -5.89678,12.77791 -17.79155,14.81319 -3.13503,0.53642 -3.61244,3.16814 -7.94088,3.05585 -2.56315,-0.0665 1.82915,4.80512 4.55921,6.80711 l -5.70141,15.28668 -11.82051,6.85572 c -0.97515,5.59581 -1.9503,11.19162 -2.92544,16.78743 -0.86952,4.98967 5.35161,6.17821 10.73368,3.42472 l 10.9898,0.30469 7.58902,-13.94061 c 6.29187,-5.84992 12.05199,-12.75578 21.23931,-12.85604 5.36195,-4.64267 6.69502,-12.48549 4.48542,-23.14226 8.68333,-10.03018 19.19391,-14.61769 32.41661,-11.12676 l 6.16145,-6.12628 -3.54395,-9.00482 0.44605,-8.56121 c 1.486,-2.87368 7.1242,-7.7919 4.9549,-11.70622 -2.4017,-4.33345 -12.63858,-15.88209 -15.45038,-15.89203 -0.8676,-0.003 -9.514,0.0891 -9.8751,-2.73981 -0.381,-2.98453 -1.3775,-3.07763 -2.9926,-6.24339 l -2.0779,-4.07303 2.4406,-5.62879 c 1.3424,-3.09583 3.0153,-7.10672 3.7177,-8.9131 0.7024,-1.80637 3.3045,-5.06887 5.7824,-7.25 3.5587,-3.13247 5.3024,-3.96568 8.2994,-3.96568 2.9969,0 -0.7329,-7.03355 4.3082,-10.28491 5.0412,-3.25136 7.6161,-6.05884 7.6161,-8.30398 0,-1.32611 0.5748,-2.41111 1.2775,-2.41111 2.4331,0 5.7225,3.12372 5.7225,5.43426 0,1.27647 0.6858,2.89008 1.5241,3.5858 0.8383,0.69572 13.5197,5.81314 14.2734,5.19525 0.7537,-0.61789 1.8132,5.27089 5.1142,6.35061 0.9793,0.32032 6.65394,-2.40253 11.24852,0.77892 3.26556,2.26119 5.42346,10.01624 7.48742,12.68371 4.50004,5.8159 1.72701,11.36906 6.36343,16.1173 5.67018,5.80694 11.65869,4.61637 11.65869,6.15257 l 8.7078,-22.26848 -7.23288,-14.85392 -12.87499,-14.04907 c -0.5744,-6.75242 -4.47289,-11.52459 -12.61698,-13.76754 l -11.21821,-12.24122 c -1.686,-1.02537 -4.6038,-3.80669 -6.484,-6.1807 -3.7444,-4.72767 -14.4725,-10.68369 -15.3344,-11.24586 -5.6217,-3.66667 -8.9717,-5.64171 -14.5933,-9.30838 -1.5763,-1.02811 -16.5265,-6.1341 -22.4583,-9.29574 -3.8003,-2.0255 -4.7489,-6.93348 -6.5446,-9.51708 -1.5559,-2.23874 -4.4385,-5.61299 -6.4056,-7.49834 -3.5314,-3.38451 -6.2844,-9.17892 -5.197,-10.93837 0.3078,-0.49795 3.6023,-1.6994 7.3211,-2.66988 8.186,-2.13622 10.6616,-4.20086 10.6616,-8.89188 0,-7.114 -4.8776,-6.90773 -18.762,-6.52418 -4.569,0.12622 -11.8428,-0.26679 -15.9902,-0.21278 -6.5692,0.0856 -10.5788,-2.75503 -15.4643,-4.76356 -3.2319,-1.32867 -8.9232,-1.18331 -8.5482,-3.56574 0.6259,-3.97675 -7.6562,-5.71342 -11.8168,-5.96826 -3.7426,-0.22924 -1.5937,-3.74483 -4.0776,-8.64641 -1.755,-3.46343 -5.0227,-3.74966 -7.8527,-5.19339 -2.1838,-1.1141 -1.5189,-5.0166 -2.3402,-6.60469 -0.8212,-1.58808 -6.1991,-5.0599 -9.8684,-10.47186 -4.7455,-6.99934 -6.7777,-13.48621 -7.7392,-17.60781 -0.7434,-3.18687 -4.6177,-9.66621 -5.8329,-11.98639 -1.9829,-3.78597 1.4755,-4.06491 1.4181,-17.52689 l -3.4714,-14.43612 -2.4511,-11.77363 c -2.5976,-6.47549 -6.1442,-11.86679 -6.493,-14.04819 -0.7052,-4.40993 -1.6726,-7.08086 -7.097,-9.85935 -1.9322,-0.98971 -6.7778,-4.27761 -7.9915,-5.92808 -1.2136,-1.65048 -5.0223,-6.69624 -10.5462,-11.21281 -5.5238,-4.51656 -13.4738,-6.22076 -11.7471,-9.42482 l -6.1952,-5.6636 c -3.5682,-2.51853 -8.7125,-15.76445 -10.6806,-34.98347 l -0.669,-11.60758 6.078,-3.95903 c 3.8995,-1.7452 7.747,-6.18867 7.7276,-9.3393 -0.006,-0.97021 -3.5205,-3.97304 -4.3396,-6.67295 -0.819,-2.69991 1.3505,-6.48948 1.3505,-8.42126 0,-1.93178 -2.0128,-4.38381 -3.2415,-4.08365 -3.532,0.86285 -1.8905,-5.55426 -0.9132,-7.69908 1.0613,-2.32937 5.0074,-3.11545 8.3118,-2.58705 0.99753,0.15951 1.84587,-2.024 2.57842,-4.3664 0.76679,-2.4519 1.60751,-2.68557 2.15887,-2.98065 1.29513,-1.11904 1.85342,-2.5883 4.34052,0.21809 1.65123,1.36332 6.22977,-2.47731 10.03512,-6.93301 1.38165,-1.61778 5.06526,1.76551 7.29447,0.17595 1.38301,-0.98617 7.2747,-0.61618 10.2997,-1.04465 5.2107,-0.73807 3.7863,-4.32699 3.6079,-6.93234 -0.2395,-3.49801 4.4292,-1.57505 9.3131,1.7436 4.2273,2.87255 7.2274,5.44505 9.7399,1.76162 1.224,-1.79444 5.8533,0.58376 7.3498,2.86779 3.955,6.03595 4.7911,18.13247 -0.0102,16.27697 -3.2269,-1.2471 -9.8917,4.94545 -9.2718,7.66969 0.6852,3.01072 -1.8317,-0.89564 -2.1626,8.77125 -0.3146,9.19279 -0.6485,10.21317 1.0314,13.55619 1.0824,2.15373 4.436,6.25291 5.3703,9.10929 2.2049,6.74122 1.6388,10.30658 4.8063,10.30658 3.8329,0 5.8374,-1.51108 7.8114,-5.88845 1.6312,-3.6174 2.0891,-7.33703 4.6775,-6.81935 2.6816,0.53632 3.0347,3.59575 5.3988,-1.56819 1.3913,-3.03892 3.2536,-6.12613 4.1384,-6.86049 0.8849,-0.73436 2.4313,-3.25407 3.4367,-5.59936 1.0053,-2.34529 2.829,-6.23772 3.3586,-6.23772 1.2337,0 5.9693,3.14909 6.7984,5.76166 0.4372,1.37733 10.43676,4.54065 8.84296,5.11041 -5.3659,1.91821 -11.17116,2.97949 -10.88006,11.40986 0.0627,1.81589 3.1204,0.50419 4.9996,2.15419 3.7076,3.25527 4.15712,4.81621 6.22702,3.50516 1.3533,-0.85713 0.73718,-0.78259 -1.00752,-8.46772 -0.6348,-2.79615 -4.5411,-5.14593 -2.9593,-3.64308 2.1518,2.04438 9.8033,-2.5392 8.908,4.62595 l 6.38263,4.16289 -4.67353,8.69156 1.00146,14.71564 14.24164,22.44924 11.7918,11.63655 c 1.8918,5.24014 -0.32315,5.66141 -6.7608,1.12775 -1.4306,-0.48202 -7.7467,-7.63014 -9.0618,-4.36231 -1.2836,3.1895 0.53391,5.36632 1.37336,7.78941 l 2.01884,5.82742 c 1.16102,3.35132 1.812,4.04416 1.812,4.04416 l 6.4745,4.03128 c 1.3745,1.28681 8.7163,9.71504 11.4563,13.21594 2.74,3.50089 7.0547,-1.73658 8.2001,-1.30112 1.848,0.70264 -3.0715,4.2688 -3.4074,9.45411 -0.3611,5.57602 -1.3488,5.45044 2.1067,9.02911 4.0638,4.20864 3.1148,5.58837 7.6192,4.01815 2.7097,-0.94459 12.0157,-8.21746 6.1447,0.55383 -1.0166,1.51885 7.3403,2.13157 9.6803,2.32011 2.34,0.18855 1.9612,1.83216 4.7112,2.96328 l 11.31182,2.10052 13.56536,11.23357 z m 29.1007,42.06955 -3.18874,4.4142 c -1.30128,-0.43377 0.26143,0.004 -5.54732,-2.63374 -3.1195,-1.4165 -15.63928,-6.32806 -15.53292,-6.88023 0.1698,-0.88193 1.3552,-2.12522 2.6342,-2.76287 l 21.63478,7.86264 z m -28.1901,-25.90043 c -2.9944,2.18955 0.33134,-0.55306 -8.46986,-1.6234 -8.8012,-1.07034 -7.83164,-2.19074 -10.42234,-3.88821 -1.4154,-0.92738 -9.10288,0.57196 -9.44798,-0.80323 -1.5099,-6.01592 1.3671,-7.98184 8.5524,-3.03824 2.3982,1.65 5.4615,3 6.8075,3 1.3459,0 5.6883,0.73195 9.6497,1.62656 7.4512,1.68269 6.32498,2.53697 3.33058,4.72652 z m -4.28778,4.77415 c 0,-2.38392 8.67956,7.79737 6.88006,6.53699 -1.7995,-1.26038 0.31784,2.46471 -4.39216,2.94726 -11.4991,1.17812 -19.8675,-0.43096 -18.889,-5.56547 0.4506,-2.3647 0.3908,-5.4683 5.8725,-3.60724 6.4587,2.1928 10.5286,2.07238 10.5286,-0.31154 z m -13.36702,-27.09912 c 4.0781,-0.0449 8.48134,2.4753 7.71214,5.44348 -0.7692,2.96818 -4.75382,3.52841 -8.48832,3.52841 -1.127,0 -4.5069,-0.71454 -7.5111,-1.58787 -5.1811,-1.50618 -2.2344,-3.14571 -2.2344,-6.91335 0,-2.41761 6.44358,-0.42579 10.52168,-0.47067 z M 58.211279,412.39301 c -7.54708,6.75265 5.3345,-0.525 -7.37638,2.2555 l 0,135.63461 C 55.87635,549.981 65.31409,532.1893 73.532224,516.10326 c 5.413524,-10.59635 4.227467,-21.7143 7.414978,-30.33672 1.348677,-3.64825 -1.655607,-9.87102 -2.829251,-12.97185 -1.50835,-3.98512 7.208869,-5.14608 9.936959,-8.07209 5.21038,-5.58842 5.21958,6.60336 5.21959,-8.96928 0,-8.34151 3.407519,1.12775 -1.359061,-11.98034 -4.76657,-13.10809 -2.895399,-1.9472 -5.278689,-17.83579 -2.38329,-15.88859 11.048532,-13.43385 1.533049,-12.48033 -4.351859,0.43609 0.04175,-1.92142 -2.77721,-4.09993 -1.55005,-1.19789 -5.39927,-4.88807 -5.28706,-3.48043 0.24448,3.06682 -1.06994,-4.22171 -6.40287,-4.60551 -8.12915,-0.58504 -4.76658,-1.98607 -7.9443,4.36937 -3.17772,6.35543 0,0 -7.54708,6.75265 z m 314.360781,252.7548 c 1.73114,-0.0123 -8.20534,17.07747 -24.14237,29.75019 -3.34264,2.65798 -0.35007,9.4464 -2.91017,13.15354 -2.66362,3.85703 -9.76503,10.10296 -8.28227,15.04005 1.19289,3.97192 12.19394,7.8353 9.0072,9.68544 -5.56236,3.22935 -4.70343,11.88187 -0.32514,13.32086 8.18772,2.69103 2.05116,6.18045 -7.7974,9.24744 -5.03119,1.56679 0.89522,16.55634 -4.65861,17.73989 -3.4058,0.72579 -7.73315,-3.91482 -12.55609,-5.79089 -8.11527,-3.15676 -16.59369,-4.68201 -16.85899,-4.84211 -1.05474,-0.63649 -3.89116,-13.62044 -14.96101,-24.3375 -4.84901,-4.69447 -12.19116,-1.93172 -18.22854,-7.30081 -5.37221,-4.77753 -12.11905,-7.28115 -17.72663,-12.85704 -4.86465,-4.83716 -12.17786,-10.58524 -17.30421,-14.89066 -5.18485,-4.35455 -8.18479,-7.2592 -13.44792,-10.86796 -3.62543,-2.48584 -10.24554,-1.29708 -12.73096,-4.62286 -2.34803,-3.14194 -11.6151,-9.26658 -11.9276,-14.34016 -0.42684,-6.93013 8.47818,-12.87557 6.71109,-15.55992 -3.96544,-6.0238 12.5255,-6.31629 12.84694,-7.78403 l 9.87618,9.79209 11.22884,-7.00854 11.94513,-1.00141 19.64544,18.71644 13.30965,-2.31699 18.69303,5.13835 15.41845,-1.03141 9.66231,-5.3957 c 8.81618,-2.90389 13.91537,0.34309 18.23439,4.88111 4.42442,-3.8074 9.51472,-4.97026 14.76647,-5.49194 4.15312,-0.41254 8.40721,-0.42411 12.51279,-1.02547 z M 396.1191,212.66953 c 1.4844,0.15263 0.51098,-0.82523 -0.98842,-4.28227 -6.0428,-4.30285 -4.28168,3.74036 0.98842,4.28227 z m 15.94898,21.55056 c -5.6316,0.7307 -10.8993,-9.32951 -7.7673,-10.14643 0.6521,-0.1701 -7.1262,-8.60629 -9.2125,-5.62794 -1.1075,1.58099 6.1339,12.01583 8.0296,14.0167 3.3667,3.5535 6.0873,7.32419 8.183,6.8757 1.675,-0.35849 2.6308,-5.35984 0.7672,-5.11803 z m 5.9634,34.99114 c 0.6274,-2.65764 -1.2466,-2.25397 -2.6028,-2.37783 -1.3562,-0.12386 -1.6999,1.87655 -0.4878,3.78919 1.281,2.02132 2.4632,1.24628 3.0906,-1.41136 z M 74.856429,389.53474 c -0.74264,-2.75798 -4.574259,-4.87248 -9.591229,-9.36429 -3.77875,-3.3832 -3.494701,-10.41843 -4.227651,-12.18793 -1.26317,-3.04955 -1.18442,-3.34478 1.51057,-5.66291 2.28206,-1.96294 2.5646,-2.622 1.43157,-3.33924 -0.77641,-0.49148 -2.33415,-0.9005 -3.46165,-0.90892 -4.54853,-0.034 -5.79669,-4.48782 -2.45,-8.74244 2.3488,-2.98602 2.58916,-5.83281 0.55827,-6.61214 -0.79296,-0.30428 -2.19503,-1.70291 -3.11571,-3.10805 -1.58582,-2.42027 -1.55899,-2.83814 0.50943,-7.9344 1.60867,-3.96351 2.00074,-6.35332 1.48945,-9.07875 -0.44392,-2.3663 -0.22915,-4.56769 0.59608,-6.10963 1.09713,-2.05001 4.44876,-0.42989 3.03378,-1.99343 -2.36279,-2.61085 -0.394231,-1.05845 3.289979,-4.77012 1.7875,-1.80082 2.274241,-2.093 3.164031,-3.40602 l 2.185699,-0.13179 3.05538,-2.55973 c 3.20639,1.72676 3.430361,-1.02064 6.314291,-2.1938 2.306722,-0.93836 2.717988,1.048 6.148206,0.4192 3.69714,-0.67772 9.874308,-1.1182 13.030564,-1.1976 6.006551,-0.15112 3.146441,-5.76529 4.227391,-12.59661 1.04497,-6.60389 3.40437,-10.43806 5.91731,-11.23564 1.19474,-0.3792 3.88892,0.16275 5.29292,0.51513 2.38381,0.59829 -1.46901,3.17412 -2.12257,7.09579 -0.38493,2.30978 -1.59353,1.14972 -1.99165,3.62472 -0.39814,2.475 -2.50918,5.53862 -3.10401,7.24395 -0.95537,2.73897 -0.0355,10.87705 -2.68574,21.19163 -1.18154,4.59852 3.61878,7.15564 3.73768,10.16957 0.34413,8.72353 -0.82187,12.95404 -3.96197,16.3214 -3.04972,3.27045 -6.976341,10.40085 -6.976341,15.9924 0,3.70412 -1.699839,2.05116 -5.135839,5.45299 -2.2,2.17812 -3.432081,7.3308 -3.432081,8.00451 0,1.40078 -2.89,7.93294 -5.91732,11.29867 -2.89355,3.21699 -6.15554,10.12365 -7.31884,5.80348 z m 376.765471,-50.402 c -2.0156,-2.42864 -4.42512,-2.8211 -0.58472,-2.8211 3.3403,-0.20765 4.2964,-0.3014 3.5364,2.73555 -0.9476,1.53331 -1.55498,1.76847 -2.95168,0.0856 z m -47.41942,-69.39048 c -2.33648,-4.14757 -9.12926,-14.83232 -9.533,-16.78093 -0.71747,-3.46277 0.1521,-2.86774 4.3642,1.6788 4.5676,4.93035 16.06216,20.34984 15.21036,22.56971 -0.9158,2.38659 -7.32136,-4.48904 -10.04156,-7.46758 z"
               id="path1954"
               style="fill:#ffffd0;fill-opacity:1;stroke:#aa4400;stroke-opacity:1" />
          </g>
        </g>
      </g>
      <rect
         width="79.152733"
         height="109.42362"
         x="31.218491"
         y="178.94672"
         id="rect2268"
         style="fill:none;stroke:#aa4400;stroke-width:1.94221175;stroke-opacity:1" />
    </g>
    <g
       transform="matrix(0.2479856,0,0,0.2497643,496.87101,237.7341)"
       id="g10103"
       style="fill:#ffffd0;fill-opacity:1;stroke:#000000">
      <g
         id="g10105"
         style="fill:#ffffd0;fill-opacity:1;stroke:#000000">
        <g
           id="g10107"
           style="fill:#ffffd0;fill-opacity:1;stroke:#000000">
          <path
             d="m 496.44526,322.2401 5.20418,7.34126 c 7.17,8.56589 7.28883,10.59719 7.28883,12.93881 0,3.59745 19.33305,14.16101 15.55495,11.36777 -3.7781,-2.79324 9.37813,8.57134 9.37813,8.57134 l 13.00674,11.17462 12.87114,12.30442 -0.14699,-278.62228 -506.482575,1.70592 0,90.31426 c 1.74086,-1.46483 3.854794,0.71552 4.775094,0.71015 4.08877,-0.0239 10.34525,-8.1871 18.10432,-15.58724 8.57927,-8.18239 15.19938,-10.22237 21.78378,-10.22237 4.030721,0 9.057781,6.15921 18.102501,13.96439 2.37453,2.04911 5.52453,3.99187 7,4.31724 1.73027,0.38157 5.42916,3.74793 10.41878,9.48216 5.10029,5.86141 8.67781,9.10123 10.5,9.50884 1.52015,0.34004 4.25181,2.40217 6.07036,4.58251 l 8.41775,3.40036 0.77579,8.49836 0.7917,6.07513 c 0.0207,0.15918 -0.003,3.25289 -0.36267,7.24039 -0.57958,6.42132 -0.35179,7.99295 1.99289,13.75 1.456,3.575 3.34389,9.2 4.19532,12.5 0.85142,3.3 2.23125,7.45011 3.06628,9.22247 1.43728,3.05065 1.37956,3.47061 -1.08264,7.87596 -3.2273,5.77427 -3.25094,7.14826 -0.14727,8.56239 2.34492,1.06841 3.52396,0.58123 6.63661,0.628 l 3.49999,3.52116 c 1.95108,2.26826 2.22757,3.43895 1.75742,7.44089 -0.51428,4.37754 -0.31498,4.96491 2.54722,7.50684 1.70783,1.51675 3.10515,3.32839 3.10515,4.02587 0,0.69748 2.025,4.52211 4.5,8.49918 2.475,3.97706 4.5,7.89938 4.5,8.71626 0,0.81688 2.29822,5.09566 0.24827,6.06249 -4.37688,2.0643 -10.36994,3.38203 -8.24718,5.9398 1.0956,1.32012 2.48995,1.4982 7.51622,0.95993 8.24644,-0.88312 13.71972,1.67541 15.54283,7.26562 2.22716,6.82918 8.3463,16.47533 14.0642,22.17085 6.851,6.82403 10.8757,14.37959 10.8757,20.41683 0,4.04592 0.4532,4.81335 5.9257,10.03324 3.2592,3.10872 6.3818,5.65222 6.9392,5.65222 2.8154,0 23.6766,16.41415 26.0412,21.33599 l 2.5939,8.16401 7,0.0686 c 3.85,0.0377 9.3225,0.43317 12.1612,0.87878 3.2681,0.51302 6.3079,0.41047 8.2874,-0.2796 4.9842,-1.73749 10.5143,0.48889 13.4531,7.12214 1.407,3.17569 0.1862,7.46011 0.7578,10.21011 0.5716,2.75 1.7821,6.125 2.6899,7.5 0.9078,1.375 6.9869,3.013 7.2619,4.32918 0.5574,2.6678 -3.7292,3.79694 3.2377,6.28584 3.599,1.28577 5.236,2.54398 6.3505,4.88115 1.4572,3.05582 5.3854,5.49594 2.3764,8.50491 -3.3528,3.35284 -7.5388,1.71824 -6.0971,3.99892 0.7542,1.19294 3.3611,1.50393 12.7347,1.51919 l 11.7865,0.0192 4.3205,8.67244 c 0.5021,3.83945 2.0156,9.92316 1.975,12.8302 -0.0712,5.09654 -4.4633,3.14494 -0.311,6.2445 2.3923,1.78574 6.621,5.43683 8.0945,8.21448 1.4588,2.75 5.0326,7.5875 7.2474,10.75 3.4772,4.96477 2.7607,5.75 5.5259,5.75 3.8426,0 7.438,-2.31838 8.686,-5.60091 1.3014,-3.42274 4.6374,-3.01427 8.1208,2.24466 3.6375,5.49168 6.3484,12.64583 4.8826,16.50114 -2.7113,7.13134 -1.3615,13.365 4.8059,20.38928 3.0418,3.46443 5.0115,10.69416 3.4975,16.34358 0.85575,3.57005 -6.13435,9.89219 -5.43074,13.84717 0.76127,4.27916 9.15859,6.19546 8.46551,10.10972 -1.24371,7.02389 -5.89678,12.77791 -17.79155,14.81319 -3.13503,0.53642 -3.61244,3.16814 -7.94088,3.05585 -2.56315,-0.0665 1.82915,4.80512 4.55921,6.80711 l -5.70141,15.28668 -11.82051,6.85572 c -0.97515,5.59581 -1.9503,11.19162 -2.92544,16.78743 -0.86952,4.98967 5.35161,6.17821 10.73368,3.42472 l 10.9898,0.30469 7.58902,-13.94061 c 6.29187,-5.84992 12.05199,-12.75578 21.23931,-12.85604 5.36195,-4.64267 6.69502,-12.48549 4.48542,-23.14226 8.68333,-10.03018 19.19391,-14.61769 32.41661,-11.12676 l 6.16145,-6.12628 -3.54395,-9.00482 0.44605,-8.56121 c 1.486,-2.87368 7.1242,-7.7919 4.9549,-11.70622 -2.4017,-4.33345 -12.63858,-15.88209 -15.45038,-15.89203 -0.8676,-0.003 -9.514,0.0891 -9.8751,-2.73981 -0.381,-2.98453 -1.3775,-3.07763 -2.9926,-6.24339 l -2.0779,-4.07303 2.4406,-5.62879 c 1.3424,-3.09583 3.0153,-7.10672 3.7177,-8.9131 0.7024,-1.80637 3.3045,-5.06887 5.7824,-7.25 3.5587,-3.13247 5.3024,-3.96568 8.2994,-3.96568 2.9969,0 -0.7329,-7.03355 4.3082,-10.28491 5.0412,-3.25136 7.6161,-6.05884 7.6161,-8.30398 0,-1.32611 0.5748,-2.41111 1.2775,-2.41111 2.4331,0 5.7225,3.12372 5.7225,5.43426 0,1.27647 0.6858,2.89008 1.5241,3.5858 0.8383,0.69572 13.5197,5.81314 14.2734,5.19525 0.7537,-0.61789 1.8132,5.27089 5.1142,6.35061 0.9793,0.32032 6.65394,-2.40253 11.24852,0.77892 3.26556,2.26119 5.42346,10.01624 7.48742,12.68371 4.50004,5.8159 1.72701,11.36906 6.36343,16.1173 5.67018,5.80694 11.65869,4.61637 11.65869,6.15257 l 8.7078,-22.26848 -7.23288,-14.85392 -12.87499,-14.04907 c -0.5744,-6.75242 -4.47289,-11.52459 -12.61698,-13.76754 l -11.21821,-12.24122 c -1.686,-1.02537 -4.6038,-3.80669 -6.484,-6.1807 -3.7444,-4.72767 -14.4725,-10.68369 -15.3344,-11.24586 -5.6217,-3.66667 -8.9717,-5.64171 -14.5933,-9.30838 -1.5763,-1.02811 -16.5265,-6.1341 -22.4583,-9.29574 -3.8003,-2.0255 -4.7489,-6.93348 -6.5446,-9.51708 -1.5559,-2.23874 -4.4385,-5.61299 -6.4056,-7.49834 -3.5314,-3.38451 -6.2844,-9.17892 -5.197,-10.93837 0.3078,-0.49795 3.6023,-1.6994 7.3211,-2.66988 8.186,-2.13622 10.6616,-4.20086 10.6616,-8.89188 0,-7.114 -4.8776,-6.90773 -18.762,-6.52418 -4.569,0.12622 -11.8428,-0.26679 -15.9902,-0.21278 -6.5692,0.0856 -10.5788,-2.75503 -15.4643,-4.76356 -3.2319,-1.32867 -8.9232,-1.18331 -8.5482,-3.56574 0.6259,-3.97675 -7.6562,-5.71342 -11.8168,-5.96826 -3.7426,-0.22924 -1.5937,-3.74483 -4.0776,-8.64641 -1.755,-3.46343 -5.0227,-3.74966 -7.8527,-5.19339 -2.1838,-1.1141 -1.5189,-5.0166 -2.3402,-6.60469 -0.8212,-1.58808 -6.1991,-5.0599 -9.8684,-10.47186 -4.7455,-6.99934 -6.7777,-13.48621 -7.7392,-17.60781 -0.7434,-3.18687 -4.6177,-9.66621 -5.8329,-11.98639 -1.9829,-3.78597 1.4755,-4.06491 1.4181,-17.52689 l -3.4714,-14.43612 -2.4511,-11.77363 c -2.5976,-6.47549 -6.1442,-11.86679 -6.493,-14.04819 -0.7052,-4.40993 -1.6726,-7.08086 -7.097,-9.85935 -1.9322,-0.98971 -6.7778,-4.27761 -7.9915,-5.92808 -1.2136,-1.65048 -5.0223,-6.69624 -10.5462,-11.21281 -5.5238,-4.51656 -13.4738,-6.22076 -11.7471,-9.42482 l -6.1952,-5.6636 c -3.5682,-2.51853 -8.7125,-15.76445 -10.6806,-34.98347 l -0.669,-11.60758 6.078,-3.95903 c 3.8995,-1.7452 7.747,-6.18867 7.7276,-9.3393 -0.006,-0.97021 -3.5205,-3.97304 -4.3396,-6.67295 -0.819,-2.69991 1.3505,-6.48948 1.3505,-8.42126 0,-1.93178 -2.0128,-4.38381 -3.2415,-4.08365 -3.532,0.86285 -1.8905,-5.55426 -0.9132,-7.69908 1.0613,-2.32937 5.0074,-3.11545 8.3118,-2.58705 0.99753,0.15951 1.84587,-2.024 2.57842,-4.3664 0.76679,-2.4519 1.60751,-2.68557 2.15887,-2.98065 1.29513,-1.11904 1.85342,-2.5883 4.34052,0.21809 1.65123,1.36332 6.22977,-2.47731 10.03512,-6.93301 1.38165,-1.61778 5.06526,1.76551 7.29447,0.17595 1.38301,-0.98617 7.2747,-0.61618 10.2997,-1.04465 5.2107,-0.73807 3.7863,-4.32699 3.6079,-6.93234 -0.2395,-3.49801 4.4292,-1.57505 9.3131,1.7436 4.2273,2.87255 7.2274,5.44505 9.7399,1.76162 1.224,-1.79444 5.8533,0.58376 7.3498,2.86779 3.955,6.03595 4.7911,18.13247 -0.0102,16.27697 -3.2269,-1.2471 -9.8917,4.94545 -9.2718,7.66969 0.6852,3.01072 -1.8317,-0.89564 -2.1626,8.77125 -0.3146,9.19279 -0.6485,10.21317 1.0314,13.55619 1.0824,2.15373 4.436,6.25291 5.3703,9.10929 2.2049,6.74122 1.6388,10.30658 4.8063,10.30658 3.8329,0 5.8374,-1.51108 7.8114,-5.88845 1.6312,-3.6174 2.0891,-7.33703 4.6775,-6.81935 2.6816,0.53632 3.0347,3.59575 5.3988,-1.56819 1.3913,-3.03892 3.2536,-6.12613 4.1384,-6.86049 0.8849,-0.73436 2.4313,-3.25407 3.4367,-5.59936 1.0053,-2.34529 2.829,-6.23772 3.3586,-6.23772 1.2337,0 5.9693,3.14909 6.7984,5.76166 0.4372,1.37733 10.43676,4.54065 8.84296,5.11041 -5.3659,1.91821 -11.17116,2.97949 -10.88006,11.40986 0.0627,1.81589 3.1204,0.50419 4.9996,2.15419 3.7076,3.25527 4.15712,4.81621 6.22702,3.50516 1.3533,-0.85713 0.73718,-0.78259 -1.00752,-8.46772 -0.6348,-2.79615 -4.5411,-5.14593 -2.9593,-3.64308 2.1518,2.04438 9.8033,-2.5392 8.908,4.62595 l 6.38263,4.16289 -4.67353,8.69156 1.00146,14.71564 14.24164,22.44924 11.7918,11.63655 c 1.8918,5.24014 -0.32315,5.66141 -6.7608,1.12775 -1.4306,-0.48202 -7.7467,-7.63014 -9.0618,-4.36231 -1.2836,3.1895 0.53391,5.36632 1.37336,7.78941 l 2.01884,5.82742 c 1.16102,3.35132 1.812,4.04416 1.812,4.04416 l 6.4745,4.03128 c 1.3745,1.28681 8.7163,9.71504 11.4563,13.21594 2.74,3.50089 7.0547,-1.73658 8.2001,-1.30112 1.848,0.70264 -3.0715,4.2688 -3.4074,9.45411 -0.3611,5.57602 -1.3488,5.45044 2.1067,9.02911 4.0638,4.20864 3.1148,5.58837 7.6192,4.01815 2.7097,-0.94459 12.0157,-8.21746 6.1447,0.55383 -1.0166,1.51885 7.3403,2.13157 9.6803,2.32011 2.34,0.18855 1.9612,1.83216 4.7112,2.96328 l 11.31182,2.10052 13.56536,11.23357 z m 29.1007,42.06955 -3.18874,4.4142 c -1.30128,-0.43377 0.26143,0.004 -5.54732,-2.63374 -3.1195,-1.4165 -15.63928,-6.32806 -15.53292,-6.88023 0.1698,-0.88193 1.3552,-2.12522 2.6342,-2.76287 l 21.63478,7.86264 z m -28.1901,-25.90043 c -2.9944,2.18955 0.33134,-0.55306 -8.46986,-1.6234 -8.8012,-1.07034 -7.83164,-2.19074 -10.42234,-3.88821 -1.4154,-0.92738 -9.10288,0.57196 -9.44798,-0.80323 -1.5099,-6.01592 1.3671,-7.98184 8.5524,-3.03824 2.3982,1.65 5.4615,3 6.8075,3 1.3459,0 5.6883,0.73195 9.6497,1.62656 7.4512,1.68269 6.32498,2.53697 3.33058,4.72652 z m -4.28778,4.77415 c 0,-2.38392 8.67956,7.79737 6.88006,6.53699 -1.7995,-1.26038 0.31784,2.46471 -4.39216,2.94726 -11.4991,1.17812 -19.8675,-0.43096 -18.889,-5.56547 0.4506,-2.3647 0.3908,-5.4683 5.8725,-3.60724 6.4587,2.1928 10.5286,2.07238 10.5286,-0.31154 z m -13.36702,-27.09912 c 4.0781,-0.0449 8.48134,2.4753 7.71214,5.44348 -0.7692,2.96818 -4.75382,3.52841 -8.48832,3.52841 -1.127,0 -4.5069,-0.71454 -7.5111,-1.58787 -5.1811,-1.50618 -2.2344,-3.14571 -2.2344,-6.91335 0,-2.41761 6.44358,-0.42579 10.52168,-0.47067 z M 58.211279,412.39301 c -7.54708,6.75265 5.3345,-0.525 -7.37638,2.2555 l 0,135.63461 C 55.87635,549.981 65.31409,532.1893 73.532224,516.10326 c 5.413524,-10.59635 4.227467,-21.7143 7.414978,-30.33672 1.348677,-3.64825 -1.655607,-9.87102 -2.829251,-12.97185 -1.50835,-3.98512 7.208869,-5.14608 9.936959,-8.07209 5.21038,-5.58842 5.21958,6.60336 5.21959,-8.96928 0,-8.34151 3.407519,1.12775 -1.359061,-11.98034 -4.76657,-13.10809 -2.895399,-1.9472 -5.278689,-17.83579 -2.38329,-15.88859 11.048532,-13.43385 1.533049,-12.48033 -4.351859,0.43609 0.04175,-1.92142 -2.77721,-4.09993 -1.55005,-1.19789 -5.39927,-4.88807 -5.28706,-3.48043 0.24448,3.06682 -1.06994,-4.22171 -6.40287,-4.60551 -8.12915,-0.58504 -4.76658,-1.98607 -7.9443,4.36937 -3.17772,6.35543 0,0 -7.54708,6.75265 z m 314.360781,252.7548 c 1.73114,-0.0123 -8.20534,17.07747 -24.14237,29.75019 -3.34264,2.65798 -0.35007,9.4464 -2.91017,13.15354 -2.66362,3.85703 -9.76503,10.10296 -8.28227,15.04005 1.19289,3.97192 12.19394,7.8353 9.0072,9.68544 -5.56236,3.22935 -4.70343,11.88187 -0.32514,13.32086 8.18772,2.69103 2.05116,6.18045 -7.7974,9.24744 -5.03119,1.56679 0.89522,16.55634 -4.65861,17.73989 -3.4058,0.72579 -7.73315,-3.91482 -12.55609,-5.79089 -8.11527,-3.15676 -16.59369,-4.68201 -16.85899,-4.84211 -1.05474,-0.63649 -3.89116,-13.62044 -14.96101,-24.3375 -4.84901,-4.69447 -12.19116,-1.93172 -18.22854,-7.30081 -5.37221,-4.77753 -12.11905,-7.28115 -17.72663,-12.85704 -4.86465,-4.83716 -12.17786,-10.58524 -17.30421,-14.89066 -5.18485,-4.35455 -8.18479,-7.2592 -13.44792,-10.86796 -3.62543,-2.48584 -10.24554,-1.29708 -12.73096,-4.62286 -2.34803,-3.14194 -11.6151,-9.26658 -11.9276,-14.34016 -0.42684,-6.93013 8.47818,-12.87557 6.71109,-15.55992 -3.96544,-6.0238 12.5255,-6.31629 12.84694,-7.78403 l 9.87618,9.79209 11.22884,-7.00854 11.94513,-1.00141 19.64544,18.71644 13.30965,-2.31699 18.69303,5.13835 15.41845,-1.03141 9.66231,-5.3957 c 8.81618,-2.90389 13.91537,0.34309 18.23439,4.88111 4.42442,-3.8074 9.51472,-4.97026 14.76647,-5.49194 4.15312,-0.41254 8.40721,-0.42411 12.51279,-1.02547 z M 396.1191,212.66953 c 1.4844,0.15263 0.51098,-0.82523 -0.98842,-4.28227 -6.0428,-4.30285 -4.28168,3.74036 0.98842,4.28227 z m 15.94898,21.55056 c -5.6316,0.7307 -10.8993,-9.32951 -7.7673,-10.14643 0.6521,-0.1701 -7.1262,-8.60629 -9.2125,-5.62794 -1.1075,1.58099 6.1339,12.01583 8.0296,14.0167 3.3667,3.5535 6.0873,7.32419 8.183,6.8757 1.675,-0.35849 2.6308,-5.35984 0.7672,-5.11803 z m 5.9634,34.99114 c 0.6274,-2.65764 -1.2466,-2.25397 -2.6028,-2.37783 -1.3562,-0.12386 -1.6999,1.87655 -0.4878,3.78919 1.281,2.02132 2.4632,1.24628 3.0906,-1.41136 z M 74.856429,389.53474 c -0.74264,-2.75798 -4.574259,-4.87248 -9.591229,-9.36429 -3.77875,-3.3832 -3.494701,-10.41843 -4.227651,-12.18793 -1.26317,-3.04955 -1.18442,-3.34478 1.51057,-5.66291 2.28206,-1.96294 2.5646,-2.622 1.43157,-3.33924 -0.77641,-0.49148 -2.33415,-0.9005 -3.46165,-0.90892 -4.54853,-0.034 -5.79669,-4.48782 -2.45,-8.74244 2.3488,-2.98602 2.58916,-5.83281 0.55827,-6.61214 -0.79296,-0.30428 -2.19503,-1.70291 -3.11571,-3.10805 -1.58582,-2.42027 -1.55899,-2.83814 0.50943,-7.9344 1.60867,-3.96351 2.00074,-6.35332 1.48945,-9.07875 -0.44392,-2.3663 -0.22915,-4.56769 0.59608,-6.10963 1.09713,-2.05001 4.44876,-0.42989 3.03378,-1.99343 -2.36279,-2.61085 -0.394231,-1.05845 3.289979,-4.77012 1.7875,-1.80082 2.274241,-2.093 3.164031,-3.40602 l 2.185699,-0.13179 3.05538,-2.55973 c 3.20639,1.72676 3.430361,-1.02064 6.314291,-2.1938 2.306722,-0.93836 2.717988,1.048 6.148206,0.4192 3.69714,-0.67772 9.874308,-1.1182 13.030564,-1.1976 6.006551,-0.15112 3.146441,-5.76529 4.227391,-12.59661 1.04497,-6.60389 3.40437,-10.43806 5.91731,-11.23564 1.19474,-0.3792 3.88892,0.16275 5.29292,0.51513 2.38381,0.59829 -1.46901,3.17412 -2.12257,7.09579 -0.38493,2.30978 -1.59353,1.14972 -1.99165,3.62472 -0.39814,2.475 -2.50918,5.53862 -3.10401,7.24395 -0.95537,2.73897 -0.0355,10.87705 -2.68574,21.19163 -1.18154,4.59852 3.61878,7.15564 3.73768,10.16957 0.34413,8.72353 -0.82187,12.95404 -3.96197,16.3214 -3.04972,3.27045 -6.976341,10.40085 -6.976341,15.9924 0,3.70412 -1.699839,2.05116 -5.135839,5.45299 -2.2,2.17812 -3.432081,7.3308 -3.432081,8.00451 0,1.40078 -2.89,7.93294 -5.91732,11.29867 -2.89355,3.21699 -6.15554,10.12365 -7.31884,5.80348 z m 376.765471,-50.402 c -2.0156,-2.42864 -4.42512,-2.8211 -0.58472,-2.8211 3.3403,-0.20765 4.2964,-0.3014 3.5364,2.73555 -0.9476,1.53331 -1.55498,1.76847 -2.95168,0.0856 z m -47.41942,-69.39048 c -2.33648,-4.14757 -9.12926,-14.83232 -9.533,-16.78093 -0.71747,-3.46277 0.1521,-2.86774 4.3642,1.6788 4.5676,4.93035 16.06216,20.34984 15.21036,22.56971 -0.9158,2.38659 -7.32136,-4.48904 -10.04156,-7.46758 z"
             id="path10109"
             style="fill:#ffffd0;fill-opacity:1;stroke:#000000;stroke-opacity:1" />
        </g>
      </g>
    </g>
    <rect
       width="125.57854"
       height="173.60434"
       x="510.64563"
       y="263.38208"
       id="rect10111"
       style="fill:none;stroke:#aa4400;stroke-width:3.08138609;stroke-opacity:1" />
    <rect
       width="128.25145"
       height="176.50145"
       x="509.08499"
       y="262.04562"
       id="rect10118"
       style="fill:none;stroke:#000000;stroke-width:0.93581289;stroke-opacity:1" />
    <rect
       width="16.317223"
       height="11.335383"
       x="571.79413"
       y="352.71585"
       id="rect9124"
       style="fill:none;stroke:#ff0000;stroke-width:1.8367573;stroke-opacity:1" />
  </g>
  <path
     d="m 62.677818,166.94506 a 7.0756252,6.2894448 0 1 1 0.200167,-0.0542"
     id="path2233"
     style="fill:#d40000;fill-opacity:1;fill-rule:evenodd;stroke:none" />
  <text
     x="-55.935268"
     y="202.79404"
     transform="matrix(0.92049251,-0.3907602,0.3907602,0.92049251,0,0)"
     id="text2235"
     xml:space="preserve"
     style="font-size:27.32655334px;font-style:normal;font-variant:normal;font-weight:normal;font-stretch:normal;text-align:start;line-height:125%;writing-mode:lr-tb;text-anchor:start;fill:#000000;fill-opacity:1;stroke:none;font-family:Arial"><tspan
       x="-55.935268"
       y="202.79404"
       id="tspan2237">Misenum</tspan></text>
  <path
     d="m 500.27417,214.09397 a 7.0756252,6.2894448 0 1 1 0.20016,-0.0542"
     id="path2234"
     style="fill:#d40000;fill-opacity:1;fill-rule:evenodd;stroke:none" />
  <text
     x="399.54324"
     y="389.24481"
     transform="matrix(0.92049251,-0.3907602,0.3907602,0.92049251,0,0)"
     id="text2381"
     xml:space="preserve"
     style="font-size:27.32655334px;font-style:normal;font-variant:normal;font-weight:normal;font-stretch:normal;text-align:start;line-height:125%;writing-mode:lr-tb;text-anchor:start;fill:#000000;fill-opacity:1;stroke:none;font-family:Arial"><tspan
       x="399.54324"
       y="389.24481"
       dx="0 0 0 1.7121056 0 1.7121056"
       id="tspan2383">Nuceria</tspan></text>
  <text
     x="-96.141502"
     y="283.48776"
     transform="matrix(0.91436022,-0.40490171,0.40490171,0.91436022,0,0)"
     id="text2385"
     xml:space="preserve"
     style="font-size:32.2348175px;font-style:italic;font-variant:normal;font-weight:normal;font-stretch:normal;text-align:start;line-height:125%;writing-mode:lr-tb;text-anchor:start;fill:#000080;fill-opacity:1;stroke:none;font-family:Arial"><tspan
       x="-96.141502"
       y="283.48776"
       id="tspan2387">Gulf</tspan></text>
  <text
     x="-47.225071"
     y="308.34442"
     transform="matrix(0.91436022,-0.40490171,0.40490171,0.91436022,0,0)"
     id="text2389"
     xml:space="preserve"
     style="font-size:32.2348175px;font-style:italic;font-variant:normal;font-weight:normal;font-stretch:normal;text-align:start;line-height:125%;writing-mode:lr-tb;text-anchor:start;fill:#000080;fill-opacity:1;stroke:none;font-family:Arial"><tspan
       x="-47.225071"
       y="308.34442"
       id="tspan2391">of</tspan></text>
  <text
     x="-31.228951"
     y="339.41406"
     transform="matrix(0.91436022,-0.40490171,0.40490171,0.91436022,0,0)"
     id="text2393"
     xml:space="preserve"
     style="font-size:32.2348175px;font-style:italic;font-variant:normal;font-weight:normal;font-stretch:normal;text-align:start;line-height:125%;writing-mode:lr-tb;text-anchor:start;fill:#000080;fill-opacity:1;stroke:none;font-family:Arial"><tspan
       x="-31.228951"
       y="339.41406"
       id="tspan2395">Naples</tspan></text>
  <text
     x="182.38965"
     y="577.78131"
     transform="matrix(0.91436022,-0.40490171,0.40490171,0.91436022,0,0)"
     id="text2397"
     xml:space="preserve"
     style="font-size:32.2348175px;font-style:italic;font-variant:normal;font-weight:normal;font-stretch:normal;text-align:start;line-height:125%;writing-mode:lr-tb;text-anchor:start;fill:#000080;fill-opacity:1;stroke:none;font-family:Arial"><tspan
       x="182.38965"
       y="577.78131"
       id="tspan2399">Gulf of Salerno</tspan></text>
  <text
     x="394.69272"
     y="470.771"
     transform="matrix(0.91339269,-0.40707959,0.40707959,0.91339269,0,0)"
     id="text2244"
     xml:space="preserve"
     style="font-size:27.32655334px;font-style:normal;font-variant:normal;font-weight:normal;font-stretch:normal;text-align:start;line-height:125%;writing-mode:lr-tb;text-anchor:start;fill:#000000;fill-opacity:1;stroke:none;font-family:Arial"><tspan
       x="394.69272"
       y="470.771"
       dx="0 0 0 0 0 1.7121056"
       id="tspan2246">Salernum</tspan></text>
  <path
     d="m 610.61643,275.55266 a 7.0756252,6.2894448 0 1 1 0.20016,-0.0542"
     id="path2249"
     style="fill:#d40000;fill-opacity:1;fill-rule:evenodd;stroke:none" />
</svg>
