<svg
  width="240"
  height="46"
  viewBox="0 0 240 46"
  fill="white"
  xmlns="http://www.w3.org/2000/svg"
>
  <path
    fillRule="evenodd"
    clipRule="evenodd"
    d="M19.0792 0.656171C17.8141 0.814138 16.1053 1.24426 15.5428 1.54643C15.3465 1.65187 14.99 1.73818 14.7507 1.73818C14.5115 1.73818 14.2161 1.8588 14.0941 2.00622C13.9722 2.15364 13.6868 2.27426 13.4598 2.27426C13.2326 2.27426 13.0017 2.34771 12.9463 2.43741C12.8911 2.5273 12.4713 2.78283 12.0134 3.00531C9.28263 4.33195 5.6914 7.49648 3.80793 10.2354C3.47446 10.7205 2.16356 13.0602 1.96113 13.5321C1.85555 13.7778 1.6581 14.1922 1.52226 14.4531C1.38642 14.714 1.27532 15.053 1.27532 15.2065C1.27532 15.36 1.1644 15.7497 1.02873 16.0725C-0.340564 19.3317 -0.343591 27.4218 1.02375 29.9997C1.16209 30.2606 1.27532 30.6085 1.27532 30.7727C1.27532 31.0958 3.30995 35.1971 3.65 35.5593C3.76377 35.6806 4.07445 36.1014 4.34044 36.4946C5.66309 38.4493 10.2741 42.448 11.7467 42.9171C11.9607 42.9853 12.1357 43.116 12.1357 43.2076C12.1357 43.2993 12.3262 43.3744 12.5591 43.3744C12.7918 43.3744 13.082 43.495 13.2039 43.6424C13.3259 43.7898 13.5333 43.9105 13.6649 43.9105C13.7965 43.9105 14.1671 44.0232 14.4887 44.161C15.1293 44.4355 16.3999 44.8091 18.1892 45.2494C19.8859 45.667 25.5481 45.5394 27.5361 45.0387C29.2111 44.6168 31.5436 43.8016 31.7937 43.5506C31.8902 43.4537 32.1037 43.3744 32.268 43.3744C32.4322 43.3744 32.6663 43.2537 32.7882 43.1063C32.9102 42.9589 33.1237 42.8383 33.2627 42.8383C33.4018 42.8383 33.6122 42.7579 33.7304 42.6596C33.8486 42.5615 34.4011 42.1794 34.958 41.8108C37.3582 40.2222 41.1561 36.3605 41.1561 35.5091C41.1561 35.4122 41.2284 35.333 41.3167 35.333C41.405 35.333 41.5665 35.1118 41.6752 34.8416C41.784 34.5713 42.1775 33.7873 42.5496 33.0993C42.9217 32.4114 43.3714 31.4062 43.5489 30.8656C43.7263 30.3251 43.9572 29.6818 44.0619 29.4361C44.8007 27.7016 45.233 21.3656 44.7263 19.6971C44.6368 19.4023 44.5093 18.7316 44.4432 18.2066C44.377 17.6818 44.2118 17.0385 44.0759 16.7771C43.9401 16.5158 43.8285 16.1709 43.8277 16.011C43.8263 15.6481 43.1179 13.8582 42.5635 12.8173C41.8414 11.4612 41.5809 11.0325 41.1358 10.4686C40.8532 10.1104 40.622 9.72339 40.622 9.60849C40.622 9.42229 36.5983 5.31388 35.9753 4.86393C35.0803 4.21776 34.3395 3.77692 32.9285 3.05123C32.4672 2.81393 32.0419 2.54195 31.9833 2.44706C31.9249 2.352 31.728 2.27426 31.5459 2.27426C31.3638 2.27426 30.9879 2.16258 30.7107 2.02606C28.2639 0.821107 22.8583 0.184592 19.0792 0.656171ZM25.3106 2.11415C25.4621 2.19885 24.273 2.26569 22.5599 2.2689C20.6559 2.2723 19.6046 2.21172 19.7113 2.10468C20.0472 1.76784 24.7051 1.7757 25.3106 2.11415ZM18.8122 2.63166C18.8805 2.74263 18.5469 2.81035 17.9325 2.81035C17.3882 2.81035 16.9428 2.72994 16.9428 2.63166C16.9428 2.53337 17.3385 2.45296 17.8225 2.45296C18.3064 2.45296 18.7516 2.53337 18.8122 2.63166ZM27.947 2.64506C27.9119 2.75067 27.8252 2.83108 27.7542 2.82375C27.6832 2.81643 27.2197 2.81035 26.7244 2.81035C26.1693 2.81035 25.8659 2.74173 25.9337 2.63166C26.0861 2.38416 28.0294 2.39703 27.947 2.64506ZM16.5867 3.14755C16.5867 3.32196 15.6972 3.49565 15.3678 3.3854C15.2535 3.34716 15.2055 3.24244 15.2608 3.15256C15.3901 2.94241 16.5867 2.93794 16.5867 3.14755ZM29.6726 3.16774C29.739 3.27568 29.4963 3.34644 29.0599 3.34644C28.6625 3.34644 28.3373 3.26603 28.3373 3.16774C28.3373 3.06946 28.6129 2.98905 28.9499 2.98905C29.2869 2.98905 29.612 3.06946 29.6726 3.16774ZM25.8057 3.49261C26.6167 3.58982 27.3846 3.75637 27.5122 3.86269C27.6397 3.96884 28.052 4.09536 28.4282 4.14378C28.8044 4.19203 29.16 4.30908 29.2182 4.40361C29.2764 4.49814 29.5316 4.61322 29.7851 4.65932C30.2444 4.74295 30.8496 5.04066 32.5657 6.02724C32.7371 6.12588 33.0574 6.28474 33.2779 6.38034C33.4983 6.47595 33.6784 6.63659 33.6784 6.7372C33.6784 6.83798 33.7829 6.92036 33.9106 6.92036C34.2784 6.92036 37.1479 9.69516 38.0359 10.9096C38.4796 11.5166 38.9208 12.1084 39.0164 12.2248C39.3695 12.6554 40.4439 14.7769 40.4439 15.0433C40.4439 15.1951 40.5146 15.3191 40.6008 15.3191C40.6871 15.3191 40.8474 15.6761 40.9569 16.1127C41.0664 16.549 41.236 16.9559 41.3339 17.0167C41.432 17.0774 41.5122 17.3937 41.5122 17.7195C41.5122 18.0454 41.6323 18.6539 41.7792 19.0717C42.4068 20.857 42.0473 27.2899 41.2268 28.9591C41.09 29.2374 40.978 29.5835 40.978 29.7284C40.978 29.9852 40.4354 31.3431 40.072 31.9955C39.9721 32.1748 39.7264 32.6372 39.5261 33.023C39.3257 33.409 39.0898 33.7248 39.0016 33.7248C38.9137 33.7248 38.8416 33.8095 38.8416 33.9129C38.8416 34.7642 33.6889 39.8004 32.818 39.8004C32.7135 39.8004 32.5639 39.901 32.4856 40.024C32.4072 40.1469 31.9426 40.4339 31.453 40.6618C30.9633 40.8894 30.3502 41.1909 30.0902 41.3317C29.8303 41.4723 29.499 41.5874 29.3539 41.5874C29.2088 41.5874 28.8607 41.7075 28.5801 41.8544C28.2997 42.0011 27.8459 42.1217 27.5717 42.1224C27.2977 42.123 26.8284 42.2507 26.5289 42.406C25.7272 42.8222 19.0858 42.8222 18.4532 42.406C18.2168 42.2507 17.7156 42.1235 17.3391 42.1235C16.9627 42.1235 16.4993 42.0054 16.3091 41.8612C16.1192 41.7168 15.859 41.5962 15.7312 41.5931C15.4839 41.587 14.1217 41.0193 13.382 40.614C13.1372 40.4798 12.6611 40.2218 12.3242 40.0406C11.5453 39.6217 11.5541 39.6278 10.1773 38.5263C5.40814 34.7108 2.69963 29.0365 2.69963 22.8608C2.69963 21.8608 2.77619 20.6996 2.86984 20.2804C3.03506 19.5406 3.2779 18.432 3.57434 17.0646C3.65374 16.6979 3.8008 16.2958 3.90086 16.1711C4.00092 16.0465 4.13854 15.6833 4.20656 15.3638C4.27457 15.0444 4.404 14.783 4.49409 14.783C4.58435 14.783 4.65806 14.7078 4.65806 14.6159C4.65806 14.3682 4.97266 13.6928 5.37093 13.0854C5.56428 12.7905 5.77633 12.4287 5.8422 12.2812C6.63786 10.5025 10.8166 6.57852 12.7143 5.82817C12.9837 5.72167 13.2039 5.56191 13.2039 5.47328C13.2039 5.38465 13.2885 5.3121 13.3918 5.3121C13.495 5.3121 13.9558 5.1468 14.4155 4.94488C15.7357 4.36501 15.8913 4.30711 17.2098 3.90254C17.8953 3.69222 18.9186 3.51066 19.4839 3.49905C20.0492 3.48743 20.5577 3.40309 20.6139 3.31177C20.7295 3.12414 23.5546 3.2226 25.8057 3.49261ZM14.8063 3.68471C14.8063 3.89307 14.2862 4.09107 14.0781 3.96187C13.7642 3.76727 13.9213 3.52514 14.3612 3.52514C14.606 3.52514 14.8063 3.59697 14.8063 3.68471ZM31.0079 3.69329C31.0079 3.95776 30.7476 4.05283 30.3267 3.94239C29.7598 3.79372 29.8545 3.52514 30.4737 3.52514C30.7675 3.52514 31.0079 3.60073 31.0079 3.69329ZM13.7381 4.24439C13.7381 4.34517 13.4977 4.4758 13.2039 4.53477C12.9102 4.59374 12.6698 4.70453 12.6698 4.78083C12.6698 4.85732 12.4496 5.01046 12.1802 5.12143C11.5435 5.38375 10.87 5.77653 10.7319 5.96613C10.5828 6.17037 9.97841 6.55028 9.59865 6.67841C9.42737 6.73613 9.28708 6.89463 9.28708 7.03062C9.28708 7.16643 9.20981 7.27775 9.11545 7.27775C8.69706 7.27775 5.19218 11.2616 5.19218 11.7371C5.19218 11.8459 5.072 11.9814 4.92512 12.0379C4.77824 12.0945 4.65806 12.2666 4.65806 12.4203C4.65806 12.5741 4.54839 12.8268 4.41415 12.9819C4.28009 13.1372 4.08923 13.5053 3.98988 13.8002C3.8316 14.2701 3.79226 14.2946 3.67119 13.9992C3.59072 13.8027 3.62027 13.5421 3.74205 13.3738C3.85706 13.2151 4.03777 12.8643 4.14389 12.594C4.25 12.3236 4.40916 12.1025 4.49747 12.1025C4.58578 12.1025 4.65806 12.0189 4.65806 11.9167C4.65806 11.7073 5.25681 10.8247 5.85983 10.1451C6.08006 9.8969 6.26041 9.63601 6.26041 9.5656C6.26041 9.39477 8.10348 7.58422 9.10904 6.76722C9.54969 6.40911 9.97431 6.0158 10.0526 5.89286C10.131 5.7701 10.3137 5.66949 10.4588 5.66949C10.6039 5.66949 10.7687 5.54887 10.825 5.40145C10.8814 5.25402 11.0694 5.1334 11.2428 5.1334C11.4161 5.1334 11.6577 5.01278 11.7796 4.86536C11.9016 4.71793 12.1432 4.59731 12.3164 4.59731C12.4898 4.59731 12.6778 4.47669 12.7343 4.32927C12.8482 4.03103 13.7381 3.95562 13.7381 4.24439ZM31.9944 4.25189C32.059 4.35661 32.0697 4.48456 32.0182 4.5362C31.8785 4.67648 31.1859 4.42005 31.1859 4.22795C31.1859 3.99779 31.8502 4.01744 31.9944 4.25189ZM33.1443 4.86536C33.2663 5.01278 33.4789 5.1334 33.6168 5.1334C33.7548 5.1334 33.9138 5.25402 33.9701 5.40145C34.0265 5.54887 34.1527 5.66949 34.2505 5.66949C34.5587 5.66949 35.8502 6.77383 37.384 8.34886C39.2539 10.2691 39.3757 10.4051 39.3757 10.5729C39.3757 10.6489 39.616 11.0155 39.9098 11.3878C40.2036 11.76 40.4439 12.1851 40.4439 12.3325C40.4439 12.4798 40.5641 12.6467 40.711 12.7033C40.8579 12.7598 40.978 12.9655 40.978 13.1603C40.978 13.355 41.1048 13.5855 41.2597 13.6726C41.442 13.775 41.5205 14.0146 41.4823 14.3516C41.4278 14.832 41.3783 14.7825 40.8442 13.7108C40.2096 12.4381 39.9362 11.9759 39.5982 11.606C39.4759 11.4719 39.3757 11.2959 39.3757 11.2146C39.3757 10.8192 35.1617 6.48309 34.4919 6.18932C33.9357 5.9454 33.4269 5.60409 33.2802 5.37679C33.2079 5.26492 32.9476 5.1225 32.7015 5.06067C32.4555 4.99866 32.2541 4.86893 32.2541 4.77261C32.2541 4.49957 32.8972 4.56658 33.1443 4.86536ZM48.4982 8.13889C48.392 8.41712 48.7464 8.70053 49.2061 8.70464C50.2847 8.71429 50.2128 18.7704 49.1329 18.9239C48.9074 18.9561 48.7227 19.103 48.7227 19.2504C48.7227 19.6569 53.9436 19.7304 54.9541 19.338C57.6194 18.3031 57.9697 14.5963 55.5165 13.3883C54.9329 13.1009 54.9304 12.9894 55.4882 12.1025C56.4708 10.5404 55.9627 8.87083 54.331 8.299C53.217 7.90855 48.6344 7.78275 48.4982 8.13889ZM58.6027 7.9627C58.266 8.07617 58.428 8.4693 58.9155 8.72144C59.6725 9.11314 59.6665 9.07383 59.6695 13.6545C59.6723 18.2257 59.5871 18.8297 58.9251 18.9239C57.5314 19.1223 58.6112 19.5204 60.6514 19.5604C63.4161 19.6146 64.9286 19.0819 62.6431 18.8587C61.4671 18.7438 61.3801 8.70732 62.555 8.70732C62.8701 8.70732 63.1968 8.25397 63.0139 8.07045C62.9158 7.97217 58.8683 7.87317 58.6027 7.9627ZM64.708 8.11745C64.5862 8.43624 64.8102 8.70732 65.1956 8.70732C65.8663 8.70732 65.9372 9.25789 65.8777 14.0082C65.8159 18.9643 65.8348 18.829 65.1914 18.9196C64.9421 18.9548 64.7463 19.1003 64.7463 19.2504C64.7463 19.6673 70.3141 19.7273 71.1202 19.3192C73.6997 18.0135 73.9495 14.551 71.5481 13.3883C70.9481 13.0979 70.942 12.8147 71.521 12.1242C72.7071 10.7094 71.957 8.60225 70.1241 8.19965C68.7778 7.90373 64.8127 7.84369 64.708 8.11745ZM74.3878 8.03846C74.1615 8.18767 74.9602 8.92158 75.1922 8.77773C75.5997 8.52487 75.6991 9.66907 75.6542 14.105L75.6067 18.8003L75.0725 18.893C74.7594 18.9475 74.5384 19.096 74.5384 19.2522C74.5384 19.6966 81.8945 19.7429 82.0362 19.2994C82.0919 19.1249 82.2164 18.8153 82.3129 18.6112C82.5361 18.1391 82.4378 17.0658 82.163 16.9754C82.0478 16.9375 81.8179 17.1934 81.6522 17.5442C81.2975 18.2942 81.003 18.3932 79.3417 18.3214L78.0992 18.2676L78.0102 13.8895C77.9156 9.24252 77.9829 8.70732 78.662 8.70732C79.0551 8.70732 79.1062 8.64817 79.1496 8.14318C79.1701 7.90605 74.7369 7.80866 74.3878 8.03846ZM83.0693 7.97771C82.8609 8.18714 83.0455 8.50254 83.434 8.60046C84.1565 8.78238 84.3249 9.76377 84.2807 13.5321C84.2175 18.9021 84.2421 18.7041 83.6184 18.8662C82.195 19.2363 83.0425 19.5184 85.5769 19.5184C88.1125 19.5184 89.1529 19.1652 87.4402 18.8857C86.3613 18.7097 86.4017 18.8991 86.3839 13.9478C86.3665 9.09295 86.4692 8.52863 87.3692 8.52863C87.6555 8.52863 87.855 7.99576 87.5743 7.98146C86.417 7.92249 83.127 7.91981 83.0693 7.97771ZM92.1456 8.43124C88.5581 10.18 87.5762 15.8001 90.4581 18.0882C90.7053 18.2844 91.0279 18.5858 91.1749 18.7583C91.322 18.9307 91.5474 19.0717 91.6759 19.0717C91.8047 19.0717 92.1237 19.2125 92.3852 19.3844C93.0152 19.7986 97.0205 19.8331 97.5062 19.4286C97.8455 19.1459 98.3925 18.8138 98.9298 18.5644C100.738 17.7245 101.813 13.214 100.72 11.0499C99.213 8.06509 95.3298 6.87908 92.1456 8.43124ZM101.595 8.08189C100.951 10.4373 101.212 10.8147 102.555 9.47125C102.725 9.30113 103.177 9.24413 104.069 9.28058L105.339 9.33276L105.387 13.942L105.434 18.5513L104.796 18.819C103.623 19.3111 104.125 19.5152 106.624 19.5613C109.317 19.6108 110.632 19.0781 108.366 18.856C107.696 18.7902 107.616 18.1805 107.586 12.862L107.565 9.24341H108.656C109.805 9.24341 110.947 9.73518 110.947 10.2303C110.947 10.5915 111.32 10.7554 111.499 10.4725C111.692 10.1662 111.704 8.51737 111.514 8.21859C111.336 7.93571 101.671 7.80258 101.595 8.08189ZM112.232 8.2588C112.26 8.45429 112.435 8.64353 112.621 8.67909C113.579 8.86243 113.618 9.04953 113.606 13.3665C113.59 18.4566 113.567 18.635 112.876 18.8766C111.576 19.3315 112.414 19.5174 115.994 19.5678L119.498 19.6173L119.701 19.121C120.223 17.8453 119.745 16.1936 119.197 17.3798C118.763 18.3206 118.705 18.351 117.323 18.3542C115.878 18.3574 115.973 18.5088 115.914 16.1198L115.865 14.1576H117.012C118.049 14.1576 118.163 14.1942 118.212 14.5414C118.268 14.9347 118.775 15.1861 119.103 14.983C119.338 14.837 119.353 12.6835 119.12 12.5387C119.023 12.4785 118.834 12.5202 118.701 12.6315C118.555 12.753 117.944 12.8125 117.168 12.7809L115.879 12.728L115.846 10.9857L115.813 9.24341H116.928C118.132 9.24341 118.516 9.45767 118.711 10.2387C118.97 11.2734 119.432 10.4693 119.416 9.01343L119.404 7.97931L115.792 7.94125C112.278 7.90426 112.182 7.91266 112.232 8.2588ZM124.834 8.13424C120.178 9.93443 119.491 15.887 123.603 18.8037C124.579 19.4957 126.606 19.8494 128.751 19.7018C129.682 19.6378 131.444 19.5894 132.668 19.594C133.892 19.5988 135.004 19.5324 135.139 19.4464C135.482 19.2286 135.225 18.893 134.716 18.893C133.976 18.893 134.055 18.2515 135.045 16.2126C135.336 15.6136 138.294 15.4147 138.471 15.9822C138.526 16.1581 138.685 16.5153 138.824 16.7762C138.964 17.0371 139.078 17.403 139.078 17.5892C139.078 17.7756 139.152 18.0043 139.243 18.0978C139.334 18.1913 139.434 18.549 139.466 18.893L139.523 19.5184L141.526 19.569C143.437 19.6173 143.529 19.603 143.529 19.2563C143.529 18.9716 143.413 18.893 142.993 18.893C142.336 18.893 141.852 18.3728 141.299 17.0721C140.037 14.1066 139.253 12.1719 139.254 12.025C139.255 11.9331 139.088 11.4909 138.882 11.0422C138.51 10.2289 138.303 9.75484 137.765 8.48395C137.271 7.31814 135.695 9.08187 135.695 10.8004C135.695 10.9028 135.575 11.0867 135.428 11.2091C135.281 11.3315 135.161 11.6161 135.161 11.8418C135.161 12.0675 135.05 12.48 134.915 12.7582C134.781 13.0364 134.552 13.5455 134.407 13.8895C134.263 14.2335 134.012 14.8193 133.851 15.1911C133.69 15.563 133.558 16.0155 133.558 16.1967C133.558 16.3779 133.446 16.6198 133.309 16.7342C133.172 16.8484 133.006 17.155 132.941 17.4152C132.489 19.2241 131.239 19.4625 131.379 17.7134C131.473 16.539 130.931 15.9515 130.739 17.0187C130.556 18.0337 128.938 18.7079 127.245 18.4749C122.291 17.7935 121.893 9.31507 126.805 9.09134C128.923 8.99467 131.096 9.90048 130.616 10.6803C130.454 10.9435 130.748 11.3878 131.085 11.3878C131.27 11.3878 131.425 11.3274 131.428 11.2537C131.432 11.1801 131.452 10.5241 131.473 9.7963L131.511 8.4727L130.888 8.2009C129.915 7.77632 125.875 7.73182 124.834 8.13424ZM148.221 7.95054C148.079 8.04239 148.005 9.53022 147.973 12.9067C147.918 18.8821 147.917 18.893 147.258 18.893C146.686 18.893 146.388 19.2152 146.753 19.4411C147.21 19.7245 150.917 19.5547 150.917 19.2504C150.917 19.0896 150.718 18.9593 150.418 18.925C149.721 18.8446 149.65 18.5395 149.507 14.994C149.369 11.5897 149.438 11.4303 150.466 12.7716C151.357 13.9331 157.344 19.7922 157.591 19.7448C157.923 19.6814 158.076 17.6437 158.107 12.8502C158.129 9.38851 158.212 8.98091 158.953 8.69821C160.134 8.24736 159.385 7.90283 157.236 7.90944C154.985 7.91624 154.345 8.25058 155.716 8.70446C156.642 9.01111 156.703 9.26253 156.703 12.7162C156.703 15.258 156.243 17.8223 156.164 15.7211C156.158 15.5471 155.058 14.3475 152.273 11.4771C151.033 10.1994 149.763 8.8526 149.45 8.48395C148.884 7.81795 148.611 7.6993 148.221 7.95054ZM164.113 8.5733C163.941 8.99091 163.679 9.65441 163.531 10.0475C163.383 10.4407 163.149 10.99 163.01 11.2682C162.871 11.5464 162.757 11.896 162.757 12.0448C162.757 12.1937 162.644 12.5289 162.505 12.7898C162.367 13.0507 161.999 13.9074 161.687 14.6936C161.376 15.4799 161.008 16.3509 160.871 16.6291C160.733 16.9073 160.62 17.2304 160.62 17.3471C160.62 17.8414 159.723 18.8701 159.244 18.9257C157.534 19.1235 158.685 19.6181 160.74 19.5688C162.774 19.5202 163.82 19.1133 162.401 18.9225C161.736 18.8331 161.618 18.6242 161.907 18.0442C162.049 17.7574 162.277 17.1443 162.413 16.682C162.703 15.6972 162.844 15.6372 164.697 15.7124L166.01 15.7658L166.342 16.8196C166.524 17.3993 166.759 17.9774 166.865 18.1044C166.97 18.2313 167.03 18.6014 166.998 18.9268L166.941 19.5184L172.816 19.5683C179.314 19.6235 179.497 19.6085 179.468 19.0242C179.457 18.8045 179.501 18.3033 179.565 17.9102C179.63 17.517 179.608 17.0832 179.517 16.9459C179.288 16.603 178.78 16.8344 178.78 17.2817C178.78 18.041 177.832 18.3555 175.542 18.3562C173.482 18.3569 172.912 18.1995 173.612 17.8235C173.811 17.7168 173.973 17.5501 173.973 17.4529C173.973 17.3559 174.394 16.6716 174.908 15.9325C175.954 14.4286 176.056 14.2694 177.163 12.4281C177.596 11.7085 178.003 11.0795 178.069 11.0304C178.134 10.9812 178.409 10.559 178.679 10.0922C178.949 9.62546 179.243 9.24341 179.331 9.24341C179.546 9.24341 179.539 8.22127 179.324 8.08761C179.094 7.94501 171.358 7.93696 171.129 8.07903C171.029 8.14139 170.947 8.43678 170.947 8.73556C170.947 9.03434 170.815 9.55702 170.654 9.8969C170.439 10.3515 170.415 10.5679 170.56 10.7143C170.856 11.0111 171.659 10.5938 171.659 10.1431C171.659 9.57489 172.661 9.26879 174.638 9.23305C176.781 9.19427 176.773 9.04345 174.8 12.0736C173.954 13.3736 173.256 14.4949 173.249 14.5653C173.243 14.6359 172.884 15.1761 172.453 15.7658C172.022 16.3555 171.492 17.1806 171.275 17.5992C170.307 19.4714 169.849 19.3022 168.727 16.6593C168.56 16.2662 168.27 15.6472 168.083 15.2837C167.895 14.9202 167.742 14.4969 167.742 14.343C167.742 14.1892 167.668 13.9236 167.578 13.753C167.082 12.8136 166.68 11.901 166.711 11.7864C166.731 11.7146 166.61 11.3985 166.443 11.084C166.276 10.7693 166.14 10.4153 166.14 10.2972C166.14 8.69499 164.604 7.38819 164.113 8.5733ZM180.867 8.02363C180.612 8.18178 181.024 8.6891 181.58 8.90139L181.991 9.0581L181.943 13.9292L181.896 18.8003L181.362 18.893C179.759 19.1716 180.846 19.5184 183.32 19.5184C185.884 19.5184 186.99 19.13 185.101 18.893L184.389 18.8037L184.337 14.3362C184.276 9.0942 184.317 8.70732 184.931 8.70732C185.265 8.70732 185.368 8.61297 185.368 8.30526C185.368 7.89926 181.462 7.6548 180.867 8.02363ZM190.644 8.08296C190.364 8.22985 190.058 8.34993 189.964 8.34993C189.213 8.34993 187.161 10.5674 186.9 11.6615C186.471 13.4589 186.397 14.159 186.58 14.6829C186.685 14.9837 186.824 15.5314 186.89 15.8998C186.956 16.2685 187.076 16.57 187.156 16.57C187.236 16.57 187.359 16.751 187.428 16.972C187.579 17.4577 188.313 18.3644 188.762 18.6189C188.94 18.7206 189.432 19.0008 189.853 19.2416C192.933 21.0009 198.721 18.4112 198.721 15.2742C198.721 15.0169 198.808 14.5798 198.915 14.3032C199.121 13.7717 198.86 11.5729 198.527 11.0304C198.436 10.8829 198.308 10.6417 198.241 10.4943C198.007 9.97553 196.408 8.53577 195.932 8.41587C195.667 8.34922 195.245 8.18696 194.994 8.05544C194.343 7.71431 191.312 7.73361 190.644 8.08296ZM201.193 7.94786C201.122 8.40711 201.023 11.1151 200.953 14.5017C200.86 18.9681 200.874 18.893 200.151 18.893C199.73 18.893 199.611 18.9716 199.611 19.2504C199.611 19.7243 203.675 19.8079 204.06 19.3419C204.312 19.0372 204.159 18.9441 203.262 18.856C202.605 18.7915 202.509 18.2881 202.426 14.4701C202.366 11.7282 202.446 11.513 203.162 12.4842C203.737 13.2657 209.766 19.42 210.166 19.6351C210.807 19.9793 210.938 19.5747 210.971 17.1561C211.06 10.6346 211.247 8.70732 211.791 8.70732C212.163 8.70732 212.544 8.17391 212.286 8.01398C211.83 7.73075 208.073 7.90123 208.014 8.20805C207.977 8.40318 208.175 8.56508 208.637 8.71608C209.587 9.02719 209.575 8.97751 209.578 12.594C209.581 15.6786 209.483 16.2855 209.093 15.5875C209.011 15.4402 207.866 14.2135 206.547 12.8611C205.229 11.5087 203.603 9.81988 202.932 9.10814C201.842 7.95001 201.253 7.55688 201.193 7.94786ZM217.231 8.12656C217.228 8.29847 217.108 8.59546 216.964 8.78613C216.82 8.97698 216.703 9.2813 216.703 9.46249C216.703 9.64387 216.593 9.97017 216.458 10.1878C216.324 10.4055 216.067 11.0259 215.888 11.5665C215.708 12.107 215.458 12.6762 215.331 12.8315C215.204 12.9866 215.1 13.2823 215.1 13.4887C215.1 13.6951 214.99 13.9747 214.855 14.1102C214.72 14.2457 214.55 14.6307 214.476 14.966C214.403 15.3012 214.276 15.6986 214.194 15.8493C214.112 15.9999 213.879 16.5253 213.676 17.0167C213.038 18.5617 212.855 18.7992 212.254 18.8605C210.644 19.0245 211.78 19.5184 213.768 19.5184C215.656 19.5184 216.687 19.1117 215.278 18.9225C214.629 18.8353 214.499 18.6275 214.799 18.1527C214.946 17.9211 215.12 17.47 215.186 17.1507C215.252 16.8314 215.375 16.57 215.458 16.57C215.541 16.57 215.635 16.3889 215.666 16.1679C215.72 15.7905 215.819 15.7626 217.283 15.7142L218.843 15.6625L219.041 16.1609C219.15 16.435 219.399 17.0614 219.594 17.5528C219.789 18.0442 219.959 18.6875 219.973 18.9823L219.996 19.5184H225.596H231.195L231.455 18.516C231.804 17.1723 231.644 16.7106 231.03 17.2892C230.788 17.5176 230.59 17.8024 230.59 17.9221C230.59 18.3578 227.552 18.5946 227.296 18.1789C227.117 17.8868 227.179 9.26146 227.364 8.93069C227.457 8.76361 227.72 8.62494 227.949 8.62244C228.24 8.61923 228.364 8.51415 228.364 8.27059C228.364 7.77096 223.596 7.72717 223.5 8.22592C223.467 8.39711 223.553 8.52863 223.698 8.52863C223.839 8.52863 224.169 8.69821 224.432 8.9055L224.909 9.28255L224.856 13.9158C224.798 19.0358 224.835 18.8851 223.633 18.8903C222.817 18.8937 222.391 18.4425 221.778 16.9273C221.519 16.2885 221.193 15.5382 221.053 15.2599C220.912 14.9817 220.798 14.6758 220.798 14.58C220.798 14.399 220.2 12.9576 219.901 12.4178C219.807 12.2471 219.729 12.018 219.729 11.9087C219.729 11.7993 219.616 11.4564 219.477 11.1467C218.831 9.70731 218.483 8.8224 218.483 8.62298C218.483 8.01648 217.242 7.52453 217.231 8.12656ZM232.071 8.04508C231.94 8.25701 232.372 8.70732 232.705 8.70732C233.725 8.70732 233.747 18.6532 232.727 18.8934C230.949 19.312 232.219 19.5869 235.775 19.5529L239.38 19.5184L239.531 18.893C239.614 18.549 239.774 18.0849 239.886 17.8619C240.041 17.5531 240.038 17.4046 239.875 17.2404C239.594 16.9583 239.128 17.2397 238.814 17.8819C238.568 18.3864 238.425 18.4211 236.83 18.3667C235.521 18.3222 235.575 18.4178 235.575 16.1232C235.575 13.7927 235.487 13.9208 236.999 14.055C238.107 14.1531 238.159 14.1792 238.214 14.6595C238.314 15.5351 238.843 15.1935 238.995 14.1554C239.209 12.6846 239.198 12.6758 237.262 12.7775L235.575 12.8661V11.0652C235.575 9.00503 235.494 9.11404 236.958 9.20571C237.98 9.26968 238.097 9.31971 238.343 9.79558C238.807 10.6969 239.247 10.4796 239.369 9.28862C239.428 8.72376 239.413 8.19911 239.336 8.12263C239.152 7.93768 232.182 7.86316 232.071 8.04508ZM95.5648 9.06221C96.3936 9.06775 98.3066 10.8687 98.3066 11.6433C98.3066 11.7752 98.4263 12.1133 98.5726 12.3949C99.7919 14.7414 97.7793 18.6939 95.3562 18.7116C91.2385 18.7416 89.4268 10.0039 93.376 9.16193C93.5909 9.11618 93.9269 9.04291 94.1227 8.99931C94.3186 8.95553 94.639 8.95142 94.8349 8.98984C95.0307 9.02826 95.3592 9.06096 95.5648 9.06221ZM194.092 9.34241C194.593 9.59902 195.48 10.5182 195.929 11.247C196.637 12.3953 196.639 16.1019 195.932 16.9415C195.801 17.0966 195.694 17.3119 195.694 17.4198C195.694 18.8272 192.201 19.0022 190.687 17.6705C186.826 14.2735 189.751 7.11925 194.092 9.34241ZM53.1668 9.17604C54.6507 9.74769 54.251 12.9338 52.714 12.7861L52.1108 12.728L52.085 11.0304C52.0535 8.95446 52.1521 8.78541 53.1668 9.17604ZM69.6238 9.69641C70.7451 10.978 70.1626 12.8173 68.6354 12.8173H68.04V10.941V9.06472H68.5556C68.9231 9.06472 69.2302 9.24627 69.6238 9.69641ZM28.3362 10.6501C26.3183 11.3163 25.3382 13.553 25.8661 16.2864C25.9437 16.6881 26.0107 17.2981 26.0147 17.6421L26.0224 18.2676L25.622 17.7815C24.4186 16.3208 24.1188 15.8948 23.5897 14.8956C23.2706 14.2932 23.0062 13.6795 23.002 13.5321C22.9519 11.785 21.7498 12.2139 21.7498 13.9789C21.7498 15.675 21.5312 16.0555 21.2349 14.8747C21.038 14.0904 20.1147 12.8173 19.7424 12.8173C19.6379 12.8173 19.3974 12.6767 19.2081 12.5046C18.6799 12.0248 14.8002 12.0743 13.9161 12.5722C8.92993 15.3797 7.59909 20.3449 10.9144 23.7714C12.0527 24.9479 14.8063 24.5834 14.8063 23.256C14.8063 23.1168 14.8775 23.003 14.9646 23.003C15.0515 23.003 15.1754 22.7216 15.2396 22.3776C15.4818 21.0826 15.8806 21.6673 16.154 23.7178C16.2655 24.5532 16.4151 25.3725 16.4864 25.5385C16.7243 26.0911 14.0347 26.3579 13.4452 25.8402C10.8581 23.5682 6.12635 28.4198 8.1033 31.3172C8.23558 31.5111 8.39706 31.8903 8.4624 32.1598C8.94489 34.1531 12.6639 36.1681 14.5782 35.4733C15.0479 35.3028 15.2512 35.3028 15.5233 35.4733C15.7138 35.5927 16.015 35.6904 16.1925 35.6904C16.3702 35.6904 16.5917 35.7605 16.6846 35.8461C17.0102 36.1458 18.6623 36.2219 19.0153 35.9535C19.4563 35.6182 20.5808 35.6213 20.8596 35.9585C21.1356 36.2921 21.5723 36.2992 22.225 35.9803C22.5022 35.845 23.0223 35.5948 23.3807 35.4247C23.7391 35.2546 24.38 34.7639 24.805 34.3343C25.666 33.4641 25.7662 33.4331 26.4921 33.8131C26.7725 33.9598 27.1775 34.0804 27.3921 34.0811C27.6066 34.0816 27.8238 34.1497 27.8745 34.2323C28.1726 34.7162 30.7668 34.0041 32.524 32.956C38.2281 29.5538 38.9735 22.1999 33.6143 22.1991L32.0359 22.1989L31.3527 22.9712C30.8695 23.5177 30.6352 23.9748 30.5515 24.5348C30.4214 25.4054 30.1187 25.6138 30.1159 24.8346C30.1148 24.5645 29.9186 23.9814 29.6799 23.5391C29.4409 23.0968 29.1596 22.5441 29.0546 22.3109C28.9495 22.0777 28.4923 21.3969 28.0385 20.7979L27.2133 19.7091L27.1414 16.8782C27.0504 13.3057 27.2309 12.607 28.4334 11.8779C30.7499 10.4736 33.5529 13.1177 33.0758 16.2572C33.0124 16.6748 32.9191 17.3766 32.8685 17.8164C32.6839 19.4243 31.762 19.9166 30.7312 18.9579C29.6695 17.9702 29.4349 17.0422 29.9661 15.9325C30.5401 14.7335 29.8251 13.6958 29.231 14.8654C27.7618 17.7577 30.4182 21.9916 33.1112 21.05C34.5973 20.5306 36.0743 18.757 35.7428 17.89C35.6853 17.7395 35.7277 17.4482 35.8372 17.2431C37.2374 14.617 31.5261 9.59687 28.3362 10.6501ZM137.368 13.0082C137.425 13.3691 137.588 13.7612 137.73 13.8793C138.324 14.374 137.456 14.6298 135.825 14.4413C135.63 14.419 135.874 13.4967 136.164 13.1606C136.298 13.0055 136.407 12.6368 136.407 12.3416C136.407 11.2039 137.164 11.7291 137.368 13.0082ZM217.855 12.7664C217.921 13.1181 218.1 13.5975 218.253 13.8318C218.62 14.3936 218.476 14.4998 217.298 14.536C216.194 14.5702 216.161 14.4788 216.732 12.996C217.216 11.7387 217.647 11.6506 217.855 12.7664ZM164.894 12.594C164.895 12.8643 165.015 13.3157 165.161 13.5972C165.612 14.4646 165.529 14.5728 164.446 14.5248C163.204 14.4696 163.172 14.4281 163.627 13.4849C163.834 13.0557 164.003 12.5691 164.003 12.4035C164.003 12.2015 164.15 12.1025 164.448 12.1025C164.815 12.1025 164.893 12.1892 164.894 12.594ZM17.2988 13.1529C17.2988 13.2391 17.1787 13.4097 17.0318 13.5321C16.8849 13.6545 16.7647 13.9279 16.7647 14.1397C16.7647 14.3514 16.6529 14.6851 16.5162 14.8809C16.3796 15.0768 16.2087 15.7982 16.1366 16.4842C15.9272 18.4763 15.542 19.091 15.1506 18.058C14.9831 17.6157 14.9482 17.6019 14.6785 17.8726C14.4272 18.1246 14.4194 18.2338 14.6211 18.663C14.9266 19.3129 15.0493 20.4727 14.8407 20.7386C14.7502 20.8538 14.6345 21.2789 14.5834 21.6833C14.259 24.2508 11.8126 24.0732 11.2227 21.4394C10.3672 17.6212 11.3498 15.0787 14.2722 13.5477C15.2439 13.0386 17.2988 12.7705 17.2988 13.1529ZM53.6568 14.1479C55.07 15.1336 55.4403 17.8996 54.2215 18.3648C52.3124 19.0931 51.6896 17.7125 52.176 13.8307C52.1997 13.6417 53.2551 13.8679 53.6568 14.1479ZM69.3091 13.966C71.5751 14.9295 71.7097 18.2786 69.4912 18.4927C68.1157 18.6253 68.04 18.5024 68.04 16.1371C68.04 13.6761 68.1568 13.4762 69.3091 13.966ZM19.2722 15.0995C19.647 15.5617 20.0143 18.1789 19.8144 18.9629C19.7114 19.3667 19.5747 19.9786 19.5106 20.3226C19.4465 20.6666 19.2713 21.1601 19.1211 21.4196C18.6646 22.2073 18.909 22.4587 20.0191 22.3438C21.7737 22.1621 22.102 22.8883 22.2368 27.247C22.3167 29.8401 22.3021 29.8506 20.8331 28.2745C20.2377 27.6357 19.6573 27.113 19.5436 27.113C19.049 27.113 18.6913 26.345 18.6142 25.1168C18.5713 24.4344 18.4192 23.5387 18.2763 23.1267C18.1331 22.7148 18.0151 22.1662 18.0137 21.908C18.0122 21.6497 17.8908 21.1498 17.7439 20.7968C17.5971 20.4441 17.4769 19.7774 17.4769 19.3154C17.4769 18.8535 17.3893 17.9704 17.2821 17.353C17.0667 16.1111 17.2323 15.2928 17.8887 14.3543L18.251 13.8364L18.6696 14.3543C18.8998 14.6393 19.1709 14.9746 19.2722 15.0995ZM3.58858 14.5596C3.58805 14.7317 3.42835 15.1136 3.23375 15.4084C3.03915 15.7033 2.87945 16.1656 2.87892 16.4359C2.87821 16.7063 2.79755 16.9273 2.69963 16.9273C2.4064 16.9273 2.48777 15.6783 2.78865 15.5625C2.93571 15.5058 3.05571 15.2406 3.05571 14.9724C3.05571 14.7044 3.10912 14.4315 3.17446 14.3661C3.39042 14.1492 3.58983 14.2423 3.58858 14.5596ZM42.0826 15.3705C42.18 15.882 42.0673 16.2467 41.8531 16.1137C41.6441 15.9842 41.6391 14.9617 41.8474 14.9617C41.9339 14.9617 42.0399 15.1456 42.0826 15.3705ZM42.585 16.8503C42.7775 17.3584 42.6338 18.2324 42.3833 18.0771C42.2168 17.9738 42.1552 16.3913 42.3178 16.3913C42.3691 16.3913 42.4894 16.5978 42.585 16.8503ZM23.3522 16.9213C23.3522 17.4306 24.7854 20.6508 25.2134 21.1031C25.7664 21.6876 26.5058 22.7684 26.5133 23.003C26.5179 23.1504 26.5813 23.854 26.6539 24.5666C26.8115 26.1116 26.4422 26.4182 26.0459 25.0714C25.9181 24.6366 25.6601 24.1417 25.473 23.9715C25.2857 23.8016 25.1326 23.5611 25.1326 23.4372C25.1326 23.3136 24.685 22.7737 24.138 22.2377L23.1435 21.263L23.0662 19.3524C23.0237 18.3015 22.981 17.3864 22.9713 17.3185C22.9617 17.2508 22.9633 17.0548 22.9751 16.8827C23.0041 16.4509 23.3522 16.4867 23.3522 16.9213ZM2.39892 18.3122C2.34266 18.73 2.22712 19.0717 2.14201 19.0717C1.96041 19.0717 1.93104 17.5798 2.10908 17.4009C2.36065 17.1484 2.49756 17.579 2.39892 18.3122ZM21.7137 19.8038L21.6608 21.1267L20.9932 21.1456C20.2048 21.168 20.1998 21.1449 20.7549 20.0263C20.9912 19.5504 21.236 18.9282 21.299 18.6437C21.5082 17.6986 21.7687 18.4273 21.7137 19.8038ZM43.1473 19.027C43.2411 19.8454 43.0908 21.2225 42.9194 21.116C42.7059 20.9837 42.7109 18.5356 42.9247 18.5356C43.0161 18.5356 43.1163 18.7567 43.1473 19.027ZM1.80677 23.0477C1.80481 25.2192 1.74623 26.2194 1.6314 26.0408C1.5365 25.8934 1.45763 24.4794 1.45603 22.8988C1.45371 20.3728 1.50908 19.7865 1.75015 19.7865C1.78273 19.7865 1.80819 21.2541 1.80677 23.0477ZM34.3553 23.2528C36.8707 24.5584 35.6103 29.5433 32.2221 31.6901C31.1225 32.3867 31.0609 32.3229 31.1517 30.5849C31.2099 29.4718 31.1464 28.7359 30.9187 27.892C30.6858 27.0287 30.6571 26.6788 30.8067 26.5287C30.9562 26.3786 31.0079 26.4749 31.0079 26.9041C31.0079 27.246 31.1141 27.5226 31.2681 27.5819C31.4113 27.637 31.5778 27.838 31.6379 28.0287C31.7704 28.4475 32.5255 29.188 33.1716 29.5327C33.8652 29.9028 34.0037 29.3951 33.4039 28.6798C31.6513 26.5893 31.8669 23.6622 33.8209 23.0205C33.8501 23.0109 34.0908 23.1154 34.3553 23.2528ZM79.5695 23.387C79.2497 23.5856 79.5792 24.0752 80.0327 24.0752C80.6167 24.0752 80.6455 24.2598 80.7078 28.3982C80.7705 32.5611 80.8358 32.4239 79.5096 30.9137C78.9298 30.2534 77.8202 29.0276 77.0438 28.1897C74.9944 25.9776 73.7173 24.5775 73.1476 23.9181C72.8122 23.5298 72.5182 23.3568 72.2574 23.3942L71.8678 23.4498L71.9141 28.0958C71.9659 33.3038 71.8977 34.2355 71.4548 34.3777C71.2903 34.4306 71.0421 34.5089 70.9034 34.552C70.2459 34.7553 71.1786 35.036 72.638 35.0743C74.6071 35.1256 75.4409 34.6833 73.9422 34.3824C73.2252 34.2385 73.172 33.9651 73.0737 29.9275C72.9916 26.5462 73.1127 25.6527 73.5097 26.711C73.5742 26.883 74.1925 27.623 74.8838 28.3557C75.5751 29.0883 76.904 30.4956 77.8368 31.4829C78.7695 32.4701 79.9271 33.703 80.4091 34.2224C81.853 35.7782 81.8249 35.8634 81.927 29.6148C82.0132 24.3454 82.0276 24.167 82.3721 24.1049C82.889 24.0114 83.1046 23.756 82.8673 23.5178C82.6536 23.3034 79.8814 23.1935 79.5695 23.387ZM110.057 23.3177C108.18 23.3831 105.428 24.9579 105.428 25.9665C105.428 26.0916 105.323 26.3003 105.194 26.4302C104.846 26.7798 104.327 29.0453 104.447 29.6854C104.669 30.8646 104.967 31.8667 105.223 32.2952C105.68 33.0597 107.27 34.6183 107.593 34.6183C107.762 34.6183 107.944 34.6896 107.997 34.7768C108.709 35.9327 113.091 35.0632 114.597 33.4671C115.801 32.191 115.872 32.0881 116.021 31.3867C116.093 31.0509 116.232 30.6766 116.33 30.5547C117.211 29.4557 115.756 25.0914 114.241 24.2941C112.561 23.4095 111.893 23.2535 110.057 23.3177ZM118.177 23.4137C117.816 23.679 118.042 23.9819 118.692 24.1031C119.037 24.1672 119.05 24.3297 119.096 29.1196L119.143 34.07L118.606 34.3488C118.058 34.6331 117.891 34.9703 118.292 34.9824C125.213 35.1933 125.526 35.1134 125.337 33.179C125.264 32.4335 124.887 32.2915 124.723 32.9478C124.5 33.8393 124.017 34.0729 122.545 34.0005C120.818 33.9156 120.932 34.2621 120.908 29.0102C120.887 24.2185 120.897 24.1442 121.628 24.0457C122.92 23.8713 122.193 23.3554 120.709 23.3931C119.893 23.4138 119.062 23.3743 118.861 23.3054C118.649 23.2326 118.362 23.278 118.177 23.4137ZM88.5569 23.568C88.4356 23.6897 88.3365 23.9991 88.3365 24.2555C88.3365 24.5119 88.2188 24.8777 88.0751 25.0686C87.9312 25.2592 87.8107 25.5762 87.807 25.7728C87.8032 25.9694 87.688 26.3459 87.551 26.6096C87.4139 26.8732 87.2479 27.3346 87.1822 27.635C87.1165 27.9354 86.9889 28.227 86.8984 28.2831C86.808 28.3391 86.7341 28.5658 86.7341 28.787C86.7341 29.0081 86.6164 29.3451 86.4727 29.536C86.3289 29.7266 86.2087 30.0483 86.2057 30.2507C86.2025 30.453 86.0823 30.7747 85.9386 30.9655C85.7948 31.1562 85.6746 31.4668 85.6716 31.6557C85.6582 32.4682 84.578 34.2737 84.0409 34.3815C82.6533 34.6601 83.5152 35.104 85.3625 35.0621C86.8995 35.0273 87.4698 34.7542 86.6549 34.4433C86.107 34.2342 86.1056 33.5749 86.6506 32.5261C86.7932 32.2518 86.9104 31.8617 86.9111 31.6592C86.9143 30.5627 90.4868 30.1419 90.6148 31.223C90.6654 31.6505 90.939 32.3336 91.4974 33.4258C91.6393 33.7037 91.718 34.1277 91.6722 34.3683C91.5624 34.9447 91.7486 35.0343 93.039 35.0246C94.7989 35.0116 94.9239 34.9905 94.9239 34.7076C94.9239 34.5496 94.7596 34.4385 94.5233 34.4369C93.8147 34.4321 92.4314 32.3788 92.4314 31.3317C92.4314 31.0994 92.3112 30.8093 92.1643 30.6869C92.0174 30.5645 91.8946 30.3337 91.8912 30.1737C91.8878 30.0136 91.7304 29.5612 91.5412 29.168C91.3519 28.7749 91.1919 28.3326 91.1854 28.1852C91.179 28.0378 91.0562 27.761 90.9123 27.5703C90.7687 27.3795 90.651 27.0539 90.651 26.8466C90.651 26.6393 90.5765 26.3932 90.4854 26.3C90.297 26.1068 89.7957 24.7862 89.6069 23.9858C89.4693 23.4019 88.9345 23.189 88.5569 23.568ZM95.4949 23.6888C95.5258 23.8499 95.7105 24.0096 95.9051 24.0436C96.6609 24.1754 96.7052 24.4606 96.6865 29.0681C96.6671 33.8931 96.6142 34.3223 96.0293 34.4074C95.6711 34.4594 95.4546 34.9492 95.7696 34.9951C96.2729 35.0682 98.9885 35.097 99.2414 35.0319C99.7666 34.8965 99.6097 34.4396 99.0379 34.4396C98.3209 34.4396 98.3232 34.4556 98.3198 29.3208C98.3164 24.2165 98.3074 24.2564 99.4354 24.4283C102.257 24.8581 102.101 28.9504 99.2467 29.3708C98.7697 29.4411 98.5424 29.7856 98.8422 29.9834C101.109 31.4777 104.17 26.4477 102.251 24.3813C101.371 23.4337 95.3272 22.8141 95.4949 23.6888ZM126.901 23.49C126.685 23.7071 126.803 23.8652 127.317 24.0448C128.054 24.3028 128.469 33.9689 127.753 34.208C127.279 34.3661 126.885 34.7921 127.088 34.9276C127.549 35.236 130.79 35.0839 130.854 34.7508C130.898 34.5234 130.796 34.4396 130.478 34.4396C129.697 34.4396 129.665 34.2319 129.647 29.1423L129.631 24.3018L130.087 24.0019C130.338 23.837 130.5 23.6315 130.446 23.5452C130.339 23.3701 127.071 23.3191 126.901 23.49ZM111.581 24.3375C111.771 24.4819 112.05 24.6025 112.202 24.6056C112.51 24.612 113.796 25.9013 113.796 26.2036C113.796 26.3107 113.867 26.3982 113.954 26.3982C114.71 26.3982 114.846 30.5876 114.139 32.0554C113.287 33.8213 110.632 34.9154 109.424 33.9985C109.234 33.8542 108.951 33.7335 108.796 33.7305C108.134 33.7171 106.981 32.1714 106.515 30.6719C106.093 29.3115 106.487 25.8621 107.064 25.8621C107.144 25.8621 107.209 25.739 107.209 25.5886C107.209 25.4379 107.349 25.263 107.52 25.1995C107.691 25.1359 107.885 25.0035 107.951 24.9051C108.382 24.2575 110.947 23.8565 111.581 24.3375ZM24.0941 25.4617C25.4404 30.1153 25.3211 32.4421 23.8049 31.1047C23.3459 30.7 23.2884 30.5458 23.357 29.9043C23.4001 29.4993 23.4282 28.1025 23.4193 26.8003C23.4013 24.1586 23.602 23.7605 24.0941 25.4617ZM43.1697 26.8897C43.117 27.3074 43.0031 27.6491 42.9162 27.6491C42.7278 27.6491 42.7111 26.0635 42.8886 25.058L43.015 24.3432L43.1402 25.2367C43.2089 25.7281 43.2222 26.4719 43.1697 26.8897ZM28.7569 25.6143C29.1135 26.1661 29.4055 26.6965 29.4055 26.793C29.4055 26.8895 29.5182 27.182 29.656 27.4429C30.1107 28.304 30.626 31.5804 30.3066 31.5804C30.2028 31.5804 30.1177 31.4598 30.1177 31.3124C30.1177 31.165 30.0434 31.0443 29.9524 31.0443C29.7148 31.0443 28.682 28.8046 28.3869 27.6491C28.249 27.1086 28.0631 26.3848 27.9739 26.0408C27.5453 24.3886 27.8551 24.2199 28.7569 25.6143ZM48.7187 25.1542C48.5454 25.4352 48.8027 25.6835 49.2674 25.6835H49.702V29.9688V34.2541L49.2569 34.3661C48.662 34.516 48.6898 34.9279 49.3014 35.0251C50.469 35.211 55.4581 35.0639 55.5324 34.8416C55.5733 34.7189 55.7932 34.6183 56.0209 34.6183C56.2689 34.6183 56.7566 34.3043 57.2384 33.8343C60.059 31.0828 59.2951 26.8537 55.7284 25.4765C54.6705 25.068 48.9341 24.8043 48.7187 25.1542ZM60.6672 25.1016C60.4548 25.3148 60.5736 25.518 61.0074 25.6835L61.4525 25.8532V30.0738C61.4525 34.1772 61.4424 34.297 61.0879 34.3901C60.0957 34.6504 60.8296 35.0534 62.318 35.0654C64.2349 35.0809 65.0101 34.6465 63.5 34.4031C63.1573 34.3479 63.142 34.1869 63.0918 30.1024L63.0396 25.8591L63.5068 25.6808C64.4119 25.3355 63.9022 25.0596 62.2995 25.0273C61.4593 25.0103 60.7249 25.0437 60.6672 25.1016ZM54.5941 26.3337C55.1685 26.5133 56.4675 27.5083 56.4675 27.7688C56.4675 27.8995 56.5387 28.0065 56.6257 28.0065C56.8878 28.0065 57.4125 30.2499 57.2911 30.8506C57.2298 31.1537 57.1317 31.6344 57.0731 31.9185C56.7276 33.597 52.3531 35.2028 51.6613 33.9051C51.5142 33.6294 51.3958 28.7663 51.4752 26.263C51.4825 26.0319 53.7962 26.0844 54.5941 26.3337ZM27.0956 26.6786C27.3032 27.2263 27.1305 28.1777 26.8921 27.8001C26.7281 27.5403 26.6747 26.2195 26.8284 26.2195C26.8797 26.2195 27 26.4261 27.0956 26.6786ZM88.94 26.4429C89.1164 27.1186 89.478 28.1664 89.7074 28.6657C90.1665 29.6657 90.0018 29.8698 88.781 29.8131C87.4911 29.7533 87.6004 29.8934 87.9284 28.7211C88.0795 28.1805 88.2914 27.3968 88.3993 26.979C88.5919 26.2331 88.825 26.0021 88.94 26.4429ZM13.3499 26.8427C13.4096 26.9025 13.3651 27.0884 13.2509 27.2556C11.7625 29.4375 11.885 32.6194 13.5068 33.8997C13.779 34.1147 13.9156 34.3618 13.8529 34.5259C13.7416 34.817 12.9328 34.9008 12.771 34.6381C12.7172 34.5507 12.4665 34.4271 12.214 34.3634C9.8431 33.7662 8.71468 29.2819 10.4563 27.3778L11.2355 26.5258L12.2384 26.6298C12.7902 26.687 13.2903 26.7826 13.3499 26.8427ZM16.8678 27.1159C16.8756 27.2617 16.9844 27.7429 17.1096 28.1852C17.435 29.3349 16.907 32.4739 16.3882 32.4739C16.3015 32.4739 16.2306 32.5861 16.2306 32.7234C16.2306 32.8606 15.9454 33.2242 15.5968 33.5314C14.977 34.0775 14.6283 34.1192 14.6283 33.6467C14.6283 33.5171 14.5081 33.3111 14.3612 33.1887C13.9665 32.8599 13.9823 29.5946 14.3817 28.9831C14.799 28.3437 14.9359 28.4332 15.0734 29.4359C15.2049 30.3957 15.3988 30.6517 15.7638 30.3476C16.031 30.1249 15.8507 28.2685 15.5306 27.9472C15.2129 27.6284 15.3151 27.3171 15.83 27.0342C16.4122 26.7145 16.8482 26.7488 16.8678 27.1159ZM2.34747 27.7385C2.39928 28.5585 2.35976 28.7524 2.16551 28.6319C2.06759 28.5712 1.98748 28.1484 1.98748 27.6922C1.98748 26.7867 2.28979 26.8257 2.34747 27.7385ZM20.8422 29.5077C22.6169 31.2983 22.6523 31.6076 21.3133 33.6099C20.9237 34.1921 20.5035 33.9047 20.5035 33.0563C20.5035 32.0952 19.8391 31.4126 18.8951 31.4042C18.0525 31.3967 17.7443 33.3794 18.4561 34.2283C19.1186 35.0184 18.6989 35.6195 17.8159 35.1452C17.6423 35.052 17.2613 34.9756 16.9691 34.9756C15.9587 34.9756 15.7964 34.8109 16.2862 34.2821C17.0263 33.4835 18.011 31.9578 18.011 31.6097C18.011 31.4273 18.1312 31.0361 18.2781 30.7406C18.4249 30.4452 18.5966 29.7091 18.6594 29.1049C18.8132 27.6291 19.0176 27.667 20.8422 29.5077ZM42.661 28.7829C42.4748 29.6714 42.2243 29.776 42.2243 28.9656C42.2243 28.2072 42.3436 27.949 42.6156 28.1176C42.7057 28.1736 42.726 28.4729 42.661 28.7829ZM27.8031 29.1916C27.8031 29.4128 27.8744 29.6378 27.9614 29.692C28.0485 29.7459 28.172 29.999 28.2358 30.2543C28.3864 30.8565 29.5326 32.0969 30.0618 32.2302C30.7908 32.4139 30.5871 32.7048 29.5835 32.9137C29.3387 32.9646 28.9175 33.0568 28.6474 33.1186C28.3773 33.1803 27.9367 33.1476 27.6682 33.0456C27.3997 32.9437 26.9596 32.812 26.6904 32.753C26.1679 32.6387 26.0616 32.3277 26.4216 31.9664C26.6936 31.6934 27.1163 30.066 27.0965 29.368C27.07 28.4393 27.2658 28.0521 27.5587 28.454C27.6931 28.6385 27.8031 28.9706 27.8031 29.1916ZM3.01797 30.0225C2.9204 30.6335 2.61043 30.416 2.56361 29.7041C2.51928 29.0276 2.53156 29.0083 2.79292 29.3455C2.94479 29.5413 3.0461 29.846 3.01797 30.0225ZM42.0903 30.1732C41.9701 30.8288 41.4221 32.2952 41.2973 32.2952C41.0478 32.2952 41.1468 31.4532 41.4231 31.223C41.57 31.1006 41.6902 30.7223 41.6902 30.3821C41.6902 29.9629 41.7618 29.7901 41.9127 29.8456C42.0352 29.8907 42.115 30.0381 42.0903 30.1732ZM3.51327 31.2909C3.61119 31.6882 3.58342 31.787 3.39238 31.7239C3.25618 31.6791 3.11891 31.3671 3.08758 31.0306C3.0201 30.3094 3.31618 30.4904 3.51327 31.2909ZM23.6523 32.1476C24.1583 32.6249 24.1765 33.0761 23.7082 33.5461C23.5124 33.7426 23.3516 33.9639 23.3509 34.0375C23.349 34.2469 22.2485 34.9392 21.7053 35.0727C21.0318 35.2383 21.0587 34.8323 21.7591 34.2589C22.2458 33.8606 22.8659 32.8606 22.9211 32.3851C22.9325 32.2866 22.9541 32.1054 22.969 31.9825C23.0078 31.6626 23.1827 31.7048 23.6523 32.1476ZM4.09012 32.4303C4.12056 32.6365 4.26068 32.9015 4.40169 33.0189C4.54269 33.1363 4.65806 33.3749 4.65806 33.5488C4.65806 33.7228 4.77824 33.9115 4.92512 33.9682C5.072 34.0246 5.19218 34.194 5.19218 34.3447C5.19218 34.4951 5.33247 34.7648 5.50375 34.9438C5.67502 35.1227 6.05567 35.5795 6.34943 35.9588C7.09204 36.9174 8.33884 38.1663 9.28779 38.9021C9.72808 39.2434 10.1524 39.6255 10.2307 39.7509C10.309 39.8764 10.4523 39.9791 10.5494 39.9791C10.7178 39.9791 11.7711 40.6628 11.9577 40.8932C12.0066 40.9537 12.2432 41.0647 12.4834 41.1401C12.7238 41.2155 13.0298 41.3871 13.1639 41.5216C13.2978 41.656 13.562 41.7661 13.7507 41.7661C13.9396 41.7661 14.0941 41.8465 14.0941 41.9448C14.0941 42.3803 12.4346 41.8276 12.0823 41.2747C12.004 41.1519 11.7837 41.0513 11.5927 41.0513C11.4018 41.0513 11.2455 40.9684 11.2455 40.8671C11.2455 40.7656 11.1054 40.6319 10.9339 40.5699C9.71776 40.1298 5.19218 35.7319 5.19218 34.9903C5.19218 34.884 5.1174 34.797 5.02607 34.797C4.93474 34.797 4.80405 34.6197 4.73551 34.4033C4.66714 34.1867 4.50157 33.8995 4.3675 33.765C4.23362 33.6306 4.12394 33.4155 4.12394 33.2871C4.12394 33.1588 4.00377 32.9537 3.85689 32.8313C3.53285 32.5615 3.49707 31.8774 3.81238 31.9816C3.93487 32.022 4.05985 32.2239 4.09012 32.4303ZM40.7279 33.2877C40.5718 33.4024 40.4439 33.6181 40.4439 33.7673C40.4439 33.9163 40.3238 34.1385 40.1769 34.2609C40.03 34.3833 39.9098 34.5966 39.9098 34.7351C39.9098 34.8736 39.7896 35.0332 39.6428 35.0897C39.4959 35.1463 39.375 35.2844 39.3739 35.3968C39.3687 36.018 35.3851 39.9791 34.7655 39.9791C34.6573 39.9791 34.5686 40.0615 34.5686 40.1623C34.5686 40.2629 34.3683 40.4218 34.1235 40.5152C33.8787 40.6087 33.6784 40.7675 33.6784 40.8682C33.6784 40.9689 33.5157 41.0513 33.3168 41.0513C33.1178 41.0513 32.909 41.1719 32.8527 41.3194C32.7963 41.4668 32.5669 41.5874 32.3431 41.5874C32.1194 41.5874 31.89 41.708 31.8336 41.8554C31.7207 42.151 30.8298 42.2304 30.8298 41.9448C30.8298 41.8465 30.9844 41.7661 31.1733 41.7661C31.362 41.7661 31.6367 41.6455 31.7836 41.4981C31.9305 41.3506 32.1439 41.23 32.2579 41.23C32.3718 41.23 32.6688 41.0692 32.9177 40.8726C33.1668 40.6761 33.4712 40.5152 33.5944 40.5152C33.7176 40.5152 33.8645 40.3946 33.9209 40.2472C33.9772 40.0998 34.146 39.9791 34.2961 39.9791C34.446 39.9791 34.5686 39.8962 34.5686 39.7949C34.5686 39.6934 34.7066 39.5574 34.875 39.4925C35.0436 39.4275 35.4015 39.1487 35.6703 38.8727C35.939 38.5967 36.2141 38.3709 36.2816 38.3709C36.485 38.3709 37.7148 37.0046 38.6591 35.729C39.1478 35.0689 39.6338 34.4267 39.7391 34.302C39.8445 34.1771 40.1462 33.6563 40.4097 33.1447C40.8249 32.3393 40.8972 32.2727 40.9504 32.6471C40.9859 32.8963 40.8917 33.1676 40.7279 33.2877ZM15.5184 42.4661C15.5184 42.6923 15.1649 42.7891 14.6795 42.696C14.0491 42.5751 14.1986 42.3022 14.8953 42.3022C15.238 42.3022 15.5184 42.3758 15.5184 42.4661ZM30.5628 42.4809C30.5022 42.5792 30.2172 42.6596 29.9291 42.6596C29.641 42.6596 29.4055 42.5792 29.4055 42.4809C29.4055 42.3826 29.6907 42.3022 30.0391 42.3022C30.4162 42.3022 30.6283 42.3746 30.5628 42.4809ZM17.2098 43.017C17.3968 43.3204 16.1104 43.3252 15.8085 43.0222C15.683 42.8962 15.8571 42.8383 16.3625 42.8383C16.7681 42.8383 17.1493 42.9187 17.2098 43.017ZM29.1295 43.002C28.8205 43.3013 27.6251 43.3131 27.6251 43.017C27.6251 42.9187 28.0017 42.8383 28.4619 42.8383C28.9732 42.8383 29.233 42.9019 29.1295 43.002ZM20.1227 43.5339C20.291 43.641 20.1687 43.711 19.7221 43.7634C18.8798 43.862 17.833 43.7346 17.833 43.5336C17.833 43.3295 19.8019 43.3299 20.1227 43.5339ZM27.18 43.5531C27.1195 43.6513 26.5092 43.7318 25.8237 43.7318C25.0382 43.7318 24.618 43.6656 24.6875 43.5531C24.748 43.4548 25.3583 43.3744 26.0438 43.3744C26.8293 43.3744 27.2494 43.4405 27.18 43.5531Z"
    fill="white"
  />
</svg>
