<svg width="205" height="58" viewBox="0 0 205 58" fill="none" xmlns="http://www.w3.org/2000/svg">
<path fill-rule="evenodd" clip-rule="evenodd" d="M25.8388 0.260496C7.92157 2.80052 -3.3382 19.0322 0.889367 36.2271C1.564 38.9714 2.69115 41.7861 3.11513 41.7861C3.30387 41.7861 5.59385 41.5214 8.20376 41.198C10.8139 40.8744 14.1825 40.4591 15.6896 40.2747C20.3161 39.7089 20.3644 39.3248 16.4708 34.0936C10.1547 25.6074 8.96839 24.0171 8.15796 22.9486C7.28307 21.7953 7.13047 21.4029 7.55629 21.4029C7.69163 21.4029 11.3944 24.1123 15.7849 27.4236C25.9203 35.068 25.5665 35.0143 26.1051 28.9922C26.4967 24.6144 27.7364 11.979 28.0199 9.47415C28.1352 8.45499 28.295 6.78728 28.3746 5.76812C28.745 1.0339 29.3381 3.96352 30.321 15.3806C30.6455 19.1513 30.6828 19.5414 31.3816 26.4987C32.2758 35.4015 31.4532 35.3293 41.9244 27.4252C49.0397 22.0545 51.0092 20.7282 50.438 21.6925C50.3436 21.8518 47.646 25.5013 44.4434 29.8029C36.4755 40.5045 36.3669 39.667 45.8638 40.7412C48.7754 41.0706 51.7792 41.4396 52.5387 41.5614C54.9452 41.9469 54.8002 42.0346 55.7096 39.6436C63.34 19.5805 46.4682 -2.66403 25.8388 0.260496ZM78.0187 16.1218C77.8201 16.3217 77.7425 17.8794 77.7425 21.6679V26.936L76.6492 26.4369C66.9691 22.0174 59.1985 40.9518 67.9388 47.6604C71.8538 50.6655 80.7065 50.1323 82.731 46.7696C83.237 45.9295 83.5263 17.2281 83.0381 16.3102C82.7423 15.754 78.5408 15.5965 78.0187 16.1218ZM199.646 16.2029C199.568 16.4086 199.503 18.9074 199.503 21.7564V26.936L198.525 26.5011C190.281 22.8349 182.654 35.1669 187.358 44.5571C189.688 49.2081 195.949 51.0588 201.675 48.7894C205.249 47.3727 205.042 48.5014 204.972 30.861L204.912 15.9597L202.35 15.8944C200.166 15.8388 199.767 15.8844 199.646 16.2029ZM87.4484 18.2433C85.1391 19.0848 85.21 22.4872 87.5534 23.2655C89.2069 23.8146 90.9166 23.0894 91.3429 21.6577C92.0802 19.1814 89.9646 17.3263 87.4484 18.2433ZM99.1727 26.4021C94.6445 27.6275 92.279 31.762 95.2356 33.2829C96.7418 34.0576 97.9113 33.4656 98.7991 31.4787C100.787 27.0296 104.673 28.6265 104.4 33.7804L104.327 35.1556L101.507 35.9202C94.4157 37.8434 91.4444 41.4505 93.2881 45.8984C95.1343 50.3528 106.524 51.1749 109.066 47.0373C109.802 45.8387 109.639 30.3245 108.875 28.8863C107.54 26.3718 103.298 25.2857 99.1727 26.4021ZM116.491 26.4953C114.577 27.0004 113.263 27.6293 112.614 28.3513C112.057 28.9697 111.753 48.226 112.289 48.8762C112.611 49.2665 116.424 49.3316 117.117 48.9584C117.545 48.728 117.562 48.3859 117.562 40.265C117.562 29.8935 117.746 29.2567 120.754 29.2173C123.92 29.1759 124.106 29.7749 124.193 40.2752C124.274 50.0853 124.004 49.191 126.884 49.191C129.772 49.191 129.5 50.1068 129.578 40.1163C129.655 30.3493 129.608 30.6141 131.389 29.6709C135.294 27.6015 136.176 29.5354 136.193 40.2062C136.208 49.9917 135.955 49.1982 139.072 49.1982C142.006 49.1982 141.767 50.0788 141.685 39.5467C141.606 29.3702 141.598 29.3244 139.727 27.6281C137.349 25.4729 131.502 25.4272 128.382 27.5397L127.21 28.3337L126.174 27.538C124.161 25.9915 120.071 25.5509 116.491 26.4953ZM150.819 26.4522C139.962 30.2302 141.753 48.6803 153.066 49.5963C159.75 50.1374 164.535 44.7764 164.169 37.1536C163.79 29.2377 157.44 24.148 150.819 26.4522ZM171.883 26.1955C166.311 27.1341 166.259 27.249 166.174 38.8257C166.091 50.115 165.854 49.1982 168.853 49.1982C171.913 49.1982 171.652 50.0283 171.654 40.2921C171.656 29.5458 171.738 29.2537 174.829 29.0992C178.507 28.9151 178.655 29.332 178.746 40.1606C178.799 46.5222 178.891 48.8892 179.091 49.0168C179.416 49.225 183.198 49.2584 183.718 49.0576C184.412 48.7894 184.245 31.1473 183.534 29.6093C182.18 26.6843 177.362 25.2725 171.883 26.1955ZM86.1664 26.6935C85.9511 27.0442 85.996 48.7947 86.2126 49.0126C86.3233 49.1241 87.4926 49.1854 88.8108 49.1488L91.2076 49.0824V37.8485V26.6145L88.7514 26.549C87.4008 26.5129 86.2375 26.578 86.1664 26.6935ZM76.9369 29.4932L77.6274 29.883L77.6882 37.2388L77.749 44.5948L77.073 45.2751C76.4257 45.9264 76.0232 46.0513 74.7503 45.9957C68.7511 45.7337 67.8799 30.4487 73.7898 29.1421C74.1281 29.0672 74.5086 28.9755 74.6352 28.9382C75.0571 28.8136 76.2381 29.0985 76.9369 29.4932ZM198.893 29.6238L199.522 30.0385L199.455 37.4128L199.388 44.7873L198.805 45.3745C197.168 47.02 193.917 45.7131 192.583 42.8738C189.259 35.8018 193.801 26.2662 198.893 29.6238ZM155.405 29.8356C160.259 32.711 159.238 45.96 154.164 45.9545C148.986 45.9489 147.387 32.7026 152.203 29.7093C153.144 29.1242 154.28 29.1692 155.405 29.8356ZM104.401 41.5499C104.31 46.1159 104.106 46.4902 101.71 46.4731C96.7455 46.4379 96.9234 40.6901 101.952 38.6378C104.692 37.5195 104.485 37.2738 104.401 41.5499ZM5.49464 46.2125C7.22116 48.6175 10.0553 51.3882 12.5004 53.0617L14.5832 54.4876L16.9312 51.3926C20.8209 46.2649 20.4742 46.0522 5.96051 44.6629L4.26576 44.5005L5.49464 46.2125ZM50.0068 44.8387C38.5724 46.1502 37.6383 46.4383 38.6509 48.3421C39.0196 49.0356 42.7343 54.0211 43.0099 54.1927C43.9294 54.7644 49.8814 49.4581 52.6112 45.633L53.3729 44.5656L52.6105 44.5967C52.1912 44.6136 51.0196 44.7224 50.0068 44.8387ZM21.408 54.4413C18.4591 56.6454 18.7136 56.9669 24.0525 57.7809C26.4628 58.1482 26.3671 58.246 26.0554 55.7379C25.5948 52.0342 24.891 51.8378 21.408 54.4413ZM32.3099 53.1937C32.1285 53.4805 31.8341 54.6789 31.6557 55.8575L31.3312 58H31.9791C32.8825 58 37.7746 56.938 38.3846 56.6095C38.8562 56.3554 38.737 56.2274 36.4288 54.5059C33.7468 52.5056 32.9131 52.2399 32.3099 53.1937Z" fill="white"/>
</svg>
