<svg width="182" height="60" viewBox="0 0 182 60" fill="none" xmlns="http://www.w3.org/2000/svg">
<path fill-rule="evenodd" clip-rule="evenodd" d="M32.7179 0.230403C31.0514 1.01604 31.2661 2.89628 33.0549 3.18185C33.4733 3.24857 33.8594 3.37422 33.913 3.46071C33.9665 3.54738 34.252 3.61827 34.5471 3.61827C34.8422 3.61827 35.2255 3.69007 35.3989 3.77765C35.9218 4.04219 37.5083 4.52666 37.8479 4.52576C38.0228 4.52521 38.1657 4.59629 38.1657 4.6835C38.1657 4.77071 38.4125 4.89147 38.7141 4.95166C39.0157 5.01186 39.8854 5.34838 40.6464 5.69959C41.4075 6.0508 42.1413 6.338 42.2771 6.338C42.4128 6.338 42.5239 6.41959 42.5239 6.51931C42.5239 6.61904 42.64 6.70063 42.7816 6.70063C43.0847 6.70063 44.2218 7.27413 44.3095 7.47122C44.3429 7.5461 44.4793 7.6072 44.6126 7.6072C44.8447 7.6072 45.9658 8.13773 46.1556 8.33754C46.2057 8.39012 46.6143 8.59174 47.0638 8.78575C47.5132 8.97976 47.9218 9.18936 47.9717 9.25191C48.0217 9.31428 48.6345 9.72079 49.3337 10.1552C50.0328 10.5898 50.6457 10.9902 50.6956 11.0451C50.7456 11.1001 51.0724 11.363 51.422 11.6295C51.7716 11.896 52.507 12.525 53.0563 13.0274C53.6056 13.5299 54.1163 13.9436 54.1913 13.9471C54.2663 13.9505 54.3275 14.0756 54.3275 14.2252C54.3275 14.3748 54.3887 14.4977 54.4637 14.4983C54.5387 14.499 54.7533 14.7641 54.9407 15.0875C55.1283 15.411 55.4457 15.9613 55.6462 16.3103C56.0453 17.0053 56.8469 19.0368 57.0054 19.7553C57.0605 20.0046 57.156 20.2494 57.2177 20.2993C57.3751 20.4264 57.793 21.8883 57.9043 22.7017C57.9555 23.0757 58.0608 23.3816 58.1382 23.3816C58.2156 23.3816 58.3258 23.8509 58.3832 24.4242C58.4404 24.9975 58.6285 25.9971 58.801 26.6453C59.2441 28.3108 59.0643 33.8357 58.5219 35.2242C58.4122 35.5049 58.3225 35.9692 58.3225 36.2561C58.3225 36.5429 58.2591 36.8165 58.1818 36.8644C58.1044 36.9121 57.8809 37.6513 57.685 38.5069C57.489 39.3625 57.2664 40.0626 57.1901 40.0626C57.1138 40.0626 57.0514 40.2158 57.0514 40.4031C57.0514 40.7059 56.8124 41.4069 56.3326 42.5103C56.0413 43.1808 55.0388 45.2275 54.8674 45.502C52.2421 49.7051 52.0779 50.1421 52.9706 50.5482C53.614 50.8409 58.3225 46.8851 58.3225 46.0518C58.3225 45.9488 58.399 45.8647 58.4925 45.8647C58.586 45.8647 59.1678 45.1104 59.7854 44.1886C60.403 43.2666 61.0619 42.3174 61.2498 42.079C61.4376 41.8406 61.5912 41.4933 61.5912 41.3073C61.5912 41.1213 61.6524 40.9688 61.7274 40.9684C61.8024 40.9681 62.0139 40.5806 62.1975 40.1072C62.6571 38.9228 62.8776 38.3936 63.0625 38.0297C63.4209 37.3235 63.6686 34.3013 63.661 30.7249C63.6525 26.689 63.4022 24.8274 62.671 23.3586C62.5901 23.1963 62.4685 22.768 62.4006 22.4067C62.3326 22.0453 62.2044 21.7498 62.1158 21.7498C62.027 21.7498 61.9544 21.6707 61.9544 21.5741C61.9544 21.4776 62.077 21.4455 62.2268 21.5028C62.3766 21.5603 62.4992 21.8025 62.4992 22.0411C62.4992 22.2798 62.5809 22.475 62.6808 22.475C62.7806 22.475 62.8649 22.6177 62.8682 22.7923C62.8712 22.9669 62.9938 23.2681 63.1406 23.4616C63.9209 24.4918 63.1794 22.1904 62.3261 20.9339C62.1231 20.6347 61.9562 20.2472 61.9557 20.0726C61.9549 19.898 61.8866 19.7553 61.8038 19.7553C61.6755 19.7553 61.0962 18.6683 60.2578 16.8543C60.1424 16.605 60.0064 16.3602 59.9554 16.3103C59.9044 16.2605 59.7017 15.9138 59.5052 15.5397C59.3088 15.1659 59.0936 14.8598 59.0273 14.8598C58.961 14.8598 58.8553 14.6558 58.7927 14.4065C58.73 14.1572 58.5985 13.9532 58.5007 13.9532C58.4026 13.9532 58.3225 13.8308 58.3225 13.6813C58.3225 13.5317 58.2613 13.4087 58.1863 13.4082C58.0325 13.4069 57.4146 12.3807 57.4146 12.1268C57.4146 11.9758 56.9391 11.3575 56.3704 10.769C56.2456 10.6399 56.1434 10.4839 56.1434 10.4228C56.1434 9.96811 54.2004 7.74301 52.8747 6.67978C52.4253 6.31932 51.7307 5.70376 51.3312 5.31194C50.6039 4.59828 48.3376 3.10134 46.973 2.43284C46.5735 2.2372 46.2193 2.01581 46.1861 1.94111C46.1527 1.86623 45.9328 1.80512 45.6974 1.80512C45.4619 1.80512 45.2188 1.72353 45.157 1.62381C45.0953 1.52409 44.919 1.44249 44.7652 1.44249C44.6113 1.44249 44.228 1.32645 43.9133 1.18466C43.5986 1.04288 43.0551 0.886582 42.7055 0.837264C42.356 0.788128 41.1711 0.580341 40.0724 0.375636C37.7865 -0.0502725 33.4935 -0.135128 32.7179 0.230403ZM38.5289 0.901994C38.8238 0.998635 38.3921 1.04251 37.2973 1.0271C36.3703 1.01405 35.5123 0.940251 35.3906 0.863011C35.0964 0.676438 37.9481 0.711794 38.5289 0.901994ZM28.3597 5.7179C25.2615 6.26185 24.5462 6.4176 24.5462 6.54778C24.5462 6.63191 24.3468 6.70063 24.103 6.70063C23.8591 6.70063 23.613 6.77587 23.5562 6.86798C23.4992 6.96009 23.2082 7.089 22.9099 7.15446C22.6113 7.21991 22.3671 7.34847 22.3671 7.44021C22.3671 7.53214 22.2721 7.6072 22.1561 7.6072C21.9454 7.6072 20.2741 8.61187 19.9002 8.96326C19.7918 9.06516 19.4707 9.31156 19.1867 9.51101C18.4669 10.0163 16.9391 11.5323 16.1875 12.4873C15.8408 12.9275 15.4755 13.3763 15.3754 13.4845C15.0698 13.8151 14.2966 15.0908 13.9372 15.857C13.7502 16.2559 13.5313 16.7179 13.4507 16.8838C12.3332 19.1833 13.8297 20.6617 15.6184 19.0252C16.0513 18.629 16.465 18.3048 16.5374 18.3048C16.6099 18.3048 16.828 18.1619 17.0219 17.9875C17.216 17.8129 17.8647 17.303 18.4636 16.8543C19.0625 16.4055 19.5797 15.9771 19.6129 15.9024C19.6463 15.8277 19.7391 15.7664 19.8192 15.7664C20.0173 15.7664 22.1717 14.33 22.7096 13.8394C22.9478 13.622 23.3564 13.3453 23.6176 13.2242C23.8787 13.1032 24.2341 12.9322 24.4075 12.8441C24.5809 12.756 24.8261 12.6837 24.9523 12.6833C25.0785 12.6829 25.5637 12.4889 26.0306 12.2525C27.6046 11.4551 28.1327 11.3075 30.9928 10.8662C31.6919 10.7583 32.5149 10.5927 32.8216 10.4985C34.2269 10.0662 40.708 10.5445 40.708 11.0805C40.708 11.1646 40.9056 11.2335 41.1469 11.2335C41.3882 11.2335 41.6129 11.2946 41.6463 11.3695C41.6795 11.4444 42.0977 11.7093 42.5757 11.9584C43.0536 12.2075 43.6391 12.5747 43.877 12.7743C44.1149 12.9739 44.4592 13.263 44.6424 13.4165C44.8256 13.5701 45.3023 14.087 45.7018 14.5655C46.1013 15.044 46.6919 15.7343 47.0142 16.0995C47.3365 16.4648 47.602 16.8657 47.6044 16.9903C47.6067 17.115 47.6903 17.2169 47.7901 17.2169C47.89 17.2169 47.9717 17.3431 47.9717 17.4976C47.9717 17.6519 48.176 17.9672 48.4257 18.1982C48.6754 18.4294 48.8797 18.6609 48.8797 18.7129C48.8797 18.914 50.3397 20.9774 50.9112 21.5839C51.5891 22.3035 51.8309 22.6516 52.2856 23.5629C52.4598 23.912 52.6506 24.2383 52.7098 24.2882C52.7689 24.338 52.9601 24.7567 53.1348 25.2185C53.5276 26.2573 54.1119 26.6007 54.5563 26.0538C54.8784 25.6573 54.8236 22.9423 54.4858 22.5748C54.2625 22.3318 54.2839 21.1574 54.5091 21.2965C54.6089 21.3581 54.6907 21.5512 54.6907 21.7258C54.6907 21.9003 54.819 22.2014 54.9758 22.3951C55.3847 22.8997 55.2057 21.6446 54.7199 20.6017C53.6892 18.388 53.4195 17.7672 53.4195 17.6075C53.4195 17.3603 52.4533 15.5073 52.2862 15.434C52.2105 15.4007 52.1484 15.2779 52.1484 15.161C52.1484 15.0442 51.8215 14.602 51.422 14.1786C51.0225 13.7551 50.6956 13.3652 50.6956 13.3121C50.6956 13.1903 49.6255 12.1401 49.5013 12.1401C49.4123 12.1401 49.1426 11.9334 48.614 11.4601C48.4747 11.3356 48.2801 11.2335 48.1815 11.2335C48.0827 11.2335 47.9748 11.1662 47.9414 11.0843C47.8686 10.9044 45.1963 9.78298 44.8407 9.78298C44.7029 9.78298 44.4283 9.63267 44.2307 9.44882C44.033 9.26497 43.6703 9.06606 43.4246 9.00659C42.5561 8.79681 41.616 8.4233 41.616 8.28804C41.616 8.2128 41.4681 8.15115 41.2875 8.15115C41.1068 8.15115 40.8004 8.0313 40.6065 7.88498C40.4127 7.73848 40.077 7.61609 39.8605 7.61301C39.6442 7.60974 39.4399 7.5461 39.4065 7.47122C39.3272 7.2928 37.5804 6.70063 37.1335 6.70063C36.9421 6.70063 36.7079 6.62919 36.6131 6.54198C36.032 6.00782 30.0886 5.41438 28.3597 5.7179ZM33.5351 6.51931C33.6061 6.63409 33.1436 6.70063 32.2746 6.70063C31.4805 6.70063 30.902 6.62411 30.902 6.51931C30.902 6.41578 31.4431 6.338 32.1624 6.338C32.8557 6.338 33.4733 6.41959 33.5351 6.51931ZM9.474 10.1855C8.92468 10.6031 8.448 11.0098 8.41477 11.0892C8.38136 11.1686 8.27876 11.2335 8.18651 11.2335C8.03161 11.2335 6.29758 12.9292 5.65347 13.7103C5.31153 14.1251 2.39187 18.8165 2.39187 18.951C2.39187 19.0041 2.10586 19.4939 1.7563 20.0394C1.40673 20.5852 1.12072 21.1768 1.12072 21.3543C1.12072 21.532 1.04373 21.7547 0.94948 21.8495C0.855415 21.9443 0.685626 22.3889 0.572493 22.8377C-0.294432 26.2719 -0.0630823 34.582 0.952204 36.4791C1.04482 36.6522 1.12072 36.942 1.12072 37.1227C1.12072 37.3037 1.189 37.5291 1.27235 37.6239C1.3557 37.7185 1.5669 38.2041 1.74159 38.7027C2.0799 39.6684 2.9145 41.3624 3.12624 41.5131C3.19615 41.563 3.48125 42.0266 3.75981 42.5435C4.0382 43.0604 4.45731 43.6892 4.69084 43.9409C4.92455 44.1924 5.11577 44.4383 5.11577 44.487C5.11577 44.5757 7.30869 47.7536 7.65626 48.1688C7.75722 48.2892 7.83966 48.4379 7.83966 48.499C7.83966 48.5603 7.9419 48.724 8.06666 48.8631C8.59909 49.456 8.74763 49.6668 8.74763 49.8307C8.74763 49.9265 8.80901 50.0318 8.88382 50.0652C8.95882 50.0984 9.38302 50.5743 9.82684 51.1228C11.5581 53.263 15.4893 56.7436 16.175 56.7436C16.2681 56.7436 16.3714 56.8058 16.4049 56.8819C16.4915 57.0799 19.5682 58.5567 19.8942 58.5567C20.044 58.5567 20.2111 58.6285 20.2653 58.7163C20.3983 58.9309 22.056 59.4633 22.5919 59.4633C22.8278 59.4633 23.1204 59.5626 23.242 59.6841C23.5153 59.957 30.1395 60.1256 31.0652 59.8832C32.4366 59.5242 32.0239 58.2349 30.4821 58.0614C30.0093 58.0082 29.5787 57.8938 29.5251 57.8073C29.4716 57.7209 29.1968 57.6501 28.9144 57.6501C28.6322 57.6501 28.1672 57.5283 27.881 57.3793C27.595 57.2304 27.1819 57.108 26.963 57.1073C26.7442 57.1067 26.5147 57.0246 26.4529 56.9249C26.3912 56.8252 26.1461 56.7436 25.9082 56.7436C25.6703 56.7436 25.4251 56.662 25.3634 56.5622C25.3016 56.4625 25.0926 56.3809 24.8987 56.3809C24.7048 56.3809 24.5462 56.2944 24.5462 56.1889C24.5462 56.0834 24.4647 56.0473 24.365 56.1088C24.2653 56.1702 24.006 56.0963 23.7888 55.9445C23.4131 55.6818 23.4287 55.6738 24.1062 55.7808C24.4981 55.8428 24.8458 55.9623 24.8791 56.0464C24.9539 56.2357 25.8179 56.2515 25.8159 56.0636C25.8137 55.8441 24.8804 55.4686 24.0468 55.3518C23.6223 55.2923 23.2751 55.1732 23.2751 55.0871C23.2751 55.0009 23.1474 54.9304 22.9914 54.9304C22.5687 54.9304 20.9238 54.3671 20.8101 54.1834C20.7558 54.0956 20.5595 54.0238 20.3739 54.0238C20.1885 54.0238 20.0095 53.9611 19.9761 53.8846C19.8938 53.6951 18.2373 52.679 17.5095 52.3715C17.185 52.2344 16.9193 52.0606 16.9193 51.9851C16.9193 51.9097 16.8026 51.8481 16.6598 51.8481C16.5173 51.8481 16.2925 51.7462 16.1604 51.6214C16.0286 51.4969 15.6754 51.2746 15.3758 51.1275C15.0761 50.9805 14.545 50.6309 14.1954 50.3506C13.8459 50.0703 13.4611 49.7622 13.3405 49.6659C13.2199 49.5697 13.0784 49.491 13.0261 49.491C12.899 49.491 10.5636 47.1547 10.5636 47.0276C10.5636 46.973 10.277 46.6585 9.92689 46.3287C9.31039 45.7481 7.83966 43.1678 7.83966 42.6666C7.83966 42.5308 7.76448 42.4197 7.67242 42.4197C7.58053 42.4197 7.4476 42.1571 7.37696 41.8364C7.30651 41.5155 7.18411 41.128 7.10512 40.9751C6.97655 40.7266 6.78842 39.8992 6.17536 36.8896C6.07367 36.391 5.90824 35.6918 5.80746 35.3359C5.58174 34.539 5.73482 28.5962 6.0172 27.1892C6.12724 26.6407 6.28795 25.7195 6.37403 25.1418C6.46028 24.5643 6.61137 23.8708 6.70979 23.6006C6.80822 23.3307 7.03775 22.6201 7.21989 22.0217C7.40203 21.4234 7.61594 20.8564 7.6953 20.7616C7.77465 20.667 7.83966 20.4447 7.83966 20.2679C7.83966 20.0911 8.05013 19.4752 8.30763 18.899C9.10101 17.1226 10.0288 15.1454 10.2026 14.8598C10.2937 14.7102 10.5492 14.2412 10.7706 13.8172C10.9918 13.3933 11.24 13.0467 11.3221 13.0467C11.4043 13.0467 11.4715 12.9243 11.4715 12.7747C11.4715 12.6251 11.5327 12.5022 11.6077 12.5016C11.8814 12.4993 12.3795 11.3682 12.3795 10.7492C12.3795 9.29017 11.0032 9.02309 9.474 10.1855ZM28.9953 14.1752C28.0735 14.3985 27.7125 14.5935 27.7679 14.838C27.7956 14.9608 27.6068 14.9905 27.2514 14.9195C26.8041 14.8302 26.612 14.8957 26.2995 15.244C26.0843 15.4841 25.6018 15.8409 25.2272 16.0367C24.8528 16.2325 24.5462 16.4557 24.5462 16.5328C24.5462 16.6099 24.4024 16.673 24.2266 16.673C24.0508 16.673 23.7034 16.8566 23.4548 17.0809C23.2061 17.3052 22.6758 17.7297 22.2763 18.0239C21.1757 18.8348 19.0984 21.0281 19.0984 21.3795C19.0984 21.4834 19.0289 21.5685 18.9437 21.5685C18.7193 21.5685 17.2825 24.3832 17.2825 24.8229C17.2825 25.0274 17.21 25.1948 17.1214 25.1948C17.033 25.1948 16.914 25.4192 16.8574 25.6934C16.4314 27.7531 16.3168 28.224 16.1737 28.5012C15.9516 28.9322 15.9676 31.855 16.1929 31.9941C16.2928 32.0557 16.3745 32.3123 16.3745 32.5643C16.3745 33.1592 16.9691 35.4211 17.1461 35.4994C17.2211 35.5328 17.2825 35.7241 17.2825 35.9248C17.2825 36.1255 17.3978 36.5063 17.5385 36.771C17.6795 37.0357 17.9284 37.5583 18.0919 37.9321C18.2553 38.3062 18.467 38.6121 18.5622 38.6121C18.7926 38.6121 18.7845 38.5568 18.4376 37.757C18.274 37.3797 18.0773 36.9077 18.0005 36.7083C17.4336 35.2349 17.2825 34.7455 17.2825 34.3838C17.2825 34.1564 17.21 33.893 17.1216 33.7982C16.8114 33.4662 16.682 31.5408 16.9698 31.5408C17.1777 31.5408 17.211 31.2764 17.1405 30.1809C17.0651 29.0087 17.094 28.8211 17.3493 28.8211C17.5124 28.8211 17.649 28.9231 17.6528 29.0477C17.6675 29.5168 18.1905 28.0307 18.1905 27.5198C18.1905 26.8496 18.7224 25.1948 18.9377 25.1948C19.0262 25.1948 19.0984 25.3171 19.0984 25.4667C19.0984 25.6163 19.0269 25.7387 18.9394 25.7387C18.7973 25.7387 18.7207 26.1925 18.4805 28.4584C18.3212 29.9603 18.7939 29.9652 19.2815 28.4666C19.426 28.0224 19.6913 27.5332 19.8711 27.3794C20.0509 27.2258 20.2822 26.7733 20.385 26.374C20.8101 24.723 22.3301 22.1566 23.5731 20.991C24.9356 19.7134 25.2483 19.452 25.9169 19.03C26.9868 18.355 28.2516 17.7909 29.6308 17.3736C30.6697 17.0592 34.597 17.0688 35.6643 17.3884C37.1052 17.82 39.1349 18.7399 39.5859 19.166C39.718 19.2908 39.8814 19.3932 39.9491 19.3938C40.2749 19.3963 42.2523 21.5066 42.8059 22.4426C42.9935 22.7595 43.1931 23.019 43.2494 23.019C43.3059 23.019 43.5105 23.4269 43.7043 23.9256C43.898 24.4242 44.1203 24.8321 44.1982 24.8321C44.2761 24.8321 44.3426 24.9748 44.3459 25.1494C44.3491 25.324 44.5069 25.9155 44.6967 26.464C45.0348 27.4416 45.0348 27.4637 44.6983 27.5885C44.4031 27.698 44.3682 27.8507 44.4488 28.6764C44.5389 29.5978 44.5314 29.6185 44.2661 29.1837C44.114 28.9344 43.9867 28.3864 43.983 27.966C43.9796 27.5455 43.843 26.8928 43.6796 26.5155C42.9857 24.9126 42.4705 23.9256 42.328 23.9256C42.1794 23.9256 42.1655 24.0847 42.1722 25.6934C42.174 26.1363 42.0903 26.464 41.9752 26.464C41.8649 26.464 41.7892 26.6067 41.807 26.7813C41.8796 27.4944 41.7932 27.5867 41.4485 27.164L41.0993 26.7359L40.8934 27.2734C40.7699 27.5957 40.7318 28.2488 40.7983 28.9052C40.8591 29.5072 40.8177 30.4076 40.706 30.9062C40.5943 31.4048 40.4552 32.0575 40.3969 32.3567C40.3386 32.6559 40.0988 33.2051 39.864 33.5769C39.629 33.949 39.4368 34.2939 39.4368 34.3434C39.4368 34.5051 37.547 36.3442 36.8613 36.8497C36.1242 37.3931 35.8382 37.4589 35.7062 37.1153C35.6425 36.9498 35.0004 36.8865 33.3551 36.8836C31.8187 36.8809 31.0204 36.8083 30.8697 36.6579C30.7476 36.536 30.5007 36.4363 30.3209 36.4363C30.1411 36.4363 29.994 36.3636 29.994 36.2746C29.994 36.1857 29.7897 36.0617 29.54 35.9991C29.2903 35.9366 29.086 35.8053 29.086 35.7076C29.086 35.6097 28.984 35.5275 28.8591 35.525C28.7343 35.5225 28.3468 35.1007 27.9981 34.5876C27.6493 34.0747 27.2494 33.5405 27.1092 33.4005C26.8601 33.1518 26.7751 29.7247 27.0088 29.3471C27.06 29.2646 26.9354 29.0308 26.7319 28.8276C25.9054 28.0024 27.8667 24.8321 29.2035 24.8321C29.6682 24.8321 29.9272 25.1184 29.5865 25.2557C29.4298 25.3188 29.4436 25.3511 29.6308 25.359C30.14 25.3806 30.4918 25.0421 30.1756 24.8348C29.9528 24.6889 29.9748 24.6559 30.2967 24.6535C30.513 24.6521 30.7313 24.5489 30.7818 24.4242C30.8364 24.2887 30.8791 24.3254 30.8876 24.5148C30.9043 24.8853 31.0149 24.9003 31.7729 24.6365C32.53 24.373 35.1367 24.6829 35.5386 25.0842C35.8782 25.4232 36.4135 25.4765 36.3082 25.1609C36.2686 25.0423 35.9962 24.8682 35.7029 24.7737C34.9293 24.5248 34.6564 24.2746 34.8968 24.0345C35.025 23.9065 35.1385 23.9005 35.2224 24.0177C35.4365 24.317 36.4745 24.833 36.8317 24.8178C37.0228 24.8096 37.0692 24.7641 36.9399 24.7121C36.6189 24.5826 36.6568 23.9256 36.9853 23.9256C37.1352 23.9256 37.2577 24.0071 37.2577 24.1069C37.2577 24.2066 37.3394 24.2882 37.4393 24.2882C37.79 24.2882 37.6131 24.0131 37.0603 23.6989C36.7533 23.5243 36.345 23.3816 36.1535 23.3816C35.9619 23.3816 35.805 23.3 35.805 23.2003C35.805 23.1006 35.4986 23.0184 35.124 23.0179C34.7496 23.0172 34.2259 22.9037 33.9605 22.7653C33.6115 22.5836 33.423 22.5688 33.2796 22.712C33.1359 22.8554 33.0811 22.8259 33.0811 22.6054C33.0811 22.2138 33.9344 21.9911 34.3771 22.2672C34.5605 22.3815 34.8393 22.475 34.9965 22.475C35.4304 22.475 37.2646 23.3736 38.0008 23.9466C38.4268 24.2784 38.7147 24.3928 38.8309 24.2768C38.9473 24.1605 39.1605 24.2302 39.4459 24.4773C39.723 24.7174 39.9083 24.7797 39.9524 24.6479C40.0445 24.3719 38.7911 22.5693 38.1537 22.0613C37.8764 21.8401 37.4183 21.4745 37.1357 21.2488C36.8533 21.0232 36.4384 20.7899 36.2136 20.7306C35.9888 20.6711 35.805 20.5498 35.805 20.461C35.805 20.372 35.6515 20.2993 35.464 20.2993C35.2764 20.2993 34.8066 20.1654 34.4198 20.0021C32.7056 19.2774 28.6575 19.7013 26.8652 20.7932C26.4925 21.0202 26.1045 21.2058 26.0026 21.2058C25.9007 21.2058 25.8174 21.2787 25.8174 21.3677C25.8174 21.4568 25.699 21.575 25.5542 21.6305C25.3915 21.6928 25.3245 21.6441 25.3788 21.503C25.5147 21.1494 27.7343 19.7553 28.1612 19.7553C28.3702 19.7553 28.5413 19.6737 28.5413 19.574C28.5413 19.4743 28.7356 19.3927 28.9731 19.3927C29.2104 19.3927 29.5064 19.2703 29.6308 19.1207C30.0964 18.5604 29.2188 18.759 27.2701 19.6545C26.18 20.1555 25.0574 21.0176 24.1073 22.0834C23.8992 22.3167 23.518 22.7446 23.26 23.034C22.8563 23.4871 22.1686 24.7424 21.6293 26.0107C20.9701 27.5607 20.6598 32.3213 21.1646 33.1369C21.2385 33.2564 21.246 33.4395 21.1813 33.5441C21.0329 33.7836 20.5512 33.4178 20.5512 33.0655C20.5512 32.9287 20.4373 32.8649 20.2928 32.9204C20.1466 32.9764 19.9503 32.8628 19.8411 32.659C19.7347 32.4608 19.3917 32.0428 19.0788 31.7303L18.5097 31.162L18.6383 32.394C18.7091 33.0716 18.8417 33.7035 18.9326 33.7982C19.0238 33.893 19.0984 34.1252 19.0984 34.3145C19.0984 34.8273 20.4676 37.5215 21.0983 38.2494C21.4007 38.5985 21.8209 39.1288 22.0321 39.428C22.4363 40.0006 24.759 41.8757 25.0641 41.8757C25.1622 41.8757 25.2695 41.9368 25.3029 42.0117C25.3578 42.1348 25.7386 42.3316 27.0885 42.9341C29.7943 44.1416 33.0471 44.2671 36.7584 43.307C37.2329 43.1843 37.6209 43.016 37.6209 42.9332C37.6209 42.8501 37.737 42.7823 37.8786 42.7823C38.1817 42.7823 39.3188 42.2088 39.4065 42.0117C39.4399 41.9368 39.5828 41.8757 39.7243 41.8757C39.866 41.8757 39.9816 41.7996 39.9816 41.7066C39.9816 41.6136 40.1451 41.4857 40.3448 41.4224C40.5446 41.3592 40.708 41.2225 40.708 41.1189C40.708 41.0152 40.5812 40.979 40.4262 41.0384C40.2586 41.1026 40.1912 41.0707 40.2598 40.9597C40.3234 40.8571 40.5391 40.825 40.7394 40.8885C41.0587 40.9896 41.6955 40.4459 41.7068 40.0626C41.7117 39.8954 42.249 39.226 42.498 39.077C42.6863 38.9642 42.7155 39.0202 42.622 39.3147C42.5326 39.5957 42.5766 39.7 42.7842 39.7C42.9407 39.7 43.0687 39.6126 43.0687 39.5058C43.0687 39.1934 43.5926 38.7591 43.8085 38.8924C43.9345 38.9702 43.8261 39.2024 43.51 39.5321C43.0949 39.9645 43.0513 40.0952 43.2449 40.328C43.3722 40.4812 43.3978 40.6065 43.3017 40.6065C43.2056 40.6065 43.0338 40.8105 42.9202 41.0598C42.6707 41.6067 42.8651 41.6411 43.4319 41.1505C43.9315 40.7179 43.9979 40.7028 43.8634 41.0529C43.8074 41.1987 43.6099 41.3661 43.4244 41.4248C43.239 41.4836 43.0367 41.6906 42.975 41.885C42.9133 42.0794 42.7865 42.2384 42.6934 42.2384C42.6002 42.2384 42.5239 42.3666 42.5239 42.5232C42.5239 42.7751 42.5553 42.7769 42.793 42.5395C42.941 42.3918 43.1265 42.2431 43.2051 42.2092C43.2837 42.1755 43.7143 41.699 44.1617 41.1505C44.6093 40.602 45.019 40.1124 45.0722 40.0626C45.4439 39.7143 46.3437 38.0438 46.2453 37.8848C46.1785 37.7767 46.3061 37.3048 46.5291 36.8357C47.5729 34.6393 48.523 27.3705 47.7662 27.3705C47.6795 27.3705 47.6085 27.1675 47.6085 26.9192C47.6085 26.671 47.4482 26.0464 47.2521 25.5311C47.0559 25.016 46.9383 24.5255 46.9904 24.4414C47.0425 24.3571 47.01 24.2882 46.9181 24.2882C46.8262 24.2882 46.7031 23.8838 46.6446 23.3898C46.586 22.8955 46.4018 22.2836 46.2351 22.0299C45.9591 21.6091 45.9582 21.5685 46.2257 21.5685C46.387 21.5685 46.519 21.6636 46.519 21.7801C46.519 21.8963 46.5695 21.9412 46.631 21.8796C46.7859 21.7251 46.1313 20.8961 44.4771 19.1526C43.7037 18.3372 43.0703 17.5864 43.0698 17.4838C43.0685 17.2726 42.6067 16.8499 41.8549 16.3718C41.5737 16.193 41.3027 15.9972 41.2528 15.9366C41.041 15.6801 38.2387 14.4491 37.3255 14.2116C36.1724 13.9117 30.19 13.8856 28.9953 14.1752ZM171.183 19.3441C170.983 19.3939 170.779 19.4864 170.729 19.5497C170.585 19.7319 169.289 20.2993 169.017 20.2993C168.881 20.2993 168.727 20.4117 168.674 20.5491C168.564 20.8354 168.873 21.2058 169.221 21.2058C169.351 21.2058 169.621 21.369 169.821 21.5685C170.249 21.9958 170.402 39.6793 169.984 40.4582C169.583 41.2065 170.194 41.4266 170.907 40.7907C171.631 40.1458 171.867 40.126 173.133 40.6063C174.316 41.0555 176.371 41.093 177.38 40.684C178.83 40.0959 179.082 39.9705 179.082 39.837C179.082 39.7616 179.168 39.7 179.272 39.7C179.529 39.7 181.079 38.0469 181.079 37.7726C181.079 37.6525 181.182 37.5204 181.306 37.479C182.101 37.2149 181.503 30.6342 180.684 30.6342C180.602 30.6342 180.535 30.5499 180.535 30.4467C180.535 30.2121 179.494 29.1837 179.257 29.1837C179.161 29.1837 179.081 29.1224 179.08 29.0477C179.07 27.9941 174.854 27.977 173.329 29.0245C172.912 29.3115 172.523 29.5463 172.466 29.5463C172.409 29.5463 172.363 27.2705 172.363 24.4889C172.363 18.8475 172.407 19.0386 171.183 19.3441ZM106.989 19.574C106.989 19.6737 106.789 19.7553 106.544 19.7553C106.072 19.7553 104.202 20.205 103.9 20.3912C103.551 20.6068 103.73 20.8457 104.52 21.2163C105.614 21.7298 105.698 22.2841 105.417 27.1439C105.322 28.7873 104.81 30.3728 104.81 29.0229C104.81 28.635 102.261 28.3658 101.209 28.6426C100.084 28.9386 98.9994 29.3995 98.9994 29.5811C98.9994 29.6618 98.9113 29.7276 98.8036 29.7276C98.6957 29.7276 98.3077 30.0386 97.941 30.4188C93.021 35.519 97.8949 43.4436 103.992 40.2562L105.355 39.5433V40.3362C105.355 41.287 105.546 41.4389 106.419 41.1829C106.782 41.0761 107.595 40.8453 108.224 40.6702C110.064 40.1572 110.077 39.7982 108.261 39.6583L107.625 39.6093L107.578 29.501C107.537 20.6829 107.497 19.3927 107.26 19.3927C107.111 19.3927 106.989 19.4743 106.989 19.574ZM79.0742 21.3037C78.627 21.6303 78.9548 21.9093 79.9379 22.0397C80.5455 22.12 80.9846 22.3062 81.2924 22.6136L81.748 23.0685V30.7778V38.4871L81.3013 39.0719C81.0418 39.4117 80.6234 39.7038 80.3025 39.769C79.9989 39.8307 79.501 39.932 79.1959 39.9939C76.3148 40.5793 78.6172 40.8776 86.3866 40.9258C95.1133 40.9799 94.5365 41.0876 94.9377 39.329C95.6477 36.2165 95.3014 35.4187 94.1868 37.5991C93.1147 39.6961 91.8462 40.0967 87.2666 39.785C84.3394 39.5859 84.4521 39.7843 84.5137 34.945L84.5627 31.0875L86.8326 31.0315C89.8031 30.9582 90.1093 31.0991 90.5555 32.7447C91.164 34.9894 91.4632 34.3234 91.4632 30.7249C91.4632 27.3707 91.203 26.5923 90.6454 28.2791C90.1313 29.8348 89.4833 30.1216 86.6436 30.0513L84.5627 29.9996L84.5133 26.5049L84.4641 23.0103L84.9137 22.5613C86.03 21.4468 91.339 22.1113 91.9012 23.436C92.502 24.8515 92.6994 25.1948 92.9129 25.1948C93.3309 25.1948 93.5458 22.4163 93.1982 21.5035L93.0264 21.0524L86.194 21.0733C81.3394 21.0882 79.2782 21.1549 79.0742 21.3037ZM142.82 21.3565C142.452 21.7242 142.935 22.1124 143.761 22.1124C145.724 22.1124 145.75 22.2226 145.813 30.7232C145.879 39.7366 145.785 40.0626 143.113 40.0626C142.747 40.0626 142.555 40.4513 142.758 40.7799C142.865 40.9521 143.265 40.9815 144.33 40.895C147.675 40.6238 150.379 40.5753 151.752 40.7625C152.551 40.8714 153.872 41.0002 154.686 41.0486L156.167 41.1365L156.457 40.4145C156.616 40.0174 156.746 39.4951 156.746 39.2537C156.746 39.0122 156.828 38.7644 156.928 38.7027C157.027 38.6411 157.109 38.4376 157.109 38.2507C157.109 37.8413 158.021 35.6688 158.262 35.5027C158.538 35.313 158.242 34.8045 157.856 34.8045C157.638 34.8045 157.41 35.0126 157.262 35.3484C157.129 35.6476 156.967 35.8923 156.903 35.8923C156.838 35.8923 156.734 36.0963 156.671 36.3456C156.609 36.5949 156.477 36.7989 156.379 36.7989C156.281 36.7989 156.201 36.9144 156.201 37.0558C156.201 37.1971 156.14 37.3398 156.065 37.3731C155.99 37.4063 155.7 37.7396 155.42 38.1135C155.14 38.4873 154.793 38.7934 154.648 38.7934C154.504 38.7934 154.385 38.875 154.385 38.9747C154.385 39.0744 154.197 39.156 153.968 39.156C153.738 39.156 153.448 39.2581 153.323 39.3827C153.173 39.5326 152.505 39.6093 151.35 39.6093C150.115 39.6093 149.582 39.5429 149.528 39.3827C149.486 39.2581 149.371 39.156 149.272 39.156C148.455 39.156 148.201 36.7507 148.316 30.0903C148.455 22.0542 148.438 22.1226 150.336 22.1066C151.161 22.0997 151.79 21.7153 151.436 21.4332C151.018 21.0989 143.148 21.0287 142.82 21.3565ZM28.4256 26.0605C27.6807 26.7693 27.0885 27.5306 27.0885 27.7798C27.0885 27.8608 27.3542 27.6184 27.6787 27.2409C28.5157 26.268 28.6816 26.1013 28.8137 26.1013C29.0432 26.1013 29.4489 25.5786 29.2938 25.4829C29.2068 25.4292 28.816 25.6892 28.4256 26.0605ZM4.95252 31.1894C4.81632 31.5297 4.77292 31.2697 4.76402 30.0598C4.74895 27.9964 5.00827 27.3553 5.07709 29.2856C5.10578 30.0895 5.04967 30.9462 4.95252 31.1894ZM162.489 28.0583C162.429 28.156 162.092 28.2898 161.742 28.3554C161.391 28.4211 161.104 28.5527 161.104 28.6479C161.104 28.7431 160.982 28.8211 160.833 28.8211C159.996 28.8211 158.017 31.1172 158.017 32.088C158.017 33.5586 159.821 32.5302 160.249 30.8155C160.662 29.1625 164.373 28.955 164.373 30.5851C164.373 30.7716 164.458 31.0097 164.563 31.1141C165.046 31.5966 164.684 33.9693 164.1 34.145C163.801 34.2351 163.392 34.3675 163.192 34.4389C162.993 34.5104 162.543 34.671 162.194 34.7957C161.844 34.9205 161.374 35.0646 161.15 35.116C160.925 35.1673 160.741 35.2815 160.741 35.3696C160.741 35.4575 160.572 35.5297 160.366 35.5297C159.488 35.5297 158.017 37.3994 158.017 38.516C158.017 39.8314 158.68 40.9692 159.446 40.9692C159.647 40.9692 159.862 41.0508 159.924 41.1505C159.986 41.2502 160.231 41.3318 160.469 41.3318C160.706 41.3318 160.952 41.2502 161.013 41.1505C161.075 41.0508 161.269 40.9692 161.444 40.9692C161.941 40.9692 163.162 40.3211 163.817 39.7103C164.505 39.0686 164.736 39.0168 164.736 39.5047C164.736 41.3149 167.888 41.3936 168.931 39.6093C169.469 38.6895 169.168 38.2012 168.485 38.884C168.081 39.2871 166.971 39.2371 166.74 38.8053C166.625 38.5909 166.552 36.7197 166.552 33.9865V29.5184L166.026 28.9937C165.342 28.3103 162.756 27.6266 162.489 28.0583ZM127.602 28.3141C127.004 28.4095 126.472 28.5424 126.422 28.6093C126.371 28.6762 126.102 28.8479 125.824 28.9908C123.405 30.2364 121.688 35.5489 123.04 37.6083C123.201 37.8542 123.333 38.1805 123.333 38.3337C123.333 38.4868 123.415 38.6121 123.514 38.6121C123.614 38.6121 123.696 38.6958 123.696 38.7983C123.696 40.2218 127.698 41.8395 129.453 41.1249C131.116 40.4477 132.231 39.7669 132.231 39.428C132.231 39.3638 132.353 39.189 132.503 39.0394C133.052 38.492 132.705 37.9642 132.133 38.4761C128.932 41.3423 124.783 39.0008 124.787 34.3301C124.79 29.8493 127.715 27.5888 130.25 30.1071C130.94 30.7921 131.277 30.9968 131.714 30.9968C133.592 30.9968 132.628 28.624 130.648 28.3718C128.892 28.1482 128.669 28.144 127.602 28.3141ZM136.992 28.2822C135.881 28.5099 134.068 29.9322 134.052 30.5889C134.049 30.7136 133.985 30.8155 133.911 30.8155C133.608 30.8155 132.934 33.7722 132.919 35.1671C132.894 37.3619 133.943 39.5839 135.412 40.4526C136.787 41.2658 139.258 41.679 139.585 41.1505C139.647 41.0508 139.856 40.9692 140.05 40.9692C140.244 40.9692 140.403 40.8965 140.403 40.8074C140.403 40.7186 140.607 40.5946 140.857 40.532C141.106 40.4695 141.311 40.3382 141.311 40.2405C141.311 40.1425 141.395 40.0626 141.498 40.0626C141.783 40.0626 142.697 39.0675 142.81 38.6331C142.946 38.114 142.602 38.1435 141.998 38.7027C141.728 38.952 141.398 39.156 141.264 39.156C141.13 39.156 140.925 39.2512 140.808 39.3676C140.313 39.8615 137.665 39.5103 137.001 38.8626C136.878 38.7426 136.711 38.6168 136.63 38.5829C136.323 38.4541 135.5 37.2023 135.5 36.8635C135.5 36.6684 135.424 36.4312 135.331 36.3366C135.239 36.2417 135.137 35.5116 135.104 34.7138L135.046 33.2633L138.929 33.2143L142.812 33.1652L142.721 32.0358C142.488 29.1714 140.146 27.6367 136.992 28.2822ZM111.075 28.6397C110.776 28.7159 110.183 28.7879 109.759 28.7997C108.859 28.8247 108.67 29.2878 109.486 29.4691C110.495 29.693 110.586 29.7499 110.809 30.2864C110.977 30.692 111.004 31.5906 110.911 33.7706C110.72 38.273 111.151 40.2484 112.449 40.8223C112.742 40.9518 112.982 41.1193 112.982 41.1947C112.982 42.019 116.209 41.0734 117.62 39.8359C118.646 38.9357 118.861 38.9531 118.733 39.9266C118.624 40.7655 118.818 41.5501 119.045 41.1838C119.118 41.0658 119.357 40.967 119.575 40.9644C120.089 40.9583 122.567 40.1393 122.896 39.8673C123.321 39.5148 123.001 39.3507 122.096 39.4577C120.69 39.624 120.714 39.7288 120.851 33.9661C120.994 27.9424 121.119 28.286 118.899 28.6064C118.081 28.7244 117.151 28.8211 116.831 28.8211C115.84 28.8211 116.129 29.2963 117.293 29.58C118.762 29.938 118.787 30.0166 118.789 34.2605L118.791 37.7961L118.202 38.4308C117.267 39.4363 116.487 39.7645 115.271 39.6637C113.197 39.492 112.988 38.8784 112.985 32.946L112.982 28.4584L112.301 28.4798C111.927 28.4916 111.375 28.5636 111.075 28.6397ZM139.274 29.1358C140.777 30.0953 141.078 31.8128 139.804 32.154C139.186 32.3195 135.533 32.2853 135.426 32.113C134.531 30.6659 137.759 28.1683 139.274 29.1358ZM104.208 29.7904C105.147 30.6056 105.237 31.0162 105.315 34.8661C105.397 38.8915 105.443 38.7316 104.032 39.3827C99.719 41.3746 96.1711 34.0837 99.6998 30.4794C100.936 29.2169 103.156 28.8774 104.208 29.7904ZM176.736 29.9367C177.409 30.2973 178.356 31.1218 178.356 31.3477C178.356 31.4539 178.424 31.5408 178.508 31.5408C178.592 31.5408 178.878 32.0936 179.144 32.7692C180.228 35.5284 179.46 38.3231 177.227 39.748C176.349 40.3081 173.816 39.9997 173.816 39.3326C173.816 39.2354 173.714 39.1549 173.589 39.1538C172.755 39.1455 172.456 37.9347 172.395 34.3194C172.335 30.79 172.436 30.0903 173.005 30.0903C173.151 30.0903 173.271 30.0147 173.271 29.9222C173.271 29.4907 175.924 29.5017 176.736 29.9367ZM44.7394 34.6041C44.6446 34.6645 44.5095 34.9791 44.439 35.3031C44.2986 35.9495 43.9767 36.1074 43.9767 35.5297C43.9767 35.3303 44.0584 35.1671 44.1583 35.1671C44.2581 35.1671 44.3399 34.968 44.3399 34.7245C44.3399 34.481 44.4216 34.2315 44.5215 34.1698C44.6213 34.1082 44.7161 33.879 44.7321 33.6605C44.7481 33.4421 44.7949 33.5403 44.8363 33.8788C44.8777 34.2174 44.8342 34.5437 44.7394 34.6041ZM9.65559 34.4632C9.65559 34.5512 9.56807 34.6231 9.46111 34.6231C8.9817 34.6231 8.32016 35.8615 8.5802 36.2717C8.66918 36.412 8.74327 36.9079 8.74491 37.3735C8.74981 38.8935 9.65105 41.708 10.3068 42.2514C10.4481 42.3684 10.5636 42.6173 10.5636 42.8044C10.5636 42.9917 10.6453 43.1449 10.7452 43.1449C10.845 43.1449 10.9267 43.2615 10.9267 43.404C10.9267 43.5464 11.0292 43.7708 11.1541 43.9027C11.2792 44.0343 11.5431 44.4482 11.7403 44.8221C11.9375 45.1962 12.1619 45.502 12.2391 45.502C12.3163 45.502 12.3795 45.6255 12.3795 45.7764C12.3795 46.9041 17.7387 50.3975 19.4687 50.3975C19.7478 50.3975 20.0033 50.4586 20.0367 50.5335C20.1244 50.7306 21.2616 51.3041 21.5646 51.3041C21.7063 51.3041 21.8223 51.3848 21.8223 51.4833C21.8223 51.5819 22.1492 51.7146 22.5487 51.7784C22.9482 51.8423 23.2751 51.9452 23.2751 52.0073C23.2751 52.0693 23.7654 52.2765 24.3646 52.4678C24.9639 52.6589 25.4542 52.8832 25.4542 52.9662C25.4542 53.0493 25.6536 53.1173 25.8975 53.1173C26.1413 53.1173 26.3883 53.1941 26.4464 53.2881C26.5047 53.382 26.918 53.5138 27.3651 53.5807C27.8122 53.6476 28.1781 53.7747 28.1781 53.8632C28.1781 53.9515 28.4438 54.0267 28.7683 54.0304C29.0928 54.0338 29.8487 54.1549 30.448 54.2994C31.707 54.603 35.8195 54.6485 37.0761 54.3727C37.5256 54.2741 38.2405 54.1446 38.6651 54.0851C39.0896 54.0255 39.4368 53.9056 39.4368 53.819C39.4368 53.7321 39.5798 53.6607 39.7546 53.6601C40.5206 53.6574 44.9609 51.1172 45.2175 50.5348C45.2509 50.4594 45.3871 50.3975 45.5206 50.3975C45.899 50.3975 48.8797 47.3063 48.8797 46.9138C48.8797 46.8264 49.2939 45.9017 49.8002 44.8589C51.0748 42.2337 50.8151 41.0798 49.2707 42.5065C48.8601 42.8858 48.3385 43.3254 48.1117 43.4835C47.8849 43.6416 47.5265 43.9565 47.3153 44.1832C47.1041 44.41 46.8758 44.5955 46.8081 44.5955C46.7402 44.5955 46.4643 44.7994 46.1952 45.0487C45.9259 45.2981 45.6094 45.502 45.4919 45.502C45.3742 45.502 45.2417 45.6041 45.197 45.7287C45.1525 45.8534 45.0573 45.9013 44.9858 45.8351C44.9142 45.7689 45.1683 45.4286 45.5505 45.079C45.9395 44.7231 46.1747 44.377 46.085 44.2927C45.9967 44.2098 45.8879 44.2443 45.8435 44.3688C45.7988 44.4936 45.6753 44.5955 45.5689 44.5955C45.4625 44.5955 45.1035 44.8749 44.7713 45.2165C44.4392 45.5579 44.0019 45.8899 43.7996 45.9539C43.5973 46.0181 43.4319 46.137 43.4319 46.2182C43.4319 46.4224 41.5065 47.3152 41.0663 47.3152C40.8693 47.3152 40.708 47.3763 40.708 47.4512C40.708 47.5261 40.1696 47.7494 39.5115 47.9478C38.8534 48.1462 38.2767 48.3704 38.2296 48.4464C38.1828 48.5224 37.9093 48.5844 37.622 48.5844C37.3347 48.5844 36.8697 48.672 36.5886 48.7791C33.7626 49.8554 26.6169 50.1092 24.6096 49.2048C24.2949 49.0631 23.9639 48.947 23.874 48.947C23.5967 48.947 22.7332 48.5015 22.7317 48.3577C22.731 48.2829 22.6273 48.2218 22.5015 48.2218C22.3756 48.2218 22.0522 48.0178 21.7829 47.7685C21.5138 47.5192 21.2507 47.3152 21.1986 47.3152C21.0745 47.3152 19.0984 45.3416 19.0984 45.2176C19.0984 45.165 18.6949 44.7191 18.2015 44.2267C17.7083 43.7342 17.0755 43.0242 16.7953 42.6489C16.5151 42.2735 16.2418 41.9256 16.188 41.8757C16.1341 41.8259 15.6115 41.2139 15.0266 40.5159C14.4417 39.8178 13.8927 39.2195 13.8068 39.1863C13.7209 39.1529 13.6506 39.0102 13.6506 38.869C13.6506 38.7276 13.5818 38.6121 13.4976 38.6121C13.4135 38.6121 13.1907 38.3265 13.0024 37.9775C12.814 37.6284 12.597 37.3429 12.5199 37.3429C12.4427 37.3429 12.3795 37.2274 12.3795 37.0859C12.3795 36.9447 12.3181 36.802 12.2433 36.7686C12.1685 36.7355 11.9184 36.3226 11.6878 35.8512C11.4572 35.3798 11.1712 34.9316 11.0522 34.8554C10.6195 34.578 9.65559 34.3073 9.65559 34.4632ZM164.727 36.2096C164.701 39.3458 160.645 41.2201 160.25 38.2784C160.087 37.0676 161.611 35.5297 162.973 35.5297C163.132 35.5297 163.312 35.4481 163.374 35.3484C163.436 35.2487 163.767 35.1671 164.111 35.1671H164.736L164.727 36.2096ZM43.723 36.7784C43.5628 36.955 43.4292 37.1746 43.4259 37.2665C43.4186 37.4652 42.7845 38.2494 42.6311 38.2494C42.4444 38.2494 42.5152 37.8705 42.7509 37.6081C43.2728 37.027 43.4319 36.806 43.4319 36.6615C43.4319 36.5775 43.533 36.4078 43.6567 36.2845C44.0063 35.9353 44.0684 36.3973 43.723 36.7784ZM46.1558 37.9949C46.1558 38.2068 45.53 39.156 45.3902 39.156C45.3119 39.156 45.2478 39.2485 45.2478 39.3614C45.2478 39.5525 44.5694 40.2439 44.382 40.2439C44.2667 40.2439 44.8727 39.335 45.2767 38.902C45.4583 38.7074 45.6542 38.3994 45.712 38.2175C45.808 37.9153 46.1558 37.7408 46.1558 37.9949ZM39.6825 40.5612C38.8893 41.3262 37.9454 41.8757 37.4246 41.8757C37.233 41.8757 37.0761 41.9479 37.0761 42.0358C37.0761 42.124 36.8718 42.2351 36.6222 42.2828C35.9604 42.409 36.059 42.0079 36.7584 41.7285C37.8136 41.307 38.5289 40.9153 38.5289 40.7594C38.5289 40.6753 38.6389 40.6065 38.7735 40.6065C38.908 40.6065 39.2066 40.4433 39.4368 40.2439C40.201 39.5821 40.4135 39.8563 39.6825 40.5612ZM19.8549 46.9703C20.2879 47.3788 20.8259 47.837 21.0506 47.9884C21.2752 48.1396 21.4526 48.3561 21.4448 48.4693C21.4357 48.6009 21.3974 48.5935 21.3389 48.4484C21.2884 48.3238 21.1334 48.2218 20.9943 48.2218C20.855 48.2218 20.2772 47.773 19.7099 47.2245C19.1427 46.676 18.7663 46.2273 18.8734 46.2273C18.9804 46.2273 19.4222 46.5616 19.8549 46.9703Z" fill="white"/>
</svg>
