<svg width="89" height="36" viewBox="0 0 89 36" fill="none" xmlns="http://www.w3.org/2000/svg">
<path fill-rule="evenodd" clip-rule="evenodd" d="M13.7057 0.0482702C4.56367 0.837389 -0.99361 7.63222 0.147868 16.6254C1.14938 24.5164 7.11991 28.8599 16.3321 28.3994C19.6776 28.2321 23.4885 27.2776 25.4982 26.1037L25.7507 25.9562L25.7355 21.0997L25.7203 16.2433L23.8662 16.2276L22.0121 16.2119V20.6423V25.0727L21.7303 25.2535C18.4676 27.3472 13.0393 27.4334 9.60032 25.4462C1.81218 20.9458 2.13417 6.54697 10.1099 2.66004C13.8504 0.837213 19.6551 1.276 23.6054 3.68026C23.8152 3.808 23.9918 3.90512 23.9978 3.89615C24.5914 3.00717 24.809 2.57665 24.704 2.49902C22.5825 0.930411 17.2504 -0.257724 13.7057 0.0482702ZM51.9152 3.91101C51.7357 3.97205 51.0749 4.18603 50.4467 4.38664L49.3046 4.7513V7.00525V9.25913H48.0865H46.8684L46.885 10.017L46.9017 10.7748L48.1012 10.7909L49.3007 10.807L49.3195 17.4779C49.3383 24.143 49.3385 24.1491 49.4695 24.6417C50.3426 27.9231 53.2199 29.2123 56.8474 27.9473C57.3821 27.7608 58.1862 27.4261 58.2479 27.3643C58.2867 27.3254 57.9551 26.556 57.8995 26.556C57.8692 26.556 57.7453 26.5979 57.6239 26.6491C55.6366 27.4873 53.5207 27.0511 52.847 25.6644C52.3921 24.7281 52.3039 22.2816 52.421 13.8515L52.4633 10.8058L54.9926 10.7904L57.522 10.7748L57.5386 10.017L57.5552 9.25913H55.0022H52.4491V6.52492C52.4491 3.42206 52.5079 3.70951 51.9152 3.91101ZM64.4044 3.82155C64.3718 3.83338 63.7113 4.04647 62.9367 4.29504L61.5283 4.74702L61.5127 6.98825L61.4972 9.22941L60.2957 9.24552L59.0943 9.26157V10.0331V10.8046H60.3091H61.5239L61.5418 17.5064L61.5596 24.2082L61.6936 24.7134C62.5029 27.7649 65.2277 29.0948 68.6143 28.0914C69.1124 27.9438 70.4859 27.4093 70.4859 27.3632C70.4859 27.3375 70.1776 26.586 70.1591 26.5664C70.149 26.5557 69.8779 26.6313 69.5568 26.7345C67.0369 27.5437 65.386 26.9271 64.7808 24.9507L64.6444 24.5054L64.6263 17.655L64.6083 10.8046H67.1615H69.7146V10.0325V9.26038L67.1782 9.24493L64.6418 9.22941L64.6263 6.51006C64.6106 3.74178 64.611 3.74677 64.4044 3.82155ZM36.6076 8.78588C31.2956 9.43894 28.1151 13.9231 28.7194 19.9074C29.4894 27.5329 37.557 30.932 44.4174 26.5214C45.0451 26.1179 45.0354 26.1708 44.6003 25.5188L44.2225 24.9531L44.0195 25.1059C41.4698 27.0248 37.7139 27.4007 35.3095 25.9776C33.3363 24.8098 32.2798 22.5645 32.1204 19.2004L32.0802 18.3534H38.9654C45.1891 18.3534 45.8541 18.3443 45.8867 18.2593C46.0078 17.943 45.882 15.9029 45.6781 14.8762C44.8221 10.5676 41.3079 8.20801 36.6076 8.78588ZM71.0199 9.29723C71.0199 9.31816 72.7598 13.4172 74.8863 18.4063C77.0128 23.3954 78.7492 27.5175 78.7448 27.5665C78.7405 27.6155 77.927 29.528 76.937 31.8164L75.137 35.9772L76.291 35.9934C76.9256 36.0022 77.4498 36.0022 77.4557 35.9934C77.4669 35.9765 88.7743 9.79356 88.9182 9.45107L89 9.25664L87.8303 9.27275L86.6607 9.28885L83.6595 16.2303C82.0089 20.0481 80.6317 23.214 80.599 23.2658C80.5535 23.3381 79.839 21.7218 77.5238 16.3096L74.5077 9.25913H72.7638C71.8047 9.25913 71.0199 9.27625 71.0199 9.29723ZM38.6211 10.0354C41.1119 10.4403 42.5139 12.5274 42.6417 16.0207L42.677 16.9869L37.4322 16.9717L32.1875 16.9566L32.2061 16.5999C32.4311 12.2967 35.1864 9.4771 38.6211 10.0354Z" fill="white"/>
</svg>
