<svg width="70" height="82" viewBox="0 0 70 82" fill="none" xmlns="http://www.w3.org/2000/svg">
<path fill-rule="evenodd" clip-rule="evenodd" d="M21.3228 7.89291C19.8876 7.85213 19.0425 7.47645 18.6474 6.64182C18.12 5.52889 18.7128 4.27979 20.1687 3.58826C20.7613 3.30675 21.3941 3.18144 22.0274 3.19627L22.1377 2.54379L23.3027 5.0032L22.3702 4.13372C21.7964 4.05537 21.1214 4.15819 20.5305 4.43871C19.6526 4.85565 19.2597 5.49207 19.5549 6.11539C19.8027 6.63836 20.3921 6.87662 22.3221 6.92753C23.8121 6.96955 24.6663 7.16356 25.0984 8.07605C25.6888 9.32243 25.1295 10.556 23.6516 11.2579C22.891 11.6192 22.1955 11.6968 21.5064 11.6331L21.3828 12.4175L20.1021 9.71318L21.0609 10.6884C21.8951 10.7903 22.6891 10.6793 23.3177 10.3807C24.1845 9.96898 24.5118 9.30909 24.185 8.61904C23.8898 7.99597 23.3301 7.93467 21.3228 7.89291ZM20.5731 69.6538L21.1647 69.9568L25.2266 72.0381L24.4075 73.7766L24.4988 72.6199L21.6758 71.1733L20.404 73.6624L22.7025 74.8398L23.3183 74.3944L23.01 74.9975L22.6235 75.7543L22.2425 76.4997L22.2435 75.5595L20.0175 74.4189L18.5174 77.3548L18.5236 77.3585L18.9249 77.9977L18.3476 77.6692L17.4707 77.1702L16.8927 76.8417L17.6376 76.8595L21.0023 70.2749L20.5731 69.6538ZM62.7028 39.4304C63.0661 39.4304 63.574 39.317 64.1232 39.119C64.0817 37.4685 63.6466 36.6378 62.807 36.6378C62.164 36.6378 61.6872 37.3024 61.6872 38.1744C61.6872 38.9633 62.0601 39.4304 62.7028 39.4304ZM62.9829 41.8601C63.2006 41.746 63.3976 41.6006 63.5531 41.4032C63.8539 41.0297 63.9679 40.6975 64.0923 39.8456C63.4393 40.0742 62.9516 40.178 62.475 40.178C61.469 40.178 60.8369 39.4304 60.8369 38.2572C60.8369 36.8763 61.6872 35.8697 62.8274 35.8697C64.2167 35.8697 65.005 37.0221 65.005 39.0572C65.005 40.3132 64.7246 41.2168 64.1131 41.9432C63.8643 42.244 63.5634 42.483 63.2421 42.6387C62.7652 42.8673 62.3918 42.9296 61.5004 42.9296H61.293V42.1612H61.3967C62.2055 42.1612 62.5268 42.088 62.9829 41.8601ZM69.3262 38.8595C69.7722 39.2542 70 39.8251 70 40.5626C70 41.9229 69.1189 42.9091 67.8955 42.9091C67.6568 42.9091 67.4186 42.8777 67.1903 42.8154C66.8275 42.722 66.6516 42.6387 66.2364 42.3792L66.6306 41.6634C67.2007 42.0265 67.4391 42.1194 67.8227 42.1194C68.611 42.1194 69.1811 41.4968 69.1811 40.6246C69.1811 39.8666 68.8597 39.4099 68.2065 39.2023C67.8227 39.078 67.5845 39.0572 66.8379 39.0572H66.7656V35.9216H69.7613V36.7001H67.605V38.3405C68.5591 38.3924 68.9219 38.5068 69.3262 38.8595ZM1.73875 42.8257V36.752H0V35.9734H2.589V42.8257H1.73875ZM6.13078 41.673C6.46274 41.0917 6.97091 40.0013 7.24042 39.306L8.22494 36.752H5.35334V35.9734H9.19958V36.4924L7.95567 39.6899C7.74835 40.2198 7.57238 40.6555 7.40603 41.0089C7.14688 41.5588 6.90872 41.9748 6.32773 42.9609L5.61249 42.5034C5.85115 42.1305 6.017 41.8601 6.13078 41.673ZM22.8527 30.0536C23.2545 28.1209 24.1277 26.4662 25.4397 25.179C25.0505 25.1874 24.6023 25.1872 24.3268 25.1867C23.7945 25.1859 22.5562 25.482 22.5562 28.2187C22.5562 28.7939 22.6787 29.4191 22.8527 30.0536ZM53.7539 35.5339L53.6507 36.3953C53.6507 36.3953 51.7873 36.9069 49.4898 37.544L49.4903 37.5586C49.5066 37.9568 49.6342 39.5259 49.7358 39.9127C49.7613 40.0089 49.785 40.1063 49.8205 40.1957C50.3188 41.449 50.4057 41.6796 51.2359 43.5745C51.4045 43.9591 51.1621 44.2624 50.8198 44.4895C50.2129 44.8924 49.765 45.1267 49.161 45.4067C49.1694 45.681 49.3649 46.0391 49.515 46.3328C49.5806 46.4613 49.8025 46.8231 49.8025 46.9875C49.8025 47.6063 49.0369 48.1179 48.9303 48.1913C49.0362 48.3357 49.1388 48.5047 49.1909 48.7707C49.221 48.9432 49.1978 49.159 49.0959 49.3404C48.993 49.522 48.8673 49.6142 48.8012 49.6715C48.699 49.7652 48.7076 49.9417 48.7215 50.0331C48.815 50.6466 48.8064 51.4468 48.3073 52.0714C48.0215 52.4209 47.7377 52.5956 47.1831 52.6038C46.4583 52.6146 45.2366 52.4762 44.3606 52.3494L44.3444 58.1924C43.8179 58.9056 42.1759 59.8152 40.7484 60.2153C38.3743 60.8814 35.7533 60.6211 35.7533 60.6211C37.5705 59.3651 39.9356 58.2863 41.9864 58.1635C40.6583 57.8167 39.0091 57.4114 37.6862 56.9183C37.5162 57.0861 36.3545 58.226 34.2406 58.7621C31.9537 59.3416 29.4397 58.9808 29.4397 58.9808C29.4397 58.9808 31.5104 57.5896 33.7976 57.0092C35.4729 56.5844 36.7945 56.6983 37.3822 56.8091C35.4771 56.0876 34.3188 55.6002 33.105 54.971C32.7968 55.2466 31.7421 56.1215 29.8827 56.5006C27.6824 56.9494 25.3042 56.4724 25.3042 56.4724C25.3042 56.4724 27.3317 55.2243 29.5322 54.7757C31.0079 54.4747 32.1005 54.646 32.7165 54.7678C32.1558 54.4683 31.6202 54.1658 31.1088 53.8514C30.8482 53.7196 30.5701 53.6136 30.2754 53.5249C28.8975 53.1752 27.2165 53.2335 26.2307 53.3647C26.3035 53.967 25.7625 54.5264 24.9387 54.729C24.0662 54.9438 23.2614 54.8501 23.055 54.0093C22.849 53.1685 23.5185 52.7115 24.3913 52.4972C25.1909 52.3003 25.9034 52.5304 26.1416 53.062C26.8571 52.7454 28.3078 52.603 29.2768 52.6178C28.5176 52.0603 27.622 51.4777 26.9336 50.8253C26.5715 51.0015 25.5367 51.4253 24.1025 51.3084C22.3087 51.1616 20.8577 50.1372 20.8577 50.1372C20.8577 50.1372 22.4304 49.6708 24.2242 49.8171C25.2376 49.8997 26.0083 50.1849 26.496 50.4179C25.6779 49.5801 24.9925 48.8122 24.3969 48.003C24.028 48.1105 23.193 48.2929 22.0989 48.0401C20.6373 47.7027 19.5941 46.7171 19.5941 46.7171C19.5941 46.7171 20.9172 46.4877 22.379 46.8253C23.0955 46.9909 23.7703 47.314 24.1486 47.5473C23.7755 46.9939 23.4072 46.4052 23.056 45.7018C22.5686 45.3296 21.8674 44.623 21.4276 43.4542C20.9705 42.2397 20.8649 40.9357 20.9184 40.0138C21.607 40.6285 22.3173 41.6218 22.8754 42.8089C23.3366 43.7908 23.3833 44.5342 23.4329 45.5038C24.046 46.3911 24.7948 47.3369 25.4278 48.0594C25.3632 47.4118 25.2872 46.6316 25.4019 46.0557C24.9762 45.9269 24.6553 45.4366 24.6603 44.8251C24.6659 44.1175 25.0969 43.5476 25.6231 43.5518C26.149 43.5558 26.5711 44.1329 26.5654 44.8402C26.5602 45.489 26.1949 46.0083 25.7292 46.0886C25.804 46.9583 25.9718 47.9956 26.3684 49.0416C27.1742 49.8399 28.0065 50.544 28.8831 51.1725C28.623 50.7541 28.1294 49.9288 28.0484 48.6446C27.9354 46.8456 28.6208 45.0048 28.6208 45.0048C28.6208 45.0048 29.4261 46.7519 29.5396 48.5505C29.6344 50.0583 29.2477 51.0319 29.1087 51.3374C29.9439 51.9911 31.3433 52.868 32.6119 53.5326C32.3476 53.0664 31.8258 52.0731 31.7172 50.6085C31.5662 48.5764 32.2034 46.4949 32.2034 46.4949C32.2034 46.4949 33.0369 48.4667 33.1879 50.4985C33.3094 52.1349 32.9915 53.2609 32.8471 53.6569C33.7781 54.1616 35.1932 54.8585 36.4673 55.3701C36.1267 54.8459 35.5857 53.8279 35.3917 52.3826C35.1014 50.22 35.7088 47.9467 35.7088 47.9467C35.7088 47.9467 36.7758 49.9946 37.066 52.1572C37.2857 53.7936 36.9981 55.0236 36.8451 55.5266C37.5663 55.8281 39.3949 56.4418 40.7368 56.7977C40.408 56.4037 39.7031 55.3815 39.4381 53.7842C39.0965 51.7264 39.7125 49.5544 39.7125 49.5544C39.7125 49.5544 40.8824 51.4963 41.2242 53.5543C41.5085 55.2676 41.2203 56.5226 41.0853 56.8946C41.473 56.9989 43.3522 57.4403 43.3522 57.4403L43.3221 51.7157L43.3184 51.0521C44.4845 51.3762 46.128 51.6218 47.2172 51.6263C47.3712 51.6268 47.4677 51.5546 47.5558 51.4498C47.7819 51.1797 47.8507 50.6893 47.737 50.0667C47.7115 49.9278 47.7068 49.8169 47.7261 49.6634C47.7424 49.5131 47.8066 49.3339 47.906 49.1978C48.0043 49.0611 48.1985 48.9044 48.2071 48.897C48.1151 48.5077 47.5674 47.9697 47.2384 47.8053C47.619 47.7729 48.5699 47.2658 48.7575 46.9546C48.3508 46.3095 48.1057 45.7426 48.1711 44.7656C48.8098 44.551 49.7203 44.0745 50.2132 43.705C49.8891 42.9801 48.9621 40.6725 48.9229 40.5571C48.8829 40.4392 48.8488 40.324 48.818 40.2073C48.6961 39.742 48.5445 38.1513 48.5299 37.8161L48.5295 37.8105C45.202 38.7353 41.4103 39.801 41.0142 39.9644C40.8933 40.8675 39.0827 45.0735 36.7842 46.2606L36.6284 46.0802C38.3869 43.9878 39.6656 41.2736 40.0233 39.0408L52.3658 35.5893L43.4608 29.105L38.8788 31.5862L38.3973 31.1134L40.4596 26.4864C39.7767 25.85 35.8157 23.6484 32.3241 23.6484C28.0588 23.6484 23.6805 26.4195 23.6805 32.6091C23.6805 35.6101 25.1682 37.529 26.402 38.5621C28.3093 40.1591 30.7001 40.668 32.4147 40.539L32.4717 40.7854C30.4859 41.7204 27.6274 41.0039 25.7117 39.3999C24.3184 38.2331 22.674 36.1447 22.6029 32.8234C21.9585 31.2127 21.4288 29.5113 21.4288 28.2187C21.4288 25.6135 22.5121 24.0579 24.3268 24.0579C26.0024 24.0653 26.6071 24.0204 27.0299 23.5987C27.2725 23.357 27.3905 22.9744 27.3905 22.4287C27.3905 21.5365 27.7866 21.0686 28.1188 20.8331C29.1282 20.1186 30.9319 20.7248 30.9319 20.7248L30.5567 21.7893C30.5567 21.7893 29.1894 21.4566 28.7691 21.7555C28.7069 21.7997 28.5179 21.9344 28.5179 22.4287C28.5179 22.7416 28.4525 23.0011 28.3895 23.2621C29.6016 22.7641 30.9287 22.4816 32.3241 22.4816C35.0953 22.4816 39.3139 23.8604 41.8699 26.1543L40.2064 29.8944L43.6062 27.9231L53.7539 35.5339ZM10.5067 24.0581L3.80117 20.9131L3.19649 21.3639L3.4781 20.7616L3.90606 19.8469L4.18767 19.2443L4.22889 19.9984L10.9344 23.1434L11.5393 22.6926L11.2575 23.2951L10.8297 24.2096L10.5479 24.8119L10.5067 24.0581ZM13.5174 18.7679L8.11726 13.5648L7.39979 13.7964L7.86033 13.3172L8.68738 12.4563L15.9341 13.8495C15.9951 13.8569 16.0738 13.8814 16.1528 13.9061C16.2303 13.9378 16.2671 13.9543 16.3404 13.9845L11.8608 9.66845L11.0582 9.989L11.6039 9.4208L12.3031 8.69318L12.7636 8.21396L12.5603 8.94058L18.2057 14.3804L17.4809 15.1347L10.0769 13.6923C10.0071 13.6763 9.89328 13.6523 9.76222 13.6113C9.66597 13.5873 9.60501 13.5796 9.56083 13.5542L14.1421 17.9683L14.9091 17.5697L14.4224 18.1893L13.7987 18.9829L13.3881 19.5054L13.5174 18.7679ZM46.6513 11.2729L45.7391 10.8421L44.916 10.4536L45.8912 10.5191L48.8701 4.19126L46.8016 3.21476L46.0193 3.92137L46.9618 2.09219L47.0578 2.478L52.2667 4.93692L52.6248 4.76539L51.8155 6.65759L51.8622 5.60373L49.7823 4.6218L46.8034 10.9499L47.4747 11.6614L46.6513 11.2729ZM27.4869 1.89862L27.2194 2.91887L27.0066 0.871706L27.2979 1.1416L33.0006 0.339834L33.2064 0L33.565 2.02665L33.027 1.1196L30.7502 1.43991L31.7216 8.36783L32.6726 8.59472L31.7712 8.72126L30.7724 8.86189L29.8713 8.98868L30.7228 8.50822L29.7516 1.58029L27.4869 1.89862ZM65.2847 20.171L64.3145 18.0971L63.2621 18.1414L65.1533 17.3354L64.9813 17.6938L67.4242 22.9156L67.8092 23.0127L65.9804 23.9522L66.6878 23.1704L65.7124 21.0854L59.3862 24.0533L59.4494 25.0302L59.0631 24.2048L58.6354 23.2903L58.2494 22.4651L58.9583 23.1388L65.2847 20.171ZM52.5346 14.4505C52.4531 13.5791 52.7273 12.9278 53.4801 12.1839L57.0252 8.67976L56.8125 7.95536L57.2792 8.4289L57.9875 9.14762L58.454 9.62092L57.7338 9.39873L54.4073 12.6863C53.6894 13.3957 53.5398 13.6473 53.5099 14.2306C53.4712 14.84 53.7108 15.4339 54.2032 15.9334C54.6959 16.4332 55.2855 16.6808 55.8943 16.6499C56.4773 16.6277 56.7305 16.4814 57.4485 15.772L60.775 12.4842L60.5622 11.76L61.0287 12.2333L61.7373 12.9523L62.2037 13.4256L61.4833 13.2031L57.9381 16.707C57.1676 17.4683 56.5397 17.7253 55.6707 17.6326C54.8972 17.5493 54.1862 17.1961 53.5729 16.5738C52.9596 15.9515 52.6076 15.2263 52.5346 14.4505ZM39.1199 8.861L38.121 8.72062L37.4636 8.62818L38.1707 8.36694L39.1998 1.02405L38.5917 0.577941L39.2494 0.670376L40.2483 0.810758L40.906 0.903193L40.1987 1.16443L39.1695 8.50733L39.7779 8.95344L39.1199 8.861ZM4.6374 60.3151C5.42916 60.6537 6.5161 60.6881 7.34759 60.3826C9.04488 59.7593 9.84922 58.0208 9.21838 56.2977L8.68898 54.8523L2.66147 57.0661L3.19062 58.5114C3.5591 59.5171 3.96288 60.0119 4.6374 60.3151ZM10.0701 56.1556C10.8873 58.3871 9.89414 60.5756 7.70003 61.3811C6.70712 61.7459 5.57848 61.7407 4.58656 61.3571C3.53566 60.956 2.93172 60.2726 2.44452 58.9427L1.51727 56.4104L1.24628 55.6704L1.85219 56.2875L8.8035 53.7347L8.86742 52.8716L9.13842 53.6116L10.0701 56.1556ZM12.5647 61.5915L12.9767 62.1134L15.8046 65.6994L14.3371 66.9383L14.901 65.925L12.9357 63.4327L10.8122 65.1121L12.2367 66.9183L13.0628 66.7537L11.2095 68.2191L11.5669 67.4401L10.1463 65.6391L7.89737 67.4176L9.86023 69.9064L11.2399 69.5292L9.5031 70.8246L6.60633 67.1519L6.19441 66.6297L6.88621 66.9304L12.6968 62.3349L12.5647 61.5915ZM67.5239 56.081L66.4559 55.1284L68.4874 55.88L66.993 60.3144L66.7805 60.9452L66.6549 60.2003L59.6396 57.8293L59.0892 58.3456L59.3017 57.7151L60.7606 53.386L62.5978 53.9421L61.442 54.0212L60.4282 57.03L62.9917 57.8966L63.7267 55.7157L63.1383 55.1124L65.3759 55.8687L64.5289 55.9935L63.7961 58.1682L66.5112 59.0858L67.5239 56.081ZM51.9467 67.9158L51.5639 68.5663L55.6288 75.2733L54.7349 75.8165L47.9475 72.522C47.8843 72.4883 47.7804 72.4359 47.6641 72.3628C47.5775 72.3146 47.5202 72.2916 47.4842 72.2558L50.8082 77.7403L51.6698 77.702L49.4762 78.8169L49.9059 78.1988L46.0858 71.8957L45.333 71.9355L45.9007 71.5902L46.921 70.9701L53.569 74.1769C53.626 74.1999 53.6956 74.2439 53.7654 74.2879C53.8326 74.3383 53.8639 74.364 53.9271 74.4117L50.7018 69.0902L49.8439 69.1938L50.517 68.785L51.3791 68.2608L51.9467 67.9158ZM62.9359 65.6482L62.1449 64.5103L63.7834 65.73C63.5613 66.6694 63.313 67.3133 62.8436 67.946C61.3835 69.9131 58.9373 70.2564 56.9335 68.7648C55.0282 67.3469 54.6362 64.8605 56.0228 62.9926C56.5734 62.2509 57.304 61.7205 58.1123 61.478L59.6523 62.6243L58.5116 62.2758C57.9136 62.4664 57.2294 62.9152 56.7487 63.563C55.7217 64.9468 56.0465 66.7389 57.537 67.8484C59.1758 69.0681 60.993 68.8703 62.13 67.3385C62.5086 66.8281 62.7779 66.252 62.9359 65.6482ZM39.2417 78.2952L41.8438 77.8202L39.8656 74.3689L39.2417 78.2952ZM40.1791 73.0037L44.4528 80.3646L45.0952 80.5062L43.0304 81.0692L43.4537 80.6674L42.3238 78.6714L39.0879 79.2623L38.7313 81.5077L39.3458 81.7642L37.1414 81.9647L37.7103 81.5967L39.0716 73.5227L38.3399 73.3393L39.1143 73.1982L39.1205 73.2325L39.1267 73.1957L40.1791 73.0037ZM32.2766 75.8563C32.3541 75.3449 32.2638 74.9574 32.0069 74.6816C31.7931 74.45 31.5917 74.382 30.8745 74.273L29.5734 74.0753L29.1323 76.9853L30.4335 77.1832C31.491 77.3441 32.1197 76.8911 32.2766 75.8563ZM31.1477 73.455C32.1207 73.6028 32.5602 73.8193 32.9544 74.3398C33.2861 74.7765 33.4408 75.3981 33.3468 76.0189C33.1607 77.247 32.1041 78.0624 30.626 78.0339L31.344 78.4801L32.637 81.4849L33.2737 82L32.4464 81.8744C31.863 81.7855 31.5145 81.4587 31.2778 80.8868L30.0749 77.9882L29.005 77.8258L28.5318 80.9474L29.1094 81.4301L26.82 80.9587L27.5426 80.7427L28.6503 73.4364L28.0466 72.9836L28.7036 73.0832L31.1477 73.455Z" fill="white"/>
</svg>
