<svg width="98" height="38" viewBox="0 0 98 38" fill="none" xmlns="http://www.w3.org/2000/svg">
<path d="M16.1829 28.2607C16.1529 28.3689 16.0387 28.423 15.8464 28.423H12.1381C12.0224 28.4248 11.9079 28.3997 11.8035 28.3497C11.6992 28.2996 11.608 28.2259 11.5371 28.1344L5.41278 20.3129L3.71192 21.9421V27.9901C3.71995 28.0465 3.71476 28.1039 3.69676 28.1579C3.67876 28.2119 3.64844 28.261 3.60821 28.3012C3.56797 28.3414 3.51893 28.3718 3.46495 28.3898C3.41097 28.4078 3.35355 28.413 3.29722 28.4049H0.41837C0.36204 28.413 0.304614 28.4078 0.250637 28.3898C0.19666 28.3718 0.147614 28.3414 0.10738 28.3012C0.067146 28.261 0.0368291 28.2119 0.0188289 28.1579C0.000828674 28.1039 -0.00436084 28.0465 0.00367111 27.9901V0.419425C-0.00436084 0.363078 0.000828674 0.305635 0.0188289 0.251642C0.0368291 0.197649 0.067146 0.148587 0.10738 0.108342C0.147614 0.0680956 0.19666 0.0377697 0.250637 0.0197641C0.304614 0.00175842 0.36204 -0.00343265 0.41837 0.00460171H3.29722C3.35355 -0.00343265 3.41097 0.00175842 3.46495 0.0197641C3.51893 0.0377697 3.56797 0.0680956 3.60821 0.108342C3.64844 0.148587 3.67876 0.197649 3.69676 0.251642C3.71476 0.305635 3.71995 0.363078 3.71192 0.419425V17.3971L11.0503 9.97237C11.1259 9.88582 11.218 9.81519 11.3212 9.76462C11.4244 9.71404 11.5366 9.68452 11.6513 9.67779H15.4918C15.5623 9.67204 15.6327 9.68949 15.6924 9.72747C15.752 9.76545 15.7977 9.8219 15.8223 9.88821C15.8521 9.9488 15.8639 10.0166 15.8564 10.0837C15.849 10.1508 15.8226 10.2144 15.7802 10.267L8.00915 17.7698L16.0988 27.8218C16.156 27.8776 16.1947 27.9495 16.2098 28.028C16.2248 28.1065 16.2154 28.1877 16.1829 28.2607ZM31.2142 28.4049H28.3354C28.0289 28.4049 27.8786 28.2667 27.8786 27.9901V27.3889C26.501 28.3514 24.8456 28.8351 23.1667 28.7657C21.5101 28.8006 19.898 28.2274 18.6351 27.1545C18.0266 26.6297 17.5426 25.976 17.2182 25.2408C16.8938 24.5056 16.7373 23.7073 16.7599 22.904C16.7599 20.1746 18.4547 18.3249 21.8445 17.355C23.8286 16.8536 25.851 16.5178 27.8906 16.351C27.9579 15.8606 27.9135 15.3613 27.7609 14.8904C27.6084 14.4195 27.3515 13.9892 27.0094 13.6314C26.6674 13.2737 26.2491 12.9978 25.7856 12.8243C25.3221 12.6509 24.8254 12.5843 24.3326 12.6296C22.6152 12.6861 20.9561 13.2673 19.5786 14.2949C19.3322 14.4392 19.1519 14.4092 19.0377 14.2168L17.5352 12.0886C17.397 11.9202 17.439 11.7279 17.6614 11.4874C19.6033 10.0783 21.9338 9.30538 24.3326 9.27499C25.9334 9.23904 27.5081 9.68519 28.8523 10.5555C30.6914 11.782 31.6089 13.7419 31.6049 16.4352V27.9901C31.6122 28.0442 31.6073 28.0993 31.5907 28.1513C31.574 28.2033 31.5459 28.2509 31.5084 28.2907C31.471 28.3305 31.4252 28.3613 31.3743 28.3811C31.3234 28.4009 31.2687 28.409 31.2142 28.4049ZM27.8786 19.6876C25.154 19.9682 23.2909 20.3309 22.2892 20.7758C20.9309 21.357 20.3139 22.1906 20.4381 23.2768C20.4766 23.5748 20.5786 23.861 20.7372 24.1162C20.8959 24.3713 21.1074 24.5894 21.3576 24.7557C21.8872 25.1344 22.5113 25.3591 23.1607 25.405C24.005 25.5123 24.8626 25.4292 25.6707 25.1619C26.4787 24.8945 27.2167 24.4497 27.8305 23.8599L27.8786 19.6876ZM48.6857 35.6433C47.1591 37.2144 45.0075 38 42.2308 38C40.6238 38.0039 39.0435 37.5895 37.6451 36.7976C37.3386 36.5992 36.9779 36.3407 36.5572 36.022C36.1365 35.7034 35.6557 35.3066 35.0968 34.8197C35.013 34.7446 34.9618 34.6398 34.954 34.5276C34.9461 34.4154 34.9822 34.3045 35.0547 34.2185L37.014 32.2586C37.0587 32.2159 37.1115 32.1826 37.1694 32.1609C37.2272 32.1392 37.2889 32.1295 37.3506 32.1323C37.4056 32.1324 37.4601 32.1437 37.5107 32.1654C37.5613 32.1871 37.607 32.2188 37.6451 32.2586C39.1957 33.8097 40.7162 34.5912 42.1887 34.5912C45.5504 34.5912 47.2312 32.8397 47.2312 29.3368V27.1545C45.7441 28.3018 43.896 28.8797 42.0204 28.7837C40.795 28.8329 39.5761 28.5808 38.4707 28.0494C37.3653 27.518 36.407 26.7235 35.6798 25.7356C34.2867 23.7802 33.577 21.42 33.6604 19.0203C33.5879 16.7019 34.2621 14.4215 35.5836 12.5154C36.2846 11.4808 37.2385 10.6427 38.3546 10.0808C39.4707 9.51885 40.712 9.25182 41.9603 9.30505C43.8447 9.24096 45.6956 9.81502 47.2132 10.9343V10.0986C47.2054 10.0421 47.2107 9.98445 47.2287 9.93026C47.2467 9.87607 47.2769 9.82674 47.317 9.78607C47.357 9.7454 47.4059 9.71449 47.4598 9.69571C47.5137 9.67694 47.5712 9.67081 47.6279 9.67779H50.5067C50.5639 9.66979 50.6221 9.67516 50.6767 9.69348C50.7314 9.7118 50.7811 9.74257 50.8219 9.78336C50.8627 9.82416 50.8934 9.87386 50.9118 9.92857C50.9301 9.98328 50.9354 10.0415 50.9274 10.0986V28.7356C50.9395 31.7696 50.1922 34.0722 48.6857 35.6433ZM47.2312 15.6356C46.534 13.8561 44.9313 12.9663 42.4231 12.9663C39.1736 12.9663 37.5489 14.9943 37.5489 19.0504C37.5489 21.3069 38.0898 22.9481 39.1716 23.9741C39.5843 24.3772 40.0749 24.6917 40.6133 24.8985C41.1517 25.1052 41.7267 25.1998 42.3029 25.1765C44.9113 25.1765 46.5641 24.2868 47.2613 22.5072L47.2312 15.6356ZM68.2727 35.6433C66.7581 37.2104 64.6105 37.996 61.8298 38C60.2229 38.0031 58.6428 37.5888 57.2441 36.7976C56.9396 36.6012 56.579 36.3427 56.1623 36.022C55.7416 35.7034 55.2547 35.3066 54.7018 34.8197C54.659 34.7834 54.6238 34.7388 54.5984 34.6887C54.5731 34.6386 54.558 34.584 54.554 34.5279C54.5501 34.4719 54.5575 34.4157 54.5756 34.3625C54.5938 34.3094 54.6224 34.2604 54.6597 34.2185L56.619 32.2586C56.6626 32.216 56.7144 32.1829 56.7712 32.1612C56.8281 32.1394 56.8888 32.1296 56.9496 32.1323C57.0047 32.1321 57.0593 32.1432 57.1099 32.1649C57.1606 32.1866 57.2062 32.2185 57.2441 32.2586C58.8007 33.8097 60.3153 34.5912 61.7877 34.5912C65.1534 34.5912 66.8362 32.8397 66.8362 29.3368V27.1545C65.3466 28.3013 63.4968 28.879 61.6195 28.7837C60.3968 28.831 59.1812 28.5778 58.079 28.0465C56.9768 27.5151 56.0216 26.7217 55.2968 25.7356C53.9073 23.7794 53.2036 21.4183 53.2954 19.0203C53.2212 16.7025 53.8933 14.4222 55.2127 12.5154C55.9145 11.4816 56.8685 10.6441 57.9845 10.0823C59.1004 9.5205 60.3412 9.25297 61.5894 9.30505C63.4754 9.24289 65.3275 9.8167 66.8483 10.9343V10.0986C66.8405 10.0421 66.8458 9.98445 66.8638 9.93026C66.8817 9.87607 66.9119 9.82674 66.952 9.78607C66.9921 9.7454 67.041 9.71449 67.0949 9.69571C67.1488 9.67694 67.2063 9.67081 67.263 9.67779H70.1418C70.1985 9.67081 70.256 9.67694 70.3099 9.69571C70.3638 9.71449 70.4127 9.7454 70.4527 9.78607C70.4928 9.82674 70.523 9.87607 70.541 9.93026C70.559 9.98445 70.5643 10.0421 70.5565 10.0986V28.7356C70.5485 31.7696 69.7872 34.0722 68.2727 35.6433ZM66.8362 15.6356C66.1391 13.8561 64.5364 12.9663 62.0281 12.9663C58.7426 12.9463 57.0998 14.9643 57.0998 19.0203C57.0998 21.2768 57.6428 22.9181 58.7286 23.9441C59.1395 24.3478 59.6289 24.6629 60.1665 24.8697C60.7041 25.0765 61.2784 25.1707 61.8538 25.1465C64.4703 25.1465 66.125 24.2567 66.8182 22.4772L66.8362 15.6356ZM76.9332 28.4049H74.0604C74.0039 28.4127 73.9463 28.4074 73.8921 28.3894C73.8379 28.3714 73.7886 28.3412 73.7479 28.3011C73.7073 28.2611 73.6764 28.2122 73.6576 28.1582C73.6388 28.1043 73.6327 28.0468 73.6397 27.9901V0.419425C73.6327 0.362751 73.6388 0.30523 73.6576 0.251302C73.6764 0.197374 73.7073 0.148481 73.7479 0.108395C73.7886 0.0683086 73.8379 0.038102 73.8921 0.0201059C73.9463 0.00210973 74.0039 -0.00319478 74.0604 0.00460171H76.9332C76.99 -0.00448191 77.0481 -7.73754e-05 77.1029 0.0174594C77.1577 0.0349963 77.2076 0.0651736 77.2485 0.105553C77.2895 0.145933 77.3203 0.195382 77.3387 0.249907C77.357 0.304431 77.3622 0.362501 77.3539 0.419425V27.9901C77.3622 28.047 77.357 28.1051 77.3387 28.1596C77.3203 28.2142 77.2895 28.2636 77.2485 28.304C77.2076 28.3444 77.1577 28.3745 77.1029 28.3921C77.0481 28.4096 76.99 28.414 76.9332 28.4049ZM97.9146 19.9401C97.9216 19.9968 97.9154 20.0543 97.8967 20.1083C97.8779 20.1622 97.847 20.2111 97.8063 20.2512C97.7657 20.2913 97.7164 20.3215 97.6622 20.3395C97.608 20.3575 97.5504 20.3628 97.4939 20.355H83.9471C84.0849 21.673 84.7083 22.8925 85.696 23.7758C86.8988 24.7789 88.428 25.3052 89.9932 25.2547C91.4695 25.2698 92.9126 24.8173 94.1162 23.9621C94.3686 23.7938 94.579 23.7938 94.7172 23.9621L96.6765 25.9641C96.8989 26.1865 96.8989 26.3789 96.6765 26.5653C94.6716 28.0697 92.2227 28.8629 89.7168 28.8198C88.4036 28.8564 87.0968 28.6236 85.8771 28.1355C84.6573 27.6475 83.5505 26.9146 82.6248 25.9821C81.7101 25.0403 80.9953 23.9231 80.5233 22.6978C80.0513 21.4724 79.8318 20.1643 79.8782 18.852C79.8478 17.5754 80.0719 16.3055 80.5372 15.1165C81.0026 13.9274 81.7 12.8429 82.5888 11.9262C83.4322 11.065 84.4465 10.3901 85.5666 9.94484C86.6866 9.4996 87.8874 9.29394 89.0917 9.34112C90.288 9.31053 91.4771 9.53426 92.5805 9.99751C93.6839 10.4608 94.6764 11.153 95.4925 12.0285C96.3773 12.9516 97.0556 14.0525 97.4825 15.2579C97.9094 16.4634 98.0752 17.7459 97.9687 19.0203L97.9146 19.9401ZM92.4514 13.832C91.5199 12.9775 90.2953 12.5146 89.0316 12.5395C87.8158 12.5281 86.6401 12.9744 85.7381 13.7899C84.7813 14.6347 84.1446 15.7832 83.935 17.0424H93.978C93.9731 16.4283 93.8339 15.8227 93.5702 15.2681C93.3065 14.7135 92.9246 14.2233 92.4514 13.832Z" fill="white"/>
</svg>
