<svg xmlns="http://www.w3.org/2000/svg" width="458.591" height="204.945" viewBox="0 0 458.591 204.945">
  <g id="Gruppe_7" data-name="Gruppe 7" transform="translate(-131.409 -138.055)">
    <g id="Gruppe_6" data-name="Gruppe 6" transform="translate(-5 -1)">
      <text id="anua_Technologies" fill="white" data-name="anua Technologies" transform="translate(190 326)" font-size="50" font-family="Nunito-ExtraLight, Nunito" font-weight="200"><tspan x="0" y="0">anua Technologies</tspan></text>
      <g id="layer1" transform="translate(76.101 101.825)">
        <g id="text123" transform="translate(60.308 37.229)">
          <path id="path592" fill="white" d="M108.178,37.253H60.567q.178,15.551.365,31.1c21.271.273,42.554-.18,63.818.465,10.028.706,20.961,3.239,27.7,11.3,6.342,7.976,7.091,19.011,5.234,28.688a30.611,30.611,0,0,1-20.45,22.925c-10.718,3.48-22.085,2.9-33.369,3.075-14.415,0-28.828-.251-43.24-.48v30.861c22.154.481,44.337,1.274,66.486.314,15.213-.949,30.611-5.326,42.7-14.914A62.729,62.729,0,0,0,193.752,108.5c1.521-11.992.377-24.548-4.424-35.712-7.389-16.261-23.171-27.656-40.263-31.924C135.764,37.271,121.86,37.143,108.178,37.253ZM60.326,197.538q.168,14.619.347,29.237H95.48q-.177-15.424-.365-30.849H60.308q.009.806.018,1.612Z" transform="translate(-60.308 -37.229)"/>
        </g>
      </g>
    </g>
  </g>
</svg>